<?xml version="1.0" encoding="UTF-8" standalone="no"?>
<svg
    xmlns:dc="http://purl.org/dc/elements/1.1/"
    xmlns:cc="http://creativecommons.org/ns#"
    xmlns:rdf="http://www.w3.org/1999/02/22-rdf-syntax-ns#"
    xmlns:svg="http://www.w3.org/2000/svg"
    xmlns="http://www.w3.org/2000/svg"
    width="1174"
    height="334"    
>
<style type="text/css"><![CDATA[
.bl { /* bar line */
    stroke:slategray;
    stroke-width:2;
}
.title{
    text-anchor:left;
    font-weight:bold;
    font-size:22px;
}
.xAxis{stroke:black;stroke-width:1;}
.yAxis{stroke:black;stroke-width:1;}
.xLegends{
    text-anchor:middle;
    font-size:12px;
}
.yLegends{
    text-anchor:end;
    dominant-baseline:middle;
    font-size:12px;
}
.meanLine{
    stroke:black;
    stroke-dasharray:5,20;
}
]]></style>
<rect width="100%" height="100%" fill="moccasin" />
<text x="25" y="37" class="title">Father - Saturn at birth</text>
<line x1="70" y1="302" x2="1149" y2="302" class="xAxis" />
<line x1="70" y1="52" x2="70" y2="302" class="yAxis" />
<g><title>0: 923</title><line x1="70" y1="302" x2="70" y2="278.7" class="bl" /></g>
<g><title>1: 834</title><line x1="73" y1="302" x2="73" y2="281.1" class="bl" /></g>
<g><title>2: 845</title><line x1="76" y1="302" x2="76" y2="280.8" class="bl" /></g>
<g><title>3: 826</title><line x1="79" y1="302" x2="79" y2="281.3" class="bl" /></g>
<g><title>4: 979</title><line x1="82" y1="302" x2="82" y2="277.2" class="bl" /></g>
<g><title>5: 5226</title><line x1="85" y1="302" x2="85" y2="164.2" class="bl" /></g>
<g><title>6: 4981</title><line x1="88" y1="302" x2="88" y2="170.7" class="bl" /></g>
<g><title>7: 4500</title><line x1="91" y1="302" x2="91" y2="183.5" class="bl" /></g>
<g><title>8: 3837</title><line x1="94" y1="302" x2="94" y2="201.1" class="bl" /></g>
<g><title>9: 3907</title><line x1="97" y1="302" x2="97" y2="199.3" class="bl" /></g>
<g><title>10: 3960</title><line x1="100" y1="302" x2="100" y2="197.9" class="bl" /></g>
<g><title>11: 5070</title><line x1="103" y1="302" x2="103" y2="168.3" class="bl" /></g>
<g><title>12: 6168</title><line x1="106" y1="302" x2="106" y2="139.1" class="bl" /></g>
<g><title>13: 941</title><line x1="109" y1="302" x2="109" y2="278.2" class="bl" /></g>
<g><title>14: 946</title><line x1="112" y1="302" x2="112" y2="278.1" class="bl" /></g>
<g><title>15: 1022</title><line x1="115" y1="302" x2="115" y2="276" class="bl" /></g>
<g><title>16: 1017</title><line x1="118" y1="302" x2="118" y2="276.2" class="bl" /></g>
<g><title>17: 1020</title><line x1="121" y1="302" x2="121" y2="276.1" class="bl" /></g>
<g><title>18: 5338</title><line x1="124" y1="302" x2="124" y2="161.2" class="bl" /></g>
<g><title>19: 5915</title><line x1="127" y1="302" x2="127" y2="145.8" class="bl" /></g>
<g><title>20: 4417</title><line x1="130" y1="302" x2="130" y2="185.7" class="bl" /></g>
<g><title>21: 4120</title><line x1="133" y1="302" x2="133" y2="193.6" class="bl" /></g>
<g><title>22: 3904</title><line x1="136" y1="302" x2="136" y2="199.3" class="bl" /></g>
<g><title>23: 4532</title><line x1="139" y1="302" x2="139" y2="182.6" class="bl" /></g>
<g><title>24: 5657</title><line x1="142" y1="302" x2="142" y2="152.7" class="bl" /></g>
<g><title>25: 7008</title><line x1="145" y1="302" x2="145" y2="116.7" class="bl" /></g>
<g><title>26: 1074</title><line x1="148" y1="302" x2="148" y2="274.7" class="bl" /></g>
<g><title>27: 1068</title><line x1="151" y1="302" x2="151" y2="274.8" class="bl" /></g>
<g><title>28: 1065</title><line x1="154" y1="302" x2="154" y2="274.9" class="bl" /></g>
<g><title>29: 1025</title><line x1="157" y1="302" x2="157" y2="276" class="bl" /></g>
<g><title>30: 1157</title><line x1="160" y1="302" x2="160" y2="272.5" class="bl" /></g>
<g><title>31: 1169</title><line x1="163" y1="302" x2="163" y2="272.1" class="bl" /></g>
<g><title>32: 9365</title><line x1="166" y1="302" x2="166" y2="54" class="bl" /></g>
<g><title>33: 4962</title><line x1="169" y1="302" x2="169" y2="171.2" class="bl" /></g>
<g><title>34: 4437</title><line x1="172" y1="302" x2="172" y2="185.2" class="bl" /></g>
<g><title>35: 4414</title><line x1="175" y1="302" x2="175" y2="185.8" class="bl" /></g>
<g><title>36: 4423</title><line x1="178" y1="302" x2="178" y2="185.5" class="bl" /></g>
<g><title>37: 5218</title><line x1="181" y1="302" x2="181" y2="164.4" class="bl" /></g>
<g><title>38: 9440</title><line x1="184" y1="302" x2="184" y2="52" class="bl" /></g>
<g><title>39: 1167</title><line x1="187" y1="302" x2="187" y2="272.2" class="bl" /></g>
<g><title>40: 1101</title><line x1="190" y1="302" x2="190" y2="273.9" class="bl" /></g>
<g><title>41: 1202</title><line x1="193" y1="302" x2="193" y2="271.3" class="bl" /></g>
<g><title>42: 1212</title><line x1="196" y1="302" x2="196" y2="271" class="bl" /></g>
<g><title>43: 1142</title><line x1="199" y1="302" x2="199" y2="272.9" class="bl" /></g>
<g><title>44: 1154</title><line x1="202" y1="302" x2="202" y2="272.5" class="bl" /></g>
<g><title>45: 6024</title><line x1="205" y1="302" x2="205" y2="142.9" class="bl" /></g>
<g><title>46: 6366</title><line x1="208" y1="302" x2="208" y2="133.8" class="bl" /></g>
<g><title>47: 4830</title><line x1="211" y1="302" x2="211" y2="174.7" class="bl" /></g>
<g><title>48: 4598</title><line x1="214" y1="302" x2="214" y2="180.9" class="bl" /></g>
<g><title>49: 4404</title><line x1="217" y1="302" x2="217" y2="186" class="bl" /></g>
<g><title>50: 4566</title><line x1="220" y1="302" x2="220" y2="181.7" class="bl" /></g>
<g><title>51: 5571</title><line x1="223" y1="302" x2="223" y2="155" class="bl" /></g>
<g><title>52: 7901</title><line x1="226" y1="302" x2="226" y2="93" class="bl" /></g>
<g><title>53: 1042</title><line x1="229" y1="302" x2="229" y2="275.5" class="bl" /></g>
<g><title>54: 1197</title><line x1="232" y1="302" x2="232" y2="271.4" class="bl" /></g>
<g><title>55: 1173</title><line x1="235" y1="302" x2="235" y2="272" class="bl" /></g>
<g><title>56: 1150</title><line x1="238" y1="302" x2="238" y2="272.6" class="bl" /></g>
<g><title>57: 1122</title><line x1="241" y1="302" x2="241" y2="273.4" class="bl" /></g>
<g><title>58: 934</title><line x1="244" y1="302" x2="244" y2="278.4" class="bl" /></g>
<g><title>59: 6444</title><line x1="247" y1="302" x2="247" y2="131.7" class="bl" /></g>
<g><title>60: 5416</title><line x1="250" y1="302" x2="250" y2="159.1" class="bl" /></g>
<g><title>61: 4413</title><line x1="253" y1="302" x2="253" y2="185.8" class="bl" /></g>
<g><title>62: 4122</title><line x1="256" y1="302" x2="256" y2="193.5" class="bl" /></g>
<g><title>63: 4087</title><line x1="259" y1="302" x2="259" y2="194.5" class="bl" /></g>
<g><title>64: 4329</title><line x1="262" y1="302" x2="262" y2="188" class="bl" /></g>
<g><title>65: 5541</title><line x1="265" y1="302" x2="265" y2="155.8" class="bl" /></g>
<g><title>66: 6973</title><line x1="268" y1="302" x2="268" y2="117.7" class="bl" /></g>
<g><title>67: 1032</title><line x1="271" y1="302" x2="271" y2="275.8" class="bl" /></g>
<g><title>68: 1040</title><line x1="274" y1="302" x2="274" y2="275.6" class="bl" /></g>
<g><title>69: 1002</title><line x1="277" y1="302" x2="277" y2="276.6" class="bl" /></g>
<g><title>70: 860</title><line x1="280" y1="302" x2="280" y2="280.4" class="bl" /></g>
<g><title>71: 1020</title><line x1="283" y1="302" x2="283" y2="276.1" class="bl" /></g>
<g><title>72: 1002</title><line x1="286" y1="302" x2="286" y2="276.6" class="bl" /></g>
<g><title>73: 4933</title><line x1="289" y1="302" x2="289" y2="172" class="bl" /></g>
<g><title>74: 5159</title><line x1="292" y1="302" x2="292" y2="165.9" class="bl" /></g>
<g><title>75: 3794</title><line x1="295" y1="302" x2="295" y2="202.3" class="bl" /></g>
<g><title>76: 3751</title><line x1="298" y1="302" x2="298" y2="203.4" class="bl" /></g>
<g><title>77: 3677</title><line x1="301" y1="302" x2="301" y2="205.4" class="bl" /></g>
<g><title>78: 3790</title><line x1="304" y1="302" x2="304" y2="202.4" class="bl" /></g>
<g><title>79: 4651</title><line x1="307" y1="302" x2="307" y2="179.5" class="bl" /></g>
<g><title>80: 6510</title><line x1="310" y1="302" x2="310" y2="130" class="bl" /></g>
<g><title>81: 847</title><line x1="313" y1="302" x2="313" y2="280.7" class="bl" /></g>
<g><title>82: 813</title><line x1="316" y1="302" x2="316" y2="281.6" class="bl" /></g>
<g><title>83: 736</title><line x1="319" y1="302" x2="319" y2="283.7" class="bl" /></g>
<g><title>84: 807</title><line x1="322" y1="302" x2="322" y2="281.8" class="bl" /></g>
<g><title>85: 836</title><line x1="325" y1="302" x2="325" y2="281" class="bl" /></g>
<g><title>86: 801</title><line x1="328" y1="302" x2="328" y2="281.9" class="bl" /></g>
<g><title>87: 3098</title><line x1="331" y1="302" x2="331" y2="220.8" class="bl" /></g>
<g><title>88: 3989</title><line x1="334" y1="302" x2="334" y2="197.1" class="bl" /></g>
<g><title>89: 3083</title><line x1="337" y1="302" x2="337" y2="221.2" class="bl" /></g>
<g><title>90: 2809</title><line x1="340" y1="302" x2="340" y2="228.5" class="bl" /></g>
<g><title>91: 2805</title><line x1="343" y1="302" x2="343" y2="228.6" class="bl" /></g>
<g><title>92: 2968</title><line x1="346" y1="302" x2="346" y2="224.3" class="bl" /></g>
<g><title>93: 3466</title><line x1="349" y1="302" x2="349" y2="211" class="bl" /></g>
<g><title>94: 5666</title><line x1="352" y1="302" x2="352" y2="152.4" class="bl" /></g>
<g><title>95: 539</title><line x1="355" y1="302" x2="355" y2="288.9" class="bl" /></g>
<g><title>96: 627</title><line x1="358" y1="302" x2="358" y2="286.6" class="bl" /></g>
<g><title>97: 636</title><line x1="361" y1="302" x2="361" y2="286.3" class="bl" /></g>
<g><title>98: 601</title><line x1="364" y1="302" x2="364" y2="287.3" class="bl" /></g>
<g><title>99: 547</title><line x1="367" y1="302" x2="367" y2="288.7" class="bl" /></g>
<g><title>100: 602</title><line x1="370" y1="302" x2="370" y2="287.2" class="bl" /></g>
<g><title>101: 1400</title><line x1="373" y1="302" x2="373" y2="266" class="bl" /></g>
<g><title>102: 3578</title><line x1="376" y1="302" x2="376" y2="208" class="bl" /></g>
<g><title>103: 2386</title><line x1="379" y1="302" x2="379" y2="239.7" class="bl" /></g>
<g><title>104: 1955</title><line x1="382" y1="302" x2="382" y2="251.2" class="bl" /></g>
<g><title>105: 2057</title><line x1="385" y1="302" x2="385" y2="248.5" class="bl" /></g>
<g><title>106: 2047</title><line x1="388" y1="302" x2="388" y2="248.8" class="bl" /></g>
<g><title>107: 2735</title><line x1="391" y1="302" x2="391" y2="230.5" class="bl" /></g>
<g><title>108: 4462</title><line x1="394" y1="302" x2="394" y2="184.5" class="bl" /></g>
<g><title>109: 476</title><line x1="397" y1="302" x2="397" y2="290.6" class="bl" /></g>
<g><title>110: 454</title><line x1="400" y1="302" x2="400" y2="291.2" class="bl" /></g>
<g><title>111: 444</title><line x1="403" y1="302" x2="403" y2="291.4" class="bl" /></g>
<g><title>112: 414</title><line x1="406" y1="302" x2="406" y2="292.2" class="bl" /></g>
<g><title>113: 502</title><line x1="409" y1="302" x2="409" y2="289.9" class="bl" /></g>
<g><title>114: 488</title><line x1="412" y1="302" x2="412" y2="290.3" class="bl" /></g>
<g><title>115: 407</title><line x1="415" y1="302" x2="415" y2="292.4" class="bl" /></g>
<g><title>116: 2862</title><line x1="418" y1="302" x2="418" y2="227.1" class="bl" /></g>
<g><title>117: 1692</title><line x1="421" y1="302" x2="421" y2="258.2" class="bl" /></g>
<g><title>118: 1416</title><line x1="424" y1="302" x2="424" y2="265.6" class="bl" /></g>
<g><title>119: 1299</title><line x1="427" y1="302" x2="427" y2="268.7" class="bl" /></g>
<g><title>120: 1514</title><line x1="430" y1="302" x2="430" y2="263" class="bl" /></g>
<g><title>121: 1712</title><line x1="433" y1="302" x2="433" y2="257.7" class="bl" /></g>
<g><title>122: 3181</title><line x1="436" y1="302" x2="436" y2="218.6" class="bl" /></g>
<g><title>123: 355</title><line x1="439" y1="302" x2="439" y2="293.8" class="bl" /></g>
<g><title>124: 344</title><line x1="442" y1="302" x2="442" y2="294.1" class="bl" /></g>
<g><title>125: 344</title><line x1="445" y1="302" x2="445" y2="294.1" class="bl" /></g>
<g><title>126: 335</title><line x1="448" y1="302" x2="448" y2="294.3" class="bl" /></g>
<g><title>127: 325</title><line x1="451" y1="302" x2="451" y2="294.6" class="bl" /></g>
<g><title>128: 349</title><line x1="454" y1="302" x2="454" y2="294" class="bl" /></g>
<g><title>129: 627</title><line x1="457" y1="302" x2="457" y2="286.6" class="bl" /></g>
<g><title>130: 2008</title><line x1="460" y1="302" x2="460" y2="249.8" class="bl" /></g>
<g><title>131: 1317</title><line x1="463" y1="302" x2="463" y2="268.2" class="bl" /></g>
<g><title>132: 1130</title><line x1="466" y1="302" x2="466" y2="273.2" class="bl" /></g>
<g><title>133: 1084</title><line x1="469" y1="302" x2="469" y2="274.4" class="bl" /></g>
<g><title>134: 1143</title><line x1="472" y1="302" x2="472" y2="272.8" class="bl" /></g>
<g><title>135: 1350</title><line x1="475" y1="302" x2="475" y2="267.3" class="bl" /></g>
<g><title>136: 2364</title><line x1="478" y1="302" x2="478" y2="240.3" class="bl" /></g>
<g><title>137: 308</title><line x1="481" y1="302" x2="481" y2="295.1" class="bl" /></g>
<g><title>138: 306</title><line x1="484" y1="302" x2="484" y2="295.1" class="bl" /></g>
<g><title>139: 270</title><line x1="487" y1="302" x2="487" y2="296.1" class="bl" /></g>
<g><title>140: 295</title><line x1="490" y1="302" x2="490" y2="295.4" class="bl" /></g>
<g><title>141: 295</title><line x1="493" y1="302" x2="493" y2="295.4" class="bl" /></g>
<g><title>142: 287</title><line x1="496" y1="302" x2="496" y2="295.6" class="bl" /></g>
<g><title>143: 1242</title><line x1="499" y1="302" x2="499" y2="270.2" class="bl" /></g>
<g><title>144: 1247</title><line x1="502" y1="302" x2="502" y2="270.1" class="bl" /></g>
<g><title>145: 953</title><line x1="505" y1="302" x2="505" y2="277.9" class="bl" /></g>
<g><title>146: 898</title><line x1="508" y1="302" x2="508" y2="279.4" class="bl" /></g>
<g><title>147: 784</title><line x1="511" y1="302" x2="511" y2="282.4" class="bl" /></g>
<g><title>148: 961</title><line x1="514" y1="302" x2="514" y2="277.7" class="bl" /></g>
<g><title>149: 1185</title><line x1="517" y1="302" x2="517" y2="271.7" class="bl" /></g>
<g><title>150: 1592</title><line x1="520" y1="302" x2="520" y2="260.9" class="bl" /></g>
<g><title>151: 232</title><line x1="523" y1="302" x2="523" y2="297.1" class="bl" /></g>
<g><title>152: 233</title><line x1="526" y1="302" x2="526" y2="297" class="bl" /></g>
<g><title>153: 249</title><line x1="529" y1="302" x2="529" y2="296.6" class="bl" /></g>
<g><title>154: 259</title><line x1="532" y1="302" x2="532" y2="296.4" class="bl" /></g>
<g><title>155: 258</title><line x1="535" y1="302" x2="535" y2="296.4" class="bl" /></g>
<g><title>156: 251</title><line x1="538" y1="302" x2="538" y2="296.6" class="bl" /></g>
<g><title>157: 1347</title><line x1="541" y1="302" x2="541" y2="267.4" class="bl" /></g>
<g><title>158: 797</title><line x1="544" y1="302" x2="544" y2="282" class="bl" /></g>
<g><title>159: 636</title><line x1="547" y1="302" x2="547" y2="286.3" class="bl" /></g>
<g><title>160: 673</title><line x1="550" y1="302" x2="550" y2="285.3" class="bl" /></g>
<g><title>161: 656</title><line x1="553" y1="302" x2="553" y2="285.8" class="bl" /></g>
<g><title>162: 908</title><line x1="556" y1="302" x2="556" y2="279.1" class="bl" /></g>
<g><title>163: 1521</title><line x1="559" y1="302" x2="559" y2="262.8" class="bl" /></g>
<g><title>164: 189</title><line x1="562" y1="302" x2="562" y2="298.2" class="bl" /></g>
<g><title>165: 226</title><line x1="565" y1="302" x2="565" y2="297.2" class="bl" /></g>
<g><title>166: 225</title><line x1="568" y1="302" x2="568" y2="297.3" class="bl" /></g>
<g><title>167: 192</title><line x1="571" y1="302" x2="571" y2="298.1" class="bl" /></g>
<g><title>168: 233</title><line x1="574" y1="302" x2="574" y2="297" class="bl" /></g>
<g><title>169: 258</title><line x1="577" y1="302" x2="577" y2="296.4" class="bl" /></g>
<g><title>170: 887</title><line x1="580" y1="302" x2="580" y2="279.6" class="bl" /></g>
<g><title>171: 523</title><line x1="583" y1="302" x2="583" y2="289.3" class="bl" /></g>
<g><title>172: 435</title><line x1="586" y1="302" x2="586" y2="291.7" class="bl" /></g>
<g><title>173: 415</title><line x1="589" y1="302" x2="589" y2="292.2" class="bl" /></g>
<g><title>174: 437</title><line x1="592" y1="302" x2="592" y2="291.6" class="bl" /></g>
<g><title>175: 589</title><line x1="595" y1="302" x2="595" y2="287.6" class="bl" /></g>
<g><title>176: 973</title><line x1="598" y1="302" x2="598" y2="277.4" class="bl" /></g>
<g><title>177: 308</title><line x1="601" y1="302" x2="601" y2="295.1" class="bl" /></g>
<g><title>178: 158</title><line x1="604" y1="302" x2="604" y2="299" class="bl" /></g>
<g><title>179: 195</title><line x1="607" y1="302" x2="607" y2="298.1" class="bl" /></g>
<g><title>180: 169</title><line x1="610" y1="302" x2="610" y2="298.8" class="bl" /></g>
<g><title>181: 214</title><line x1="613" y1="302" x2="613" y2="297.6" class="bl" /></g>
<g><title>182: 211</title><line x1="616" y1="302" x2="616" y2="297.6" class="bl" /></g>
<g><title>183: 487</title><line x1="619" y1="302" x2="619" y2="290.3" class="bl" /></g>
<g><title>184: 286</title><line x1="622" y1="302" x2="622" y2="295.6" class="bl" /></g>
<g><title>185: 249</title><line x1="625" y1="302" x2="625" y2="296.6" class="bl" /></g>
<g><title>186: 248</title><line x1="628" y1="302" x2="628" y2="296.7" class="bl" /></g>
<g><title>187: 287</title><line x1="631" y1="302" x2="631" y2="295.6" class="bl" /></g>
<g><title>188: 526</title><line x1="634" y1="302" x2="634" y2="289.3" class="bl" /></g>
<g><title>189: 605</title><line x1="637" y1="302" x2="637" y2="287.1" class="bl" /></g>
<g><title>190: 162</title><line x1="640" y1="302" x2="640" y2="298.9" class="bl" /></g>
<g><title>191: 126</title><line x1="643" y1="302" x2="643" y2="299.9" class="bl" /></g>
<g><title>192: 156</title><line x1="646" y1="302" x2="646" y2="299.1" class="bl" /></g>
<g><title>193: 170</title><line x1="649" y1="302" x2="649" y2="298.7" class="bl" /></g>
<g><title>194: 270</title><line x1="652" y1="302" x2="652" y2="296.1" class="bl" /></g>
<g><title>195: 159</title><line x1="655" y1="302" x2="655" y2="299" class="bl" /></g>
<g><title>196: 159</title><line x1="658" y1="302" x2="658" y2="299" class="bl" /></g>
<g><title>197: 123</title><line x1="661" y1="302" x2="661" y2="300" class="bl" /></g>
<g><title>198: 127</title><line x1="664" y1="302" x2="664" y2="299.9" class="bl" /></g>
<g><title>199: 133</title><line x1="667" y1="302" x2="667" y2="299.7" class="bl" /></g>
<g><title>200: 353</title><line x1="670" y1="302" x2="670" y2="293.9" class="bl" /></g>
<g><title>201: 318</title><line x1="673" y1="302" x2="673" y2="294.8" class="bl" /></g>
<g><title>202: 272</title><line x1="676" y1="302" x2="676" y2="296" class="bl" /></g>
<g><title>203: 176</title><line x1="679" y1="302" x2="679" y2="298.6" class="bl" /></g>
<g><title>204: 172</title><line x1="682" y1="302" x2="682" y2="298.7" class="bl" /></g>
<g><title>205: 197</title><line x1="685" y1="302" x2="685" y2="298" class="bl" /></g>
<g><title>206: 236</title><line x1="688" y1="302" x2="688" y2="297" class="bl" /></g>
<g><title>207: 252</title><line x1="691" y1="302" x2="691" y2="296.5" class="bl" /></g>
<g><title>208: 106</title><line x1="694" y1="302" x2="694" y2="300.4" class="bl" /></g>
<g><title>209: 73</title><line x1="697" y1="302" x2="697" y2="301.3" class="bl" /></g>
<g><title>210: 60</title><line x1="700" y1="302" x2="700" y2="301.7" class="bl" /></g>
<g><title>211: 67</title><line x1="703" y1="302" x2="703" y2="301.5" class="bl" /></g>
<g><title>212: 335</title><line x1="706" y1="302" x2="706" y2="294.3" class="bl" /></g>
<g><title>213: 319</title><line x1="709" y1="302" x2="709" y2="294.8" class="bl" /></g>
<g><title>214: 237</title><line x1="712" y1="302" x2="712" y2="296.9" class="bl" /></g>
<g><title>215: 211</title><line x1="715" y1="302" x2="715" y2="297.6" class="bl" /></g>
<g><title>216: 200</title><line x1="718" y1="302" x2="718" y2="297.9" class="bl" /></g>
<g><title>217: 240</title><line x1="721" y1="302" x2="721" y2="296.9" class="bl" /></g>
<g><title>218: 315</title><line x1="724" y1="302" x2="724" y2="294.9" class="bl" /></g>
<g><title>219: 281</title><line x1="727" y1="302" x2="727" y2="295.8" class="bl" /></g>
<g><title>220: 66</title><line x1="730" y1="302" x2="730" y2="301.5" class="bl" /></g>
<g><title>221: 47</title><line x1="733" y1="302" x2="733" y2="302" class="bl" /></g>
<g><title>222: 51</title><line x1="736" y1="302" x2="736" y2="301.9" class="bl" /></g>
<g><title>223: 58</title><line x1="739" y1="302" x2="739" y2="301.7" class="bl" /></g>
<g><title>224: 486</title><line x1="742" y1="302" x2="742" y2="290.3" class="bl" /></g>
<g><title>225: 313</title><line x1="745" y1="302" x2="745" y2="294.9" class="bl" /></g>
<g><title>226: 280</title><line x1="748" y1="302" x2="748" y2="295.8" class="bl" /></g>
<g><title>227: 290</title><line x1="751" y1="302" x2="751" y2="295.5" class="bl" /></g>
<g><title>228: 263</title><line x1="754" y1="302" x2="754" y2="296.3" class="bl" /></g>
<g><title>229: 318</title><line x1="757" y1="302" x2="757" y2="294.8" class="bl" /></g>
<g><title>230: 438</title><line x1="760" y1="302" x2="760" y2="291.6" class="bl" /></g>
<g><title>231: 246</title><line x1="763" y1="302" x2="763" y2="296.7" class="bl" /></g>
<g><title>232: 68</title><line x1="766" y1="302" x2="766" y2="301.4" class="bl" /></g>
<g><title>233: 69</title><line x1="769" y1="302" x2="769" y2="301.4" class="bl" /></g>
<g><title>234: 54</title><line x1="772" y1="302" x2="772" y2="301.8" class="bl" /></g>
<g><title>235: 64</title><line x1="775" y1="302" x2="775" y2="301.5" class="bl" /></g>
<g><title>236: 841</title><line x1="778" y1="302" x2="778" y2="280.9" class="bl" /></g>
<g><title>237: 452</title><line x1="781" y1="302" x2="781" y2="291.2" class="bl" /></g>
<g><title>238: 337</title><line x1="784" y1="302" x2="784" y2="294.3" class="bl" /></g>
<g><title>239: 353</title><line x1="787" y1="302" x2="787" y2="293.9" class="bl" /></g>
<g><title>240: 385</title><line x1="790" y1="302" x2="790" y2="293" class="bl" /></g>
<g><title>241: 436</title><line x1="793" y1="302" x2="793" y2="291.6" class="bl" /></g>
<g><title>242: 729</title><line x1="796" y1="302" x2="796" y2="283.8" class="bl" /></g>
<g><title>243: 73</title><line x1="799" y1="302" x2="799" y2="301.3" class="bl" /></g>
<g><title>244: 91</title><line x1="802" y1="302" x2="802" y2="300.8" class="bl" /></g>
<g><title>245: 82</title><line x1="805" y1="302" x2="805" y2="301.1" class="bl" /></g>
<g><title>246: 89</title><line x1="808" y1="302" x2="808" y2="300.9" class="bl" /></g>
<g><title>247: 625</title><line x1="811" y1="302" x2="811" y2="286.6" class="bl" /></g>
<g><title>248: 740</title><line x1="814" y1="302" x2="814" y2="283.6" class="bl" /></g>
<g><title>249: 576</title><line x1="817" y1="302" x2="817" y2="287.9" class="bl" /></g>
<g><title>250: 488</title><line x1="820" y1="302" x2="820" y2="290.3" class="bl" /></g>
<g><title>251: 470</title><line x1="823" y1="302" x2="823" y2="290.7" class="bl" /></g>
<g><title>252: 518</title><line x1="826" y1="302" x2="826" y2="289.5" class="bl" /></g>
<g><title>253: 672</title><line x1="829" y1="302" x2="829" y2="285.4" class="bl" /></g>
<g><title>254: 629</title><line x1="832" y1="302" x2="832" y2="286.5" class="bl" /></g>
<g><title>255: 126</title><line x1="835" y1="302" x2="835" y2="299.9" class="bl" /></g>
<g><title>256: 113</title><line x1="838" y1="302" x2="838" y2="300.2" class="bl" /></g>
<g><title>257: 151</title><line x1="841" y1="302" x2="841" y2="299.2" class="bl" /></g>
<g><title>258: 89</title><line x1="844" y1="302" x2="844" y2="300.9" class="bl" /></g>
<g><title>259: 1293</title><line x1="847" y1="302" x2="847" y2="268.8" class="bl" /></g>
<g><title>260: 686</title><line x1="850" y1="302" x2="850" y2="285" class="bl" /></g>
<g><title>261: 650</title><line x1="853" y1="302" x2="853" y2="286" class="bl" /></g>
<g><title>262: 613</title><line x1="856" y1="302" x2="856" y2="286.9" class="bl" /></g>
<g><title>263: 699</title><line x1="859" y1="302" x2="859" y2="284.6" class="bl" /></g>
<g><title>264: 890</title><line x1="862" y1="302" x2="862" y2="279.6" class="bl" /></g>
<g><title>265: 1204</title><line x1="865" y1="302" x2="865" y2="271.2" class="bl" /></g>
<g><title>266: 200</title><line x1="868" y1="302" x2="868" y2="297.9" class="bl" /></g>
<g><title>267: 191</title><line x1="871" y1="302" x2="871" y2="298.2" class="bl" /></g>
<g><title>268: 144</title><line x1="874" y1="302" x2="874" y2="299.4" class="bl" /></g>
<g><title>269: 197</title><line x1="877" y1="302" x2="877" y2="298" class="bl" /></g>
<g><title>270: 1447</title><line x1="880" y1="302" x2="880" y2="264.7" class="bl" /></g>
<g><title>271: 1110</title><line x1="883" y1="302" x2="883" y2="273.7" class="bl" /></g>
<g><title>272: 874</title><line x1="886" y1="302" x2="886" y2="280" class="bl" /></g>
<g><title>273: 872</title><line x1="889" y1="302" x2="889" y2="280" class="bl" /></g>
<g><title>274: 856</title><line x1="892" y1="302" x2="892" y2="280.5" class="bl" /></g>
<g><title>275: 948</title><line x1="895" y1="302" x2="895" y2="278" class="bl" /></g>
<g><title>276: 1609</title><line x1="898" y1="302" x2="898" y2="260.4" class="bl" /></g>
<g><title>277: 635</title><line x1="901" y1="302" x2="901" y2="286.4" class="bl" /></g>
<g><title>278: 176</title><line x1="904" y1="302" x2="904" y2="298.6" class="bl" /></g>
<g><title>279: 236</title><line x1="907" y1="302" x2="907" y2="297" class="bl" /></g>
<g><title>280: 220</title><line x1="910" y1="302" x2="910" y2="297.4" class="bl" /></g>
<g><title>281: 1183</title><line x1="913" y1="302" x2="913" y2="271.8" class="bl" /></g>
<g><title>282: 1720</title><line x1="916" y1="302" x2="916" y2="257.5" class="bl" /></g>
<g><title>283: 1223</title><line x1="919" y1="302" x2="919" y2="270.7" class="bl" /></g>
<g><title>284: 1076</title><line x1="922" y1="302" x2="922" y2="274.6" class="bl" /></g>
<g><title>285: 1100</title><line x1="925" y1="302" x2="925" y2="274" class="bl" /></g>
<g><title>286: 1163</title><line x1="928" y1="302" x2="928" y2="272.3" class="bl" /></g>
<g><title>287: 1393</title><line x1="931" y1="302" x2="931" y2="266.2" class="bl" /></g>
<g><title>288: 1651</title><line x1="934" y1="302" x2="934" y2="259.3" class="bl" /></g>
<g><title>289: 283</title><line x1="937" y1="302" x2="937" y2="295.7" class="bl" /></g>
<g><title>290: 330</title><line x1="940" y1="302" x2="940" y2="294.5" class="bl" /></g>
<g><title>291: 295</title><line x1="943" y1="302" x2="943" y2="295.4" class="bl" /></g>
<g><title>292: 316</title><line x1="946" y1="302" x2="946" y2="294.8" class="bl" /></g>
<g><title>293: 2872</title><line x1="949" y1="302" x2="949" y2="226.8" class="bl" /></g>
<g><title>294: 1593</title><line x1="952" y1="302" x2="952" y2="260.9" class="bl" /></g>
<g><title>295: 1441</title><line x1="955" y1="302" x2="955" y2="264.9" class="bl" /></g>
<g><title>296: 1419</title><line x1="958" y1="302" x2="958" y2="265.5" class="bl" /></g>
<g><title>297: 1453</title><line x1="961" y1="302" x2="961" y2="264.6" class="bl" /></g>
<g><title>298: 1645</title><line x1="964" y1="302" x2="964" y2="259.5" class="bl" /></g>
<g><title>299: 3028</title><line x1="967" y1="302" x2="967" y2="222.7" class="bl" /></g>
<g><title>300: 351</title><line x1="970" y1="302" x2="970" y2="293.9" class="bl" /></g>
<g><title>301: 405</title><line x1="973" y1="302" x2="973" y2="292.5" class="bl" /></g>
<g><title>302: 373</title><line x1="976" y1="302" x2="976" y2="293.3" class="bl" /></g>
<g><title>303: 352</title><line x1="979" y1="302" x2="979" y2="293.9" class="bl" /></g>
<g><title>304: 1978</title><line x1="982" y1="302" x2="982" y2="250.6" class="bl" /></g>
<g><title>305: 2707</title><line x1="985" y1="302" x2="985" y2="231.2" class="bl" /></g>
<g><title>306: 1849</title><line x1="988" y1="302" x2="988" y2="254" class="bl" /></g>
<g><title>307: 1715</title><line x1="991" y1="302" x2="991" y2="257.6" class="bl" /></g>
<g><title>308: 1614</title><line x1="994" y1="302" x2="994" y2="260.3" class="bl" /></g>
<g><title>309: 1670</title><line x1="997" y1="302" x2="997" y2="258.8" class="bl" /></g>
<g><title>310: 2453</title><line x1="1000" y1="302" x2="1000" y2="238" class="bl" /></g>
<g><title>311: 2746</title><line x1="1003" y1="302" x2="1003" y2="230.2" class="bl" /></g>
<g><title>312: 429</title><line x1="1006" y1="302" x2="1006" y2="291.8" class="bl" /></g>
<g><title>313: 483</title><line x1="1009" y1="302" x2="1009" y2="290.4" class="bl" /></g>
<g><title>314: 429</title><line x1="1012" y1="302" x2="1012" y2="291.8" class="bl" /></g>
<g><title>315: 460</title><line x1="1015" y1="302" x2="1015" y2="291" class="bl" /></g>
<g><title>316: 3495</title><line x1="1018" y1="302" x2="1018" y2="210.2" class="bl" /></g>
<g><title>317: 2759</title><line x1="1021" y1="302" x2="1021" y2="229.8" class="bl" /></g>
<g><title>318: 2237</title><line x1="1024" y1="302" x2="1024" y2="243.7" class="bl" /></g>
<g><title>319: 2036</title><line x1="1027" y1="302" x2="1027" y2="249.1" class="bl" /></g>
<g><title>320: 2264</title><line x1="1030" y1="302" x2="1030" y2="243" class="bl" /></g>
<g><title>321: 2526</title><line x1="1033" y1="302" x2="1033" y2="236" class="bl" /></g>
<g><title>322: 3789</title><line x1="1036" y1="302" x2="1036" y2="202.4" class="bl" /></g>
<g><title>323: 2306</title><line x1="1039" y1="302" x2="1039" y2="241.9" class="bl" /></g>
<g><title>324: 533</title><line x1="1042" y1="302" x2="1042" y2="289.1" class="bl" /></g>
<g><title>325: 569</title><line x1="1045" y1="302" x2="1045" y2="288.1" class="bl" /></g>
<g><title>326: 606</title><line x1="1048" y1="302" x2="1048" y2="287.1" class="bl" /></g>
<g><title>327: 595</title><line x1="1051" y1="302" x2="1051" y2="287.4" class="bl" /></g>
<g><title>328: 4688</title><line x1="1054" y1="302" x2="1054" y2="178.5" class="bl" /></g>
<g><title>329: 3259</title><line x1="1057" y1="302" x2="1057" y2="216.5" class="bl" /></g>
<g><title>330: 2640</title><line x1="1060" y1="302" x2="1060" y2="233" class="bl" /></g>
<g><title>331: 2613</title><line x1="1063" y1="302" x2="1063" y2="233.7" class="bl" /></g>
<g><title>332: 2632</title><line x1="1066" y1="302" x2="1066" y2="233.2" class="bl" /></g>
<g><title>333: 3125</title><line x1="1069" y1="302" x2="1069" y2="220.1" class="bl" /></g>
<g><title>334: 4770</title><line x1="1072" y1="302" x2="1072" y2="176.3" class="bl" /></g>
<g><title>335: 2142</title><line x1="1075" y1="302" x2="1075" y2="246.2" class="bl" /></g>
<g><title>336: 653</title><line x1="1078" y1="302" x2="1078" y2="285.9" class="bl" /></g>
<g><title>337: 687</title><line x1="1081" y1="302" x2="1081" y2="285" class="bl" /></g>
<g><title>338: 793</title><line x1="1084" y1="302" x2="1084" y2="282.1" class="bl" /></g>
<g><title>339: 692</title><line x1="1087" y1="302" x2="1087" y2="284.8" class="bl" /></g>
<g><title>340: 4754</title><line x1="1090" y1="302" x2="1090" y2="176.7" class="bl" /></g>
<g><title>341: 3964</title><line x1="1093" y1="302" x2="1093" y2="197.7" class="bl" /></g>
<g><title>342: 3141</title><line x1="1096" y1="302" x2="1096" y2="219.7" class="bl" /></g>
<g><title>343: 3080</title><line x1="1099" y1="302" x2="1099" y2="221.3" class="bl" /></g>
<g><title>344: 3119</title><line x1="1102" y1="302" x2="1102" y2="220.2" class="bl" /></g>
<g><title>345: 3433</title><line x1="1105" y1="302" x2="1105" y2="211.9" class="bl" /></g>
<g><title>346: 4704</title><line x1="1108" y1="302" x2="1108" y2="178.1" class="bl" /></g>
<g><title>347: 3879</title><line x1="1111" y1="302" x2="1111" y2="200" class="bl" /></g>
<g><title>348: 922</title><line x1="1114" y1="302" x2="1114" y2="278.7" class="bl" /></g>
<g><title>349: 770</title><line x1="1117" y1="302" x2="1117" y2="282.8" class="bl" /></g>
<g><title>350: 833</title><line x1="1120" y1="302" x2="1120" y2="281.1" class="bl" /></g>
<g><title>351: 786</title><line x1="1123" y1="302" x2="1123" y2="282.3" class="bl" /></g>
<g><title>352: 2470</title><line x1="1126" y1="302" x2="1126" y2="237.5" class="bl" /></g>
<g><title>353: 5868</title><line x1="1129" y1="302" x2="1129" y2="147.1" class="bl" /></g>
<g><title>354: 3780</title><line x1="1132" y1="302" x2="1132" y2="202.6" class="bl" /></g>
<g><title>355: 3603</title><line x1="1135" y1="302" x2="1135" y2="207.4" class="bl" /></g>
<g><title>356: 3519</title><line x1="1138" y1="302" x2="1138" y2="209.6" class="bl" /></g>
<g><title>357: 3766</title><line x1="1141" y1="302" x2="1141" y2="203" class="bl" /></g>
<g><title>358: 4158</title><line x1="1144" y1="302" x2="1144" y2="192.6" class="bl" /></g>
<g><title>359: 6737</title><line x1="1147" y1="302" x2="1147" y2="123.9" class="bl" /></g>
<text x="70" y="319" class="xLegends">0</text>
<text x="1149" y="319" class="xLegends">359</text>
<text x="55" y="302" class="yLegends">47</text>
<text x="55" y="52" class="yLegends">9440</text>
<text x="55" y="259" class="yLegends">1644.3</text>
</svg>
