<?xml version="1.0" encoding="UTF-8" standalone="no"?>
<svg
    xmlns:dc="http://purl.org/dc/elements/1.1/"
    xmlns:cc="http://creativecommons.org/ns#"
    xmlns:rdf="http://www.w3.org/1999/02/22-rdf-syntax-ns#"
    xmlns:svg="http://www.w3.org/2000/svg"
    xmlns="http://www.w3.org/2000/svg"
    width="1087"
    height="334"    
>
<style type="text/css"><![CDATA[
.bl { /* bar line */
    stroke:slategray;
    stroke-width:2;
}
.title{
    text-anchor:left;
    font-weight:bold;
    font-size:22px;
}
.xAxis{stroke:black;stroke-width:1;}
.yAxis{stroke:black;stroke-width:1;}
.xLegends{
    text-anchor:middle;
    font-size:12px;
}
.yLegends{
    text-anchor:end;
    dominant-baseline:middle;
    font-size:12px;
}
.meanLine{
    stroke:black;
    stroke-dasharray:5,20;
}
]]></style>
<rect width="100%" height="100%" fill="moccasin" />
<text x="25" y="37" class="title">Child - Duration between parents' wedding and birth (in months)</text>
<line x1="70" y1="302" x2="1062" y2="302" class="xAxis" />
<line x1="70" y1="52" x2="70" y2="302" class="yAxis" />
<g><title>0: 598</title><line x1="70" y1="302" x2="70" y2="277.1" class="bl" /></g>
<g><title>1: 1751</title><line x1="73" y1="302" x2="73" y2="229.1" class="bl" /></g>
<g><title>2: 2511</title><line x1="76" y1="302" x2="76" y2="197.5" class="bl" /></g>
<g><title>3: 2910</title><line x1="79" y1="302" x2="79" y2="180.9" class="bl" /></g>
<g><title>4: 3385</title><line x1="82" y1="302" x2="82" y2="161.1" class="bl" /></g>
<g><title>5: 3650</title><line x1="85" y1="302" x2="85" y2="150.1" class="bl" /></g>
<g><title>6: 3144</title><line x1="88" y1="302" x2="88" y2="171.2" class="bl" /></g>
<g><title>7: 3257</title><line x1="91" y1="302" x2="91" y2="166.4" class="bl" /></g>
<g><title>8: 3697</title><line x1="94" y1="302" x2="94" y2="148.1" class="bl" /></g>
<g><title>9: 5307</title><line x1="97" y1="302" x2="97" y2="81.1" class="bl" /></g>
<g><title>10: 5566</title><line x1="100" y1="302" x2="100" y2="70.3" class="bl" /></g>
<g><title>11: 6006</title><line x1="103" y1="302" x2="103" y2="52" class="bl" /></g>
<g><title>12: 5420</title><line x1="106" y1="302" x2="106" y2="76.4" class="bl" /></g>
<g><title>13: 5431</title><line x1="109" y1="302" x2="109" y2="75.9" class="bl" /></g>
<g><title>14: 5327</title><line x1="112" y1="302" x2="112" y2="80.3" class="bl" /></g>
<g><title>15: 5164</title><line x1="115" y1="302" x2="115" y2="87.1" class="bl" /></g>
<g><title>16: 5048</title><line x1="118" y1="302" x2="118" y2="91.9" class="bl" /></g>
<g><title>17: 4457</title><line x1="121" y1="302" x2="121" y2="116.5" class="bl" /></g>
<g><title>18: 4520</title><line x1="124" y1="302" x2="124" y2="113.9" class="bl" /></g>
<g><title>19: 4320</title><line x1="127" y1="302" x2="127" y2="122.2" class="bl" /></g>
<g><title>20: 4084</title><line x1="130" y1="302" x2="130" y2="132" class="bl" /></g>
<g><title>21: 4190</title><line x1="133" y1="302" x2="133" y2="127.6" class="bl" /></g>
<g><title>22: 3917</title><line x1="136" y1="302" x2="136" y2="139" class="bl" /></g>
<g><title>23: 3966</title><line x1="139" y1="302" x2="139" y2="136.9" class="bl" /></g>
<g><title>24: 3722</title><line x1="142" y1="302" x2="142" y2="147.1" class="bl" /></g>
<g><title>25: 3817</title><line x1="145" y1="302" x2="145" y2="143.1" class="bl" /></g>
<g><title>26: 3538</title><line x1="148" y1="302" x2="148" y2="154.7" class="bl" /></g>
<g><title>27: 3707</title><line x1="151" y1="302" x2="151" y2="147.7" class="bl" /></g>
<g><title>28: 3369</title><line x1="154" y1="302" x2="154" y2="161.8" class="bl" /></g>
<g><title>29: 3204</title><line x1="157" y1="302" x2="157" y2="168.7" class="bl" /></g>
<g><title>30: 3369</title><line x1="160" y1="302" x2="160" y2="161.8" class="bl" /></g>
<g><title>31: 3213</title><line x1="163" y1="302" x2="163" y2="168.3" class="bl" /></g>
<g><title>32: 3349</title><line x1="166" y1="302" x2="166" y2="162.6" class="bl" /></g>
<g><title>33: 3206</title><line x1="169" y1="302" x2="169" y2="168.6" class="bl" /></g>
<g><title>34: 3370</title><line x1="172" y1="302" x2="172" y2="161.7" class="bl" /></g>
<g><title>35: 3039</title><line x1="175" y1="302" x2="175" y2="175.5" class="bl" /></g>
<g><title>36: 3103</title><line x1="178" y1="302" x2="178" y2="172.9" class="bl" /></g>
<g><title>37: 3128</title><line x1="181" y1="302" x2="181" y2="171.8" class="bl" /></g>
<g><title>38: 3022</title><line x1="184" y1="302" x2="184" y2="176.2" class="bl" /></g>
<g><title>39: 3199</title><line x1="187" y1="302" x2="187" y2="168.9" class="bl" /></g>
<g><title>40: 2940</title><line x1="190" y1="302" x2="190" y2="179.6" class="bl" /></g>
<g><title>41: 3190</title><line x1="193" y1="302" x2="193" y2="169.2" class="bl" /></g>
<g><title>42: 2970</title><line x1="196" y1="302" x2="196" y2="178.4" class="bl" /></g>
<g><title>43: 3105</title><line x1="199" y1="302" x2="199" y2="172.8" class="bl" /></g>
<g><title>44: 3041</title><line x1="202" y1="302" x2="202" y2="175.4" class="bl" /></g>
<g><title>45: 3059</title><line x1="205" y1="302" x2="205" y2="174.7" class="bl" /></g>
<g><title>46: 3158</title><line x1="208" y1="302" x2="208" y2="170.6" class="bl" /></g>
<g><title>47: 3066</title><line x1="211" y1="302" x2="211" y2="174.4" class="bl" /></g>
<g><title>48: 3156</title><line x1="214" y1="302" x2="214" y2="170.7" class="bl" /></g>
<g><title>49: 2824</title><line x1="217" y1="302" x2="217" y2="184.5" class="bl" /></g>
<g><title>50: 2954</title><line x1="220" y1="302" x2="220" y2="179.1" class="bl" /></g>
<g><title>51: 2808</title><line x1="223" y1="302" x2="223" y2="185.1" class="bl" /></g>
<g><title>52: 2743</title><line x1="226" y1="302" x2="226" y2="187.8" class="bl" /></g>
<g><title>53: 2661</title><line x1="229" y1="302" x2="229" y2="191.3" class="bl" /></g>
<g><title>54: 2525</title><line x1="232" y1="302" x2="232" y2="196.9" class="bl" /></g>
<g><title>55: 2521</title><line x1="235" y1="302" x2="235" y2="197.1" class="bl" /></g>
<g><title>56: 2566</title><line x1="238" y1="302" x2="238" y2="195.2" class="bl" /></g>
<g><title>57: 2588</title><line x1="241" y1="302" x2="241" y2="194.3" class="bl" /></g>
<g><title>58: 2496</title><line x1="244" y1="302" x2="244" y2="198.1" class="bl" /></g>
<g><title>59: 2529</title><line x1="247" y1="302" x2="247" y2="196.8" class="bl" /></g>
<g><title>60: 2322</title><line x1="250" y1="302" x2="250" y2="205.4" class="bl" /></g>
<g><title>61: 2258</title><line x1="253" y1="302" x2="253" y2="208" class="bl" /></g>
<g><title>62: 2270</title><line x1="256" y1="302" x2="256" y2="207.5" class="bl" /></g>
<g><title>63: 2161</title><line x1="259" y1="302" x2="259" y2="212.1" class="bl" /></g>
<g><title>64: 2235</title><line x1="262" y1="302" x2="262" y2="209" class="bl" /></g>
<g><title>65: 2103</title><line x1="265" y1="302" x2="265" y2="214.5" class="bl" /></g>
<g><title>66: 2070</title><line x1="268" y1="302" x2="268" y2="215.9" class="bl" /></g>
<g><title>67: 2063</title><line x1="271" y1="302" x2="271" y2="216.2" class="bl" /></g>
<g><title>68: 1871</title><line x1="274" y1="302" x2="274" y2="224.1" class="bl" /></g>
<g><title>69: 2058</title><line x1="277" y1="302" x2="277" y2="216.4" class="bl" /></g>
<g><title>70: 1921</title><line x1="280" y1="302" x2="280" y2="222.1" class="bl" /></g>
<g><title>71: 1983</title><line x1="283" y1="302" x2="283" y2="219.5" class="bl" /></g>
<g><title>72: 1800</title><line x1="286" y1="302" x2="286" y2="227.1" class="bl" /></g>
<g><title>73: 1874</title><line x1="289" y1="302" x2="289" y2="224" class="bl" /></g>
<g><title>74: 1734</title><line x1="292" y1="302" x2="292" y2="229.9" class="bl" /></g>
<g><title>75: 1821</title><line x1="295" y1="302" x2="295" y2="226.2" class="bl" /></g>
<g><title>76: 1667</title><line x1="298" y1="302" x2="298" y2="232.6" class="bl" /></g>
<g><title>77: 1609</title><line x1="301" y1="302" x2="301" y2="235.1" class="bl" /></g>
<g><title>78: 1627</title><line x1="304" y1="302" x2="304" y2="234.3" class="bl" /></g>
<g><title>79: 1563</title><line x1="307" y1="302" x2="307" y2="237" class="bl" /></g>
<g><title>80: 1576</title><line x1="310" y1="302" x2="310" y2="236.4" class="bl" /></g>
<g><title>81: 1457</title><line x1="313" y1="302" x2="313" y2="241.4" class="bl" /></g>
<g><title>82: 1526</title><line x1="316" y1="302" x2="316" y2="238.5" class="bl" /></g>
<g><title>83: 1502</title><line x1="319" y1="302" x2="319" y2="239.5" class="bl" /></g>
<g><title>84: 1438</title><line x1="322" y1="302" x2="322" y2="242.2" class="bl" /></g>
<g><title>85: 1486</title><line x1="325" y1="302" x2="325" y2="240.2" class="bl" /></g>
<g><title>86: 1356</title><line x1="328" y1="302" x2="328" y2="245.6" class="bl" /></g>
<g><title>87: 1313</title><line x1="331" y1="302" x2="331" y2="247.4" class="bl" /></g>
<g><title>88: 1384</title><line x1="334" y1="302" x2="334" y2="244.4" class="bl" /></g>
<g><title>89: 1346</title><line x1="337" y1="302" x2="337" y2="246" class="bl" /></g>
<g><title>90: 1228</title><line x1="340" y1="302" x2="340" y2="250.9" class="bl" /></g>
<g><title>91: 1331</title><line x1="343" y1="302" x2="343" y2="246.6" class="bl" /></g>
<g><title>92: 1184</title><line x1="346" y1="302" x2="346" y2="252.7" class="bl" /></g>
<g><title>93: 1181</title><line x1="349" y1="302" x2="349" y2="252.9" class="bl" /></g>
<g><title>94: 1304</title><line x1="352" y1="302" x2="352" y2="247.8" class="bl" /></g>
<g><title>95: 1144</title><line x1="355" y1="302" x2="355" y2="254.4" class="bl" /></g>
<g><title>96: 1160</title><line x1="358" y1="302" x2="358" y2="253.7" class="bl" /></g>
<g><title>97: 1144</title><line x1="361" y1="302" x2="361" y2="254.4" class="bl" /></g>
<g><title>98: 1092</title><line x1="364" y1="302" x2="364" y2="256.6" class="bl" /></g>
<g><title>99: 1064</title><line x1="367" y1="302" x2="367" y2="257.7" class="bl" /></g>
<g><title>100: 1060</title><line x1="370" y1="302" x2="370" y2="257.9" class="bl" /></g>
<g><title>101: 1094</title><line x1="373" y1="302" x2="373" y2="256.5" class="bl" /></g>
<g><title>102: 953</title><line x1="376" y1="302" x2="376" y2="262.4" class="bl" /></g>
<g><title>103: 979</title><line x1="379" y1="302" x2="379" y2="261.3" class="bl" /></g>
<g><title>104: 919</title><line x1="382" y1="302" x2="382" y2="263.8" class="bl" /></g>
<g><title>105: 977</title><line x1="385" y1="302" x2="385" y2="261.4" class="bl" /></g>
<g><title>106: 911</title><line x1="388" y1="302" x2="388" y2="264.1" class="bl" /></g>
<g><title>107: 922</title><line x1="391" y1="302" x2="391" y2="263.7" class="bl" /></g>
<g><title>108: 942</title><line x1="394" y1="302" x2="394" y2="262.8" class="bl" /></g>
<g><title>109: 892</title><line x1="397" y1="302" x2="397" y2="264.9" class="bl" /></g>
<g><title>110: 958</title><line x1="400" y1="302" x2="400" y2="262.2" class="bl" /></g>
<g><title>111: 822</title><line x1="403" y1="302" x2="403" y2="267.8" class="bl" /></g>
<g><title>112: 871</title><line x1="406" y1="302" x2="406" y2="265.8" class="bl" /></g>
<g><title>113: 885</title><line x1="409" y1="302" x2="409" y2="265.2" class="bl" /></g>
<g><title>114: 878</title><line x1="412" y1="302" x2="412" y2="265.5" class="bl" /></g>
<g><title>115: 792</title><line x1="415" y1="302" x2="415" y2="269.1" class="bl" /></g>
<g><title>116: 851</title><line x1="418" y1="302" x2="418" y2="266.6" class="bl" /></g>
<g><title>117: 809</title><line x1="421" y1="302" x2="421" y2="268.4" class="bl" /></g>
<g><title>118: 727</title><line x1="424" y1="302" x2="424" y2="271.8" class="bl" /></g>
<g><title>119: 765</title><line x1="427" y1="302" x2="427" y2="270.2" class="bl" /></g>
<g><title>120: 727</title><line x1="430" y1="302" x2="430" y2="271.8" class="bl" /></g>
<g><title>121: 706</title><line x1="433" y1="302" x2="433" y2="272.6" class="bl" /></g>
<g><title>122: 699</title><line x1="436" y1="302" x2="436" y2="272.9" class="bl" /></g>
<g><title>123: 693</title><line x1="439" y1="302" x2="439" y2="273.2" class="bl" /></g>
<g><title>124: 637</title><line x1="442" y1="302" x2="442" y2="275.5" class="bl" /></g>
<g><title>125: 661</title><line x1="445" y1="302" x2="445" y2="274.5" class="bl" /></g>
<g><title>126: 658</title><line x1="448" y1="302" x2="448" y2="274.6" class="bl" /></g>
<g><title>127: 580</title><line x1="451" y1="302" x2="451" y2="277.9" class="bl" /></g>
<g><title>128: 638</title><line x1="454" y1="302" x2="454" y2="275.5" class="bl" /></g>
<g><title>129: 569</title><line x1="457" y1="302" x2="457" y2="278.4" class="bl" /></g>
<g><title>130: 607</title><line x1="460" y1="302" x2="460" y2="276.8" class="bl" /></g>
<g><title>131: 569</title><line x1="463" y1="302" x2="463" y2="278.4" class="bl" /></g>
<g><title>132: 571</title><line x1="466" y1="302" x2="466" y2="278.3" class="bl" /></g>
<g><title>133: 572</title><line x1="469" y1="302" x2="469" y2="278.2" class="bl" /></g>
<g><title>134: 528</title><line x1="472" y1="302" x2="472" y2="280.1" class="bl" /></g>
<g><title>135: 520</title><line x1="475" y1="302" x2="475" y2="280.4" class="bl" /></g>
<g><title>136: 492</title><line x1="478" y1="302" x2="478" y2="281.6" class="bl" /></g>
<g><title>137: 487</title><line x1="481" y1="302" x2="481" y2="281.8" class="bl" /></g>
<g><title>138: 462</title><line x1="484" y1="302" x2="484" y2="282.8" class="bl" /></g>
<g><title>139: 472</title><line x1="487" y1="302" x2="487" y2="282.4" class="bl" /></g>
<g><title>140: 435</title><line x1="490" y1="302" x2="490" y2="283.9" class="bl" /></g>
<g><title>141: 435</title><line x1="493" y1="302" x2="493" y2="283.9" class="bl" /></g>
<g><title>142: 414</title><line x1="496" y1="302" x2="496" y2="284.8" class="bl" /></g>
<g><title>143: 393</title><line x1="499" y1="302" x2="499" y2="285.7" class="bl" /></g>
<g><title>144: 424</title><line x1="502" y1="302" x2="502" y2="284.4" class="bl" /></g>
<g><title>145: 404</title><line x1="505" y1="302" x2="505" y2="285.2" class="bl" /></g>
<g><title>146: 397</title><line x1="508" y1="302" x2="508" y2="285.5" class="bl" /></g>
<g><title>147: 394</title><line x1="511" y1="302" x2="511" y2="285.6" class="bl" /></g>
<g><title>148: 353</title><line x1="514" y1="302" x2="514" y2="287.3" class="bl" /></g>
<g><title>149: 391</title><line x1="517" y1="302" x2="517" y2="285.8" class="bl" /></g>
<g><title>150: 330</title><line x1="520" y1="302" x2="520" y2="288.3" class="bl" /></g>
<g><title>151: 377</title><line x1="523" y1="302" x2="523" y2="286.3" class="bl" /></g>
<g><title>152: 315</title><line x1="526" y1="302" x2="526" y2="288.9" class="bl" /></g>
<g><title>153: 307</title><line x1="529" y1="302" x2="529" y2="289.3" class="bl" /></g>
<g><title>154: 315</title><line x1="532" y1="302" x2="532" y2="288.9" class="bl" /></g>
<g><title>155: 329</title><line x1="535" y1="302" x2="535" y2="288.3" class="bl" /></g>
<g><title>156: 275</title><line x1="538" y1="302" x2="538" y2="290.6" class="bl" /></g>
<g><title>157: 286</title><line x1="541" y1="302" x2="541" y2="290.1" class="bl" /></g>
<g><title>158: 284</title><line x1="544" y1="302" x2="544" y2="290.2" class="bl" /></g>
<g><title>159: 287</title><line x1="547" y1="302" x2="547" y2="290.1" class="bl" /></g>
<g><title>160: 285</title><line x1="550" y1="302" x2="550" y2="290.2" class="bl" /></g>
<g><title>161: 268</title><line x1="553" y1="302" x2="553" y2="290.9" class="bl" /></g>
<g><title>162: 277</title><line x1="556" y1="302" x2="556" y2="290.5" class="bl" /></g>
<g><title>163: 257</title><line x1="559" y1="302" x2="559" y2="291.3" class="bl" /></g>
<g><title>164: 251</title><line x1="562" y1="302" x2="562" y2="291.6" class="bl" /></g>
<g><title>165: 253</title><line x1="565" y1="302" x2="565" y2="291.5" class="bl" /></g>
<g><title>166: 255</title><line x1="568" y1="302" x2="568" y2="291.4" class="bl" /></g>
<g><title>167: 249</title><line x1="571" y1="302" x2="571" y2="291.7" class="bl" /></g>
<g><title>168: 241</title><line x1="574" y1="302" x2="574" y2="292" class="bl" /></g>
<g><title>169: 220</title><line x1="577" y1="302" x2="577" y2="292.9" class="bl" /></g>
<g><title>170: 230</title><line x1="580" y1="302" x2="580" y2="292.5" class="bl" /></g>
<g><title>171: 253</title><line x1="583" y1="302" x2="583" y2="291.5" class="bl" /></g>
<g><title>172: 204</title><line x1="586" y1="302" x2="586" y2="293.5" class="bl" /></g>
<g><title>173: 199</title><line x1="589" y1="302" x2="589" y2="293.8" class="bl" /></g>
<g><title>174: 220</title><line x1="592" y1="302" x2="592" y2="292.9" class="bl" /></g>
<g><title>175: 206</title><line x1="595" y1="302" x2="595" y2="293.5" class="bl" /></g>
<g><title>176: 192</title><line x1="598" y1="302" x2="598" y2="294" class="bl" /></g>
<g><title>177: 194</title><line x1="601" y1="302" x2="601" y2="294" class="bl" /></g>
<g><title>178: 179</title><line x1="604" y1="302" x2="604" y2="294.6" class="bl" /></g>
<g><title>179: 192</title><line x1="607" y1="302" x2="607" y2="294" class="bl" /></g>
<g><title>180: 185</title><line x1="610" y1="302" x2="610" y2="294.3" class="bl" /></g>
<g><title>181: 169</title><line x1="613" y1="302" x2="613" y2="295" class="bl" /></g>
<g><title>182: 171</title><line x1="616" y1="302" x2="616" y2="294.9" class="bl" /></g>
<g><title>183: 185</title><line x1="619" y1="302" x2="619" y2="294.3" class="bl" /></g>
<g><title>184: 157</title><line x1="622" y1="302" x2="622" y2="295.5" class="bl" /></g>
<g><title>185: 187</title><line x1="625" y1="302" x2="625" y2="294.3" class="bl" /></g>
<g><title>186: 143</title><line x1="628" y1="302" x2="628" y2="296.1" class="bl" /></g>
<g><title>187: 153</title><line x1="631" y1="302" x2="631" y2="295.7" class="bl" /></g>
<g><title>188: 152</title><line x1="634" y1="302" x2="634" y2="295.7" class="bl" /></g>
<g><title>189: 157</title><line x1="637" y1="302" x2="637" y2="295.5" class="bl" /></g>
<g><title>190: 145</title><line x1="640" y1="302" x2="640" y2="296" class="bl" /></g>
<g><title>191: 153</title><line x1="643" y1="302" x2="643" y2="295.7" class="bl" /></g>
<g><title>192: 144</title><line x1="646" y1="302" x2="646" y2="296" class="bl" /></g>
<g><title>193: 133</title><line x1="649" y1="302" x2="649" y2="296.5" class="bl" /></g>
<g><title>194: 127</title><line x1="652" y1="302" x2="652" y2="296.8" class="bl" /></g>
<g><title>195: 148</title><line x1="655" y1="302" x2="655" y2="295.9" class="bl" /></g>
<g><title>196: 115</title><line x1="658" y1="302" x2="658" y2="297.3" class="bl" /></g>
<g><title>197: 127</title><line x1="661" y1="302" x2="661" y2="296.8" class="bl" /></g>
<g><title>198: 117</title><line x1="664" y1="302" x2="664" y2="297.2" class="bl" /></g>
<g><title>199: 104</title><line x1="667" y1="302" x2="667" y2="297.7" class="bl" /></g>
<g><title>200: 112</title><line x1="670" y1="302" x2="670" y2="297.4" class="bl" /></g>
<g><title>201: 120</title><line x1="673" y1="302" x2="673" y2="297" class="bl" /></g>
<g><title>202: 101</title><line x1="676" y1="302" x2="676" y2="297.8" class="bl" /></g>
<g><title>203: 106</title><line x1="679" y1="302" x2="679" y2="297.6" class="bl" /></g>
<g><title>204: 92</title><line x1="682" y1="302" x2="682" y2="298.2" class="bl" /></g>
<g><title>205: 96</title><line x1="685" y1="302" x2="685" y2="298" class="bl" /></g>
<g><title>206: 112</title><line x1="688" y1="302" x2="688" y2="297.4" class="bl" /></g>
<g><title>207: 101</title><line x1="691" y1="302" x2="691" y2="297.8" class="bl" /></g>
<g><title>208: 113</title><line x1="694" y1="302" x2="694" y2="297.3" class="bl" /></g>
<g><title>209: 90</title><line x1="697" y1="302" x2="697" y2="298.3" class="bl" /></g>
<g><title>210: 103</title><line x1="700" y1="302" x2="700" y2="297.8" class="bl" /></g>
<g><title>211: 96</title><line x1="703" y1="302" x2="703" y2="298" class="bl" /></g>
<g><title>212: 86</title><line x1="706" y1="302" x2="706" y2="298.5" class="bl" /></g>
<g><title>213: 86</title><line x1="709" y1="302" x2="709" y2="298.5" class="bl" /></g>
<g><title>214: 84</title><line x1="712" y1="302" x2="712" y2="298.5" class="bl" /></g>
<g><title>215: 98</title><line x1="715" y1="302" x2="715" y2="298" class="bl" /></g>
<g><title>216: 97</title><line x1="718" y1="302" x2="718" y2="298" class="bl" /></g>
<g><title>217: 88</title><line x1="721" y1="302" x2="721" y2="298.4" class="bl" /></g>
<g><title>218: 69</title><line x1="724" y1="302" x2="724" y2="299.2" class="bl" /></g>
<g><title>219: 62</title><line x1="727" y1="302" x2="727" y2="299.5" class="bl" /></g>
<g><title>220: 63</title><line x1="730" y1="302" x2="730" y2="299.4" class="bl" /></g>
<g><title>221: 77</title><line x1="733" y1="302" x2="733" y2="298.8" class="bl" /></g>
<g><title>222: 61</title><line x1="736" y1="302" x2="736" y2="299.5" class="bl" /></g>
<g><title>223: 53</title><line x1="739" y1="302" x2="739" y2="299.8" class="bl" /></g>
<g><title>224: 63</title><line x1="742" y1="302" x2="742" y2="299.4" class="bl" /></g>
<g><title>225: 64</title><line x1="745" y1="302" x2="745" y2="299.4" class="bl" /></g>
<g><title>226: 65</title><line x1="748" y1="302" x2="748" y2="299.3" class="bl" /></g>
<g><title>227: 67</title><line x1="751" y1="302" x2="751" y2="299.3" class="bl" /></g>
<g><title>228: 49</title><line x1="754" y1="302" x2="754" y2="300" class="bl" /></g>
<g><title>229: 51</title><line x1="757" y1="302" x2="757" y2="299.9" class="bl" /></g>
<g><title>230: 52</title><line x1="760" y1="302" x2="760" y2="299.9" class="bl" /></g>
<g><title>231: 48</title><line x1="763" y1="302" x2="763" y2="300" class="bl" /></g>
<g><title>232: 57</title><line x1="766" y1="302" x2="766" y2="299.7" class="bl" /></g>
<g><title>233: 54</title><line x1="769" y1="302" x2="769" y2="299.8" class="bl" /></g>
<g><title>234: 51</title><line x1="772" y1="302" x2="772" y2="299.9" class="bl" /></g>
<g><title>235: 48</title><line x1="775" y1="302" x2="775" y2="300" class="bl" /></g>
<g><title>236: 49</title><line x1="778" y1="302" x2="778" y2="300" class="bl" /></g>
<g><title>237: 68</title><line x1="781" y1="302" x2="781" y2="299.2" class="bl" /></g>
<g><title>238: 46</title><line x1="784" y1="302" x2="784" y2="300.1" class="bl" /></g>
<g><title>239: 41</title><line x1="787" y1="302" x2="787" y2="300.3" class="bl" /></g>
<g><title>240: 43</title><line x1="790" y1="302" x2="790" y2="300.3" class="bl" /></g>
<g><title>241: 38</title><line x1="793" y1="302" x2="793" y2="300.5" class="bl" /></g>
<g><title>242: 53</title><line x1="796" y1="302" x2="796" y2="299.8" class="bl" /></g>
<g><title>243: 44</title><line x1="799" y1="302" x2="799" y2="300.2" class="bl" /></g>
<g><title>244: 30</title><line x1="802" y1="302" x2="802" y2="300.8" class="bl" /></g>
<g><title>245: 50</title><line x1="805" y1="302" x2="805" y2="300" class="bl" /></g>
<g><title>246: 26</title><line x1="808" y1="302" x2="808" y2="301" class="bl" /></g>
<g><title>247: 38</title><line x1="811" y1="302" x2="811" y2="300.5" class="bl" /></g>
<g><title>248: 37</title><line x1="814" y1="302" x2="814" y2="300.5" class="bl" /></g>
<g><title>249: 39</title><line x1="817" y1="302" x2="817" y2="300.4" class="bl" /></g>
<g><title>250: 28</title><line x1="820" y1="302" x2="820" y2="300.9" class="bl" /></g>
<g><title>251: 38</title><line x1="823" y1="302" x2="823" y2="300.5" class="bl" /></g>
<g><title>252: 26</title><line x1="826" y1="302" x2="826" y2="301" class="bl" /></g>
<g><title>253: 28</title><line x1="829" y1="302" x2="829" y2="300.9" class="bl" /></g>
<g><title>254: 22</title><line x1="832" y1="302" x2="832" y2="301.1" class="bl" /></g>
<g><title>255: 20</title><line x1="835" y1="302" x2="835" y2="301.2" class="bl" /></g>
<g><title>256: 21</title><line x1="838" y1="302" x2="838" y2="301.2" class="bl" /></g>
<g><title>257: 20</title><line x1="841" y1="302" x2="841" y2="301.2" class="bl" /></g>
<g><title>258: 24</title><line x1="844" y1="302" x2="844" y2="301" class="bl" /></g>
<g><title>259: 20</title><line x1="847" y1="302" x2="847" y2="301.2" class="bl" /></g>
<g><title>260: 11</title><line x1="850" y1="302" x2="850" y2="301.6" class="bl" /></g>
<g><title>261: 16</title><line x1="853" y1="302" x2="853" y2="301.4" class="bl" /></g>
<g><title>262: 23</title><line x1="856" y1="302" x2="856" y2="301.1" class="bl" /></g>
<g><title>263: 16</title><line x1="859" y1="302" x2="859" y2="301.4" class="bl" /></g>
<g><title>264: 18</title><line x1="862" y1="302" x2="862" y2="301.3" class="bl" /></g>
<g><title>265: 17</title><line x1="865" y1="302" x2="865" y2="301.3" class="bl" /></g>
<g><title>266: 22</title><line x1="868" y1="302" x2="868" y2="301.1" class="bl" /></g>
<g><title>267: 16</title><line x1="871" y1="302" x2="871" y2="301.4" class="bl" /></g>
<g><title>268: 15</title><line x1="874" y1="302" x2="874" y2="301.4" class="bl" /></g>
<g><title>269: 12</title><line x1="877" y1="302" x2="877" y2="301.5" class="bl" /></g>
<g><title>270: 10</title><line x1="880" y1="302" x2="880" y2="301.6" class="bl" /></g>
<g><title>271: 17</title><line x1="883" y1="302" x2="883" y2="301.3" class="bl" /></g>
<g><title>272: 12</title><line x1="886" y1="302" x2="886" y2="301.5" class="bl" /></g>
<g><title>273: 9</title><line x1="889" y1="302" x2="889" y2="301.7" class="bl" /></g>
<g><title>274: 11</title><line x1="892" y1="302" x2="892" y2="301.6" class="bl" /></g>
<g><title>275: 11</title><line x1="895" y1="302" x2="895" y2="301.6" class="bl" /></g>
<g><title>276: 23</title><line x1="898" y1="302" x2="898" y2="301.1" class="bl" /></g>
<g><title>277: 11</title><line x1="901" y1="302" x2="901" y2="301.6" class="bl" /></g>
<g><title>278: 10</title><line x1="904" y1="302" x2="904" y2="301.6" class="bl" /></g>
<g><title>279: 8</title><line x1="907" y1="302" x2="907" y2="301.7" class="bl" /></g>
<g><title>280: 6</title><line x1="910" y1="302" x2="910" y2="301.8" class="bl" /></g>
<g><title>281: 5</title><line x1="913" y1="302" x2="913" y2="301.8" class="bl" /></g>
<g><title>282: 5</title><line x1="916" y1="302" x2="916" y2="301.8" class="bl" /></g>
<g><title>283: 8</title><line x1="919" y1="302" x2="919" y2="301.7" class="bl" /></g>
<g><title>284: 8</title><line x1="922" y1="302" x2="922" y2="301.7" class="bl" /></g>
<g><title>285: 3</title><line x1="925" y1="302" x2="925" y2="301.9" class="bl" /></g>
<g><title>286: 3</title><line x1="928" y1="302" x2="928" y2="301.9" class="bl" /></g>
<g><title>287: 7</title><line x1="931" y1="302" x2="931" y2="301.8" class="bl" /></g>
<g><title>288: 11</title><line x1="934" y1="302" x2="934" y2="301.6" class="bl" /></g>
<g><title>289: 4</title><line x1="937" y1="302" x2="937" y2="301.9" class="bl" /></g>
<g><title>290: 3</title><line x1="940" y1="302" x2="940" y2="301.9" class="bl" /></g>
<g><title>291: 5</title><line x1="943" y1="302" x2="943" y2="301.8" class="bl" /></g>
<g><title>292: 7</title><line x1="946" y1="302" x2="946" y2="301.8" class="bl" /></g>
<g><title>293: 5</title><line x1="949" y1="302" x2="949" y2="301.8" class="bl" /></g>
<g><title>294: 5</title><line x1="952" y1="302" x2="952" y2="301.8" class="bl" /></g>
<g><title>295: 8</title><line x1="955" y1="302" x2="955" y2="301.7" class="bl" /></g>
<g><title>296: 4</title><line x1="958" y1="302" x2="958" y2="301.9" class="bl" /></g>
<g><title>297: 4</title><line x1="961" y1="302" x2="961" y2="301.9" class="bl" /></g>
<g><title>298: 1</title><line x1="964" y1="302" x2="964" y2="302" class="bl" /></g>
<g><title>299: 7</title><line x1="967" y1="302" x2="967" y2="301.8" class="bl" /></g>
<g><title>300: 8</title><line x1="970" y1="302" x2="970" y2="301.7" class="bl" /></g>
<g><title>301: 2</title><line x1="973" y1="302" x2="973" y2="302" class="bl" /></g>
<g><title>302: 1</title><line x1="976" y1="302" x2="976" y2="302" class="bl" /></g>
<g><title>303: 2</title><line x1="979" y1="302" x2="979" y2="302" class="bl" /></g>
<g><title>304: 1</title><line x1="982" y1="302" x2="982" y2="302" class="bl" /></g>
<g><title>305: 2</title><line x1="985" y1="302" x2="985" y2="302" class="bl" /></g>
<g><title>306: 3</title><line x1="988" y1="302" x2="988" y2="301.9" class="bl" /></g>
<g><title>307: 2</title><line x1="991" y1="302" x2="991" y2="302" class="bl" /></g>
<g><title>308: 1</title><line x1="994" y1="302" x2="994" y2="302" class="bl" /></g>
<g><title>309: 4</title><line x1="997" y1="302" x2="997" y2="301.9" class="bl" /></g>
<g><title>310: 2</title><line x1="1000" y1="302" x2="1000" y2="302" class="bl" /></g>
<g><title>311: 1</title><line x1="1003" y1="302" x2="1003" y2="302" class="bl" /></g>
<g><title>312: 2</title><line x1="1006" y1="302" x2="1006" y2="302" class="bl" /></g>
<g><title>313: 1</title><line x1="1009" y1="302" x2="1009" y2="302" class="bl" /></g>
<g><title>314: 1</title><line x1="1012" y1="302" x2="1012" y2="302" class="bl" /></g>
<g><title>315: 1</title><line x1="1015" y1="302" x2="1015" y2="302" class="bl" /></g>
<g><title>316: 1</title><line x1="1018" y1="302" x2="1018" y2="302" class="bl" /></g>
<g><title>317: 1</title><line x1="1021" y1="302" x2="1021" y2="302" class="bl" /></g>
<g><title>318: 1</title><line x1="1024" y1="302" x2="1024" y2="302" class="bl" /></g>
<g><title>321: 1</title><line x1="1027" y1="302" x2="1027" y2="302" class="bl" /></g>
<g><title>322: 1</title><line x1="1030" y1="302" x2="1030" y2="302" class="bl" /></g>
<g><title>323: 3</title><line x1="1033" y1="302" x2="1033" y2="301.9" class="bl" /></g>
<g><title>325: 1</title><line x1="1036" y1="302" x2="1036" y2="302" class="bl" /></g>
<g><title>326: 2</title><line x1="1039" y1="302" x2="1039" y2="302" class="bl" /></g>
<g><title>327: 1</title><line x1="1042" y1="302" x2="1042" y2="302" class="bl" /></g>
<g><title>328: 1</title><line x1="1045" y1="302" x2="1045" y2="302" class="bl" /></g>
<g><title>330: 2</title><line x1="1048" y1="302" x2="1048" y2="302" class="bl" /></g>
<g><title>331: 1</title><line x1="1051" y1="302" x2="1051" y2="302" class="bl" /></g>
<g><title>334: 1</title><line x1="1054" y1="302" x2="1054" y2="302" class="bl" /></g>
<g><title>341: 1</title><line x1="1057" y1="302" x2="1057" y2="302" class="bl" /></g>
<g><title>366: 1</title><line x1="1060" y1="302" x2="1060" y2="302" class="bl" /></g>
<text x="70" y="319" class="xLegends">0</text>
<text x="1062" y="319" class="xLegends">366</text>
<text x="55" y="302" class="yLegends">1</text>
<text x="55" y="52" class="yLegends">6006</text>
<text x="55" y="262" class="yLegends">972.3</text>
<g fill="none"><path class="meanLine" d="M70 262 H1062 262 Z" /></g></svg>
