<?xml version="1.0" encoding="UTF-8" standalone="no"?>
<svg
    xmlns:dc="http://purl.org/dc/elements/1.1/"
    xmlns:cc="http://creativecommons.org/ns#"
    xmlns:rdf="http://www.w3.org/1999/02/22-rdf-syntax-ns#"
    xmlns:svg="http://www.w3.org/2000/svg"
    xmlns="http://www.w3.org/2000/svg"
    width="1192"
    height="334"    
>
<style type="text/css"><![CDATA[
.bl { /* bar line */
    stroke:slategray;
    stroke-width:2;
}
.title{
    text-anchor:left;
    font-weight:bold;
    font-size:22px;
}
.xAxis{stroke:black;stroke-width:1;}
.yAxis{stroke:black;stroke-width:1;}
.xLegends{
    text-anchor:middle;
    font-size:12px;
}
.yLegends{
    text-anchor:end;
    dominant-baseline:middle;
    font-size:12px;
}
.meanLine{
    stroke:black;
    stroke-dasharray:5,20;
}
]]></style>
<rect width="100%" height="100%" fill="moccasin" />
<text x="25" y="37" class="title">Child - day of birth</text>
<line x1="70" y1="302" x2="1167" y2="302" class="xAxis" />
<line x1="70" y1="52" x2="70" y2="302" class="yAxis" />
<g><title>01-01: 1215</title><line x1="70" y1="302" x2="70" y2="275.4" class="bl" /></g>
<g><title>01-02: 1226</title><line x1="73" y1="302" x2="73" y2="272.3" class="bl" /></g>
<g><title>01-03: 1658</title><line x1="76" y1="302" x2="76" y2="148.7" class="bl" /></g>
<g><title>01-04: 1858</title><line x1="79" y1="302" x2="79" y2="91.5" class="bl" /></g>
<g><title>01-05: 1681</title><line x1="82" y1="302" x2="82" y2="142.1" class="bl" /></g>
<g><title>01-06: 1725</title><line x1="85" y1="302" x2="85" y2="129.5" class="bl" /></g>
<g><title>01-07: 1704</title><line x1="88" y1="302" x2="88" y2="135.5" class="bl" /></g>
<g><title>01-08: 1469</title><line x1="91" y1="302" x2="91" y2="202.7" class="bl" /></g>
<g><title>01-09: 1172</title><line x1="94" y1="302" x2="94" y2="287.7" class="bl" /></g>
<g><title>01-10: 1698</title><line x1="97" y1="302" x2="97" y2="137.2" class="bl" /></g>
<g><title>01-11: 1774</title><line x1="100" y1="302" x2="100" y2="115.5" class="bl" /></g>
<g><title>01-12: 1643</title><line x1="103" y1="302" x2="103" y2="153" class="bl" /></g>
<g><title>01-13: 1644</title><line x1="106" y1="302" x2="106" y2="152.7" class="bl" /></g>
<g><title>01-14: 1651</title><line x1="109" y1="302" x2="109" y2="150.7" class="bl" /></g>
<g><title>01-15: 1386</title><line x1="112" y1="302" x2="112" y2="226.5" class="bl" /></g>
<g><title>01-16: 1177</title><line x1="115" y1="302" x2="115" y2="286.3" class="bl" /></g>
<g><title>01-17: 1666</title><line x1="118" y1="302" x2="118" y2="146.4" class="bl" /></g>
<g><title>01-18: 1723</title><line x1="121" y1="302" x2="121" y2="130.1" class="bl" /></g>
<g><title>01-19: 1676</title><line x1="124" y1="302" x2="124" y2="143.5" class="bl" /></g>
<g><title>01-20: 1677</title><line x1="127" y1="302" x2="127" y2="143.2" class="bl" /></g>
<g><title>01-21: 1741</title><line x1="130" y1="302" x2="130" y2="124.9" class="bl" /></g>
<g><title>01-22: 1380</title><line x1="133" y1="302" x2="133" y2="228.2" class="bl" /></g>
<g><title>01-23: 1275</title><line x1="136" y1="302" x2="136" y2="258.2" class="bl" /></g>
<g><title>01-24: 1629</title><line x1="139" y1="302" x2="139" y2="157" class="bl" /></g>
<g><title>01-25: 1687</title><line x1="142" y1="302" x2="142" y2="140.4" class="bl" /></g>
<g><title>01-26: 1654</title><line x1="145" y1="302" x2="145" y2="149.8" class="bl" /></g>
<g><title>01-27: 1681</title><line x1="148" y1="302" x2="148" y2="142.1" class="bl" /></g>
<g><title>01-28: 1663</title><line x1="151" y1="302" x2="151" y2="147.3" class="bl" /></g>
<g><title>01-29: 1372</title><line x1="154" y1="302" x2="154" y2="230.5" class="bl" /></g>
<g><title>01-30: 1279</title><line x1="157" y1="302" x2="157" y2="257.1" class="bl" /></g>
<g><title>01-31: 1694</title><line x1="160" y1="302" x2="160" y2="138.4" class="bl" /></g>
<g><title>02-01: 1684</title><line x1="163" y1="302" x2="163" y2="141.2" class="bl" /></g>
<g><title>02-02: 1732</title><line x1="166" y1="302" x2="166" y2="127.5" class="bl" /></g>
<g><title>02-03: 1658</title><line x1="169" y1="302" x2="169" y2="148.7" class="bl" /></g>
<g><title>02-04: 1725</title><line x1="172" y1="302" x2="172" y2="129.5" class="bl" /></g>
<g><title>02-05: 1401</title><line x1="175" y1="302" x2="175" y2="222.2" class="bl" /></g>
<g><title>02-06: 1250</title><line x1="178" y1="302" x2="178" y2="265.4" class="bl" /></g>
<g><title>02-07: 1667</title><line x1="181" y1="302" x2="181" y2="146.1" class="bl" /></g>
<g><title>02-08: 1857</title><line x1="184" y1="302" x2="184" y2="91.8" class="bl" /></g>
<g><title>02-09: 1722</title><line x1="187" y1="302" x2="187" y2="130.4" class="bl" /></g>
<g><title>02-10: 1739</title><line x1="190" y1="302" x2="190" y2="125.5" class="bl" /></g>
<g><title>02-11: 1758</title><line x1="193" y1="302" x2="193" y2="120.1" class="bl" /></g>
<g><title>02-12: 1410</title><line x1="196" y1="302" x2="196" y2="219.6" class="bl" /></g>
<g><title>02-13: 1192</title><line x1="199" y1="302" x2="199" y2="282" class="bl" /></g>
<g><title>02-14: 1714</title><line x1="202" y1="302" x2="202" y2="132.7" class="bl" /></g>
<g><title>02-15: 1722</title><line x1="205" y1="302" x2="205" y2="130.4" class="bl" /></g>
<g><title>02-16: 1715</title><line x1="208" y1="302" x2="208" y2="132.4" class="bl" /></g>
<g><title>02-17: 1712</title><line x1="211" y1="302" x2="211" y2="133.2" class="bl" /></g>
<g><title>02-18: 1682</title><line x1="214" y1="302" x2="214" y2="141.8" class="bl" /></g>
<g><title>02-19: 1386</title><line x1="217" y1="302" x2="217" y2="226.5" class="bl" /></g>
<g><title>02-20: 1203</title><line x1="220" y1="302" x2="220" y2="278.8" class="bl" /></g>
<g><title>02-21: 1618</title><line x1="223" y1="302" x2="223" y2="160.1" class="bl" /></g>
<g><title>02-22: 1645</title><line x1="226" y1="302" x2="226" y2="152.4" class="bl" /></g>
<g><title>02-23: 1660</title><line x1="229" y1="302" x2="229" y2="148.1" class="bl" /></g>
<g><title>02-24: 1725</title><line x1="232" y1="302" x2="232" y2="129.5" class="bl" /></g>
<g><title>02-25: 1742</title><line x1="235" y1="302" x2="235" y2="124.7" class="bl" /></g>
<g><title>02-26: 1307</title><line x1="238" y1="302" x2="238" y2="249.1" class="bl" /></g>
<g><title>02-27: 1250</title><line x1="241" y1="302" x2="241" y2="265.4" class="bl" /></g>
<g><title>02-28: 1640</title><line x1="244" y1="302" x2="244" y2="153.8" class="bl" /></g>
<g><title>02-29: 1582</title><line x1="247" y1="302" x2="247" y2="170.4" class="bl" /></g>
<g><title>03-01: 1697</title><line x1="250" y1="302" x2="250" y2="137.5" class="bl" /></g>
<g><title>03-02: 1646</title><line x1="253" y1="302" x2="253" y2="152.1" class="bl" /></g>
<g><title>03-03: 1728</title><line x1="256" y1="302" x2="256" y2="128.7" class="bl" /></g>
<g><title>03-04: 1300</title><line x1="259" y1="302" x2="259" y2="251.1" class="bl" /></g>
<g><title>03-05: 1233</title><line x1="262" y1="302" x2="262" y2="270.2" class="bl" /></g>
<g><title>03-06: 1681</title><line x1="265" y1="302" x2="265" y2="142.1" class="bl" /></g>
<g><title>03-07: 1672</title><line x1="268" y1="302" x2="268" y2="144.7" class="bl" /></g>
<g><title>03-08: 1753</title><line x1="271" y1="302" x2="271" y2="121.5" class="bl" /></g>
<g><title>03-09: 1641</title><line x1="274" y1="302" x2="274" y2="153.5" class="bl" /></g>
<g><title>03-10: 1755</title><line x1="277" y1="302" x2="277" y2="120.9" class="bl" /></g>
<g><title>03-11: 1368</title><line x1="280" y1="302" x2="280" y2="231.6" class="bl" /></g>
<g><title>03-12: 1206</title><line x1="283" y1="302" x2="283" y2="278" class="bl" /></g>
<g><title>03-13: 1680</title><line x1="286" y1="302" x2="286" y2="142.4" class="bl" /></g>
<g><title>03-14: 1630</title><line x1="289" y1="302" x2="289" y2="156.7" class="bl" /></g>
<g><title>03-15: 1709</title><line x1="292" y1="302" x2="292" y2="134.1" class="bl" /></g>
<g><title>03-16: 1717</title><line x1="295" y1="302" x2="295" y2="131.8" class="bl" /></g>
<g><title>03-17: 1626</title><line x1="298" y1="302" x2="298" y2="157.8" class="bl" /></g>
<g><title>03-18: 1321</title><line x1="301" y1="302" x2="301" y2="245.1" class="bl" /></g>
<g><title>03-19: 1263</title><line x1="304" y1="302" x2="304" y2="261.7" class="bl" /></g>
<g><title>03-20: 1636</title><line x1="307" y1="302" x2="307" y2="155" class="bl" /></g>
<g><title>03-21: 1726</title><line x1="310" y1="302" x2="310" y2="129.2" class="bl" /></g>
<g><title>03-22: 1731</title><line x1="313" y1="302" x2="313" y2="127.8" class="bl" /></g>
<g><title>03-23: 1666</title><line x1="316" y1="302" x2="316" y2="146.4" class="bl" /></g>
<g><title>03-24: 1702</title><line x1="319" y1="302" x2="319" y2="136.1" class="bl" /></g>
<g><title>03-25: 1329</title><line x1="322" y1="302" x2="322" y2="242.8" class="bl" /></g>
<g><title>03-26: 1218</title><line x1="325" y1="302" x2="325" y2="274.5" class="bl" /></g>
<g><title>03-27: 1736</title><line x1="328" y1="302" x2="328" y2="126.4" class="bl" /></g>
<g><title>03-28: 1816</title><line x1="331" y1="302" x2="331" y2="103.5" class="bl" /></g>
<g><title>03-29: 1702</title><line x1="334" y1="302" x2="334" y2="136.1" class="bl" /></g>
<g><title>03-30: 1719</title><line x1="337" y1="302" x2="337" y2="131.2" class="bl" /></g>
<g><title>03-31: 1710</title><line x1="340" y1="302" x2="340" y2="133.8" class="bl" /></g>
<g><title>04-01: 1323</title><line x1="343" y1="302" x2="343" y2="244.5" class="bl" /></g>
<g><title>04-02: 1250</title><line x1="346" y1="302" x2="346" y2="265.4" class="bl" /></g>
<g><title>04-03: 1746</title><line x1="349" y1="302" x2="349" y2="123.5" class="bl" /></g>
<g><title>04-04: 1799</title><line x1="352" y1="302" x2="352" y2="108.4" class="bl" /></g>
<g><title>04-05: 1781</title><line x1="355" y1="302" x2="355" y2="113.5" class="bl" /></g>
<g><title>04-06: 1684</title><line x1="358" y1="302" x2="358" y2="141.2" class="bl" /></g>
<g><title>04-07: 1743</title><line x1="361" y1="302" x2="361" y2="124.4" class="bl" /></g>
<g><title>04-08: 1390</title><line x1="364" y1="302" x2="364" y2="225.3" class="bl" /></g>
<g><title>04-09: 1301</title><line x1="367" y1="302" x2="367" y2="250.8" class="bl" /></g>
<g><title>04-10: 1775</title><line x1="370" y1="302" x2="370" y2="115.2" class="bl" /></g>
<g><title>04-11: 1739</title><line x1="373" y1="302" x2="373" y2="125.5" class="bl" /></g>
<g><title>04-12: 1763</title><line x1="376" y1="302" x2="376" y2="118.6" class="bl" /></g>
<g><title>04-13: 1713</title><line x1="379" y1="302" x2="379" y2="132.9" class="bl" /></g>
<g><title>04-14: 1728</title><line x1="382" y1="302" x2="382" y2="128.7" class="bl" /></g>
<g><title>04-15: 1481</title><line x1="385" y1="302" x2="385" y2="199.3" class="bl" /></g>
<g><title>04-16: 1252</title><line x1="388" y1="302" x2="388" y2="264.8" class="bl" /></g>
<g><title>04-17: 1745</title><line x1="391" y1="302" x2="391" y2="123.8" class="bl" /></g>
<g><title>04-18: 1868</title><line x1="394" y1="302" x2="394" y2="88.6" class="bl" /></g>
<g><title>04-19: 1727</title><line x1="397" y1="302" x2="397" y2="128.9" class="bl" /></g>
<g><title>04-20: 1718</title><line x1="400" y1="302" x2="400" y2="131.5" class="bl" /></g>
<g><title>04-21: 1751</title><line x1="403" y1="302" x2="403" y2="122.1" class="bl" /></g>
<g><title>04-22: 1509</title><line x1="406" y1="302" x2="406" y2="191.3" class="bl" /></g>
<g><title>04-23: 1290</title><line x1="409" y1="302" x2="409" y2="253.9" class="bl" /></g>
<g><title>04-24: 1263</title><line x1="412" y1="302" x2="412" y2="261.7" class="bl" /></g>
<g><title>04-25: 1723</title><line x1="415" y1="302" x2="415" y2="130.1" class="bl" /></g>
<g><title>04-26: 1841</title><line x1="418" y1="302" x2="418" y2="96.3" class="bl" /></g>
<g><title>04-27: 1773</title><line x1="421" y1="302" x2="421" y2="115.8" class="bl" /></g>
<g><title>04-28: 1777</title><line x1="424" y1="302" x2="424" y2="114.6" class="bl" /></g>
<g><title>04-29: 1447</title><line x1="427" y1="302" x2="427" y2="209" class="bl" /></g>
<g><title>04-30: 1272</title><line x1="430" y1="302" x2="430" y2="259.1" class="bl" /></g>
<g><title>05-01: 1300</title><line x1="433" y1="302" x2="433" y2="251.1" class="bl" /></g>
<g><title>05-02: 1839</title><line x1="436" y1="302" x2="436" y2="96.9" class="bl" /></g>
<g><title>05-03: 1840</title><line x1="439" y1="302" x2="439" y2="96.6" class="bl" /></g>
<g><title>05-04: 1899</title><line x1="442" y1="302" x2="442" y2="79.7" class="bl" /></g>
<g><title>05-05: 1877</title><line x1="445" y1="302" x2="445" y2="86" class="bl" /></g>
<g><title>05-06: 1523</title><line x1="448" y1="302" x2="448" y2="187.3" class="bl" /></g>
<g><title>05-07: 1338</title><line x1="451" y1="302" x2="451" y2="240.2" class="bl" /></g>
<g><title>05-08: 1332</title><line x1="454" y1="302" x2="454" y2="241.9" class="bl" /></g>
<g><title>05-09: 1868</title><line x1="457" y1="302" x2="457" y2="88.6" class="bl" /></g>
<g><title>05-10: 1854</title><line x1="460" y1="302" x2="460" y2="92.6" class="bl" /></g>
<g><title>05-11: 1850</title><line x1="463" y1="302" x2="463" y2="93.8" class="bl" /></g>
<g><title>05-12: 1830</title><line x1="466" y1="302" x2="466" y2="99.5" class="bl" /></g>
<g><title>05-13: 1436</title><line x1="469" y1="302" x2="469" y2="212.2" class="bl" /></g>
<g><title>05-14: 1334</title><line x1="472" y1="302" x2="472" y2="241.4" class="bl" /></g>
<g><title>05-15: 1763</title><line x1="475" y1="302" x2="475" y2="118.6" class="bl" /></g>
<g><title>05-16: 1842</title><line x1="478" y1="302" x2="478" y2="96.1" class="bl" /></g>
<g><title>05-17: 1756</title><line x1="481" y1="302" x2="481" y2="120.6" class="bl" /></g>
<g><title>05-18: 1755</title><line x1="484" y1="302" x2="484" y2="120.9" class="bl" /></g>
<g><title>05-19: 1763</title><line x1="487" y1="302" x2="487" y2="118.6" class="bl" /></g>
<g><title>05-20: 1429</title><line x1="490" y1="302" x2="490" y2="214.2" class="bl" /></g>
<g><title>05-21: 1257</title><line x1="493" y1="302" x2="493" y2="263.4" class="bl" /></g>
<g><title>05-22: 1746</title><line x1="496" y1="302" x2="496" y2="123.5" class="bl" /></g>
<g><title>05-23: 1764</title><line x1="499" y1="302" x2="499" y2="118.4" class="bl" /></g>
<g><title>05-24: 1766</title><line x1="502" y1="302" x2="502" y2="117.8" class="bl" /></g>
<g><title>05-25: 1781</title><line x1="505" y1="302" x2="505" y2="113.5" class="bl" /></g>
<g><title>05-26: 1737</title><line x1="508" y1="302" x2="508" y2="126.1" class="bl" /></g>
<g><title>05-27: 1390</title><line x1="511" y1="302" x2="511" y2="225.3" class="bl" /></g>
<g><title>05-28: 1264</title><line x1="514" y1="302" x2="514" y2="261.4" class="bl" /></g>
<g><title>05-29: 1725</title><line x1="517" y1="302" x2="517" y2="129.5" class="bl" /></g>
<g><title>05-30: 1785</title><line x1="520" y1="302" x2="520" y2="112.4" class="bl" /></g>
<g><title>05-31: 1740</title><line x1="523" y1="302" x2="523" y2="125.2" class="bl" /></g>
<g><title>06-01: 1289</title><line x1="526" y1="302" x2="526" y2="254.2" class="bl" /></g>
<g><title>06-02: 1713</title><line x1="529" y1="302" x2="529" y2="132.9" class="bl" /></g>
<g><title>06-03: 1415</title><line x1="532" y1="302" x2="532" y2="218.2" class="bl" /></g>
<g><title>06-04: 1220</title><line x1="535" y1="302" x2="535" y2="274" class="bl" /></g>
<g><title>06-05: 1707</title><line x1="538" y1="302" x2="538" y2="134.7" class="bl" /></g>
<g><title>06-06: 1902</title><line x1="541" y1="302" x2="541" y2="78.9" class="bl" /></g>
<g><title>06-07: 1676</title><line x1="544" y1="302" x2="544" y2="143.5" class="bl" /></g>
<g><title>06-08: 1827</title><line x1="547" y1="302" x2="547" y2="100.3" class="bl" /></g>
<g><title>06-09: 1783</title><line x1="550" y1="302" x2="550" y2="112.9" class="bl" /></g>
<g><title>06-10: 1382</title><line x1="553" y1="302" x2="553" y2="227.6" class="bl" /></g>
<g><title>06-11: 1286</title><line x1="556" y1="302" x2="556" y2="255.1" class="bl" /></g>
<g><title>06-12: 1235</title><line x1="559" y1="302" x2="559" y2="269.7" class="bl" /></g>
<g><title>06-13: 1725</title><line x1="562" y1="302" x2="562" y2="129.5" class="bl" /></g>
<g><title>06-14: 1767</title><line x1="565" y1="302" x2="565" y2="117.5" class="bl" /></g>
<g><title>06-15: 1744</title><line x1="568" y1="302" x2="568" y2="124.1" class="bl" /></g>
<g><title>06-16: 1781</title><line x1="571" y1="302" x2="571" y2="113.5" class="bl" /></g>
<g><title>06-17: 1456</title><line x1="574" y1="302" x2="574" y2="206.5" class="bl" /></g>
<g><title>06-18: 1317</title><line x1="577" y1="302" x2="577" y2="246.2" class="bl" /></g>
<g><title>06-19: 1819</title><line x1="580" y1="302" x2="580" y2="102.6" class="bl" /></g>
<g><title>06-20: 1907</title><line x1="583" y1="302" x2="583" y2="77.5" class="bl" /></g>
<g><title>06-21: 1769</title><line x1="586" y1="302" x2="586" y2="116.9" class="bl" /></g>
<g><title>06-22: 1805</title><line x1="589" y1="302" x2="589" y2="106.6" class="bl" /></g>
<g><title>06-23: 1666</title><line x1="592" y1="302" x2="592" y2="146.4" class="bl" /></g>
<g><title>06-24: 1319</title><line x1="595" y1="302" x2="595" y2="245.6" class="bl" /></g>
<g><title>06-25: 1215</title><line x1="598" y1="302" x2="598" y2="275.4" class="bl" /></g>
<g><title>06-26: 1718</title><line x1="601" y1="302" x2="601" y2="131.5" class="bl" /></g>
<g><title>06-27: 1703</title><line x1="604" y1="302" x2="604" y2="135.8" class="bl" /></g>
<g><title>06-28: 1670</title><line x1="607" y1="302" x2="607" y2="145.2" class="bl" /></g>
<g><title>06-29: 1699</title><line x1="610" y1="302" x2="610" y2="137" class="bl" /></g>
<g><title>06-30: 1737</title><line x1="613" y1="302" x2="613" y2="126.1" class="bl" /></g>
<g><title>07-01: 1419</title><line x1="616" y1="302" x2="616" y2="217" class="bl" /></g>
<g><title>07-02: 1238</title><line x1="619" y1="302" x2="619" y2="268.8" class="bl" /></g>
<g><title>07-03: 1734</title><line x1="622" y1="302" x2="622" y2="126.9" class="bl" /></g>
<g><title>07-04: 1785</title><line x1="625" y1="302" x2="625" y2="112.4" class="bl" /></g>
<g><title>07-05: 1827</title><line x1="628" y1="302" x2="628" y2="100.3" class="bl" /></g>
<g><title>07-06: 1768</title><line x1="631" y1="302" x2="631" y2="117.2" class="bl" /></g>
<g><title>07-07: 1813</title><line x1="634" y1="302" x2="634" y2="104.3" class="bl" /></g>
<g><title>07-08: 1434</title><line x1="637" y1="302" x2="637" y2="212.8" class="bl" /></g>
<g><title>07-09: 1218</title><line x1="640" y1="302" x2="640" y2="274.5" class="bl" /></g>
<g><title>07-10: 1805</title><line x1="643" y1="302" x2="643" y2="106.6" class="bl" /></g>
<g><title>07-11: 1834</title><line x1="646" y1="302" x2="646" y2="98.3" class="bl" /></g>
<g><title>07-12: 1817</title><line x1="649" y1="302" x2="649" y2="103.2" class="bl" /></g>
<g><title>07-13: 1802</title><line x1="652" y1="302" x2="652" y2="107.5" class="bl" /></g>
<g><title>07-14: 1329</title><line x1="655" y1="302" x2="655" y2="242.8" class="bl" /></g>
<g><title>07-15: 1441</title><line x1="658" y1="302" x2="658" y2="210.8" class="bl" /></g>
<g><title>07-16: 1330</title><line x1="661" y1="302" x2="661" y2="242.5" class="bl" /></g>
<g><title>07-17: 1775</title><line x1="664" y1="302" x2="664" y2="115.2" class="bl" /></g>
<g><title>07-18: 1933</title><line x1="667" y1="302" x2="667" y2="70" class="bl" /></g>
<g><title>07-19: 1840</title><line x1="670" y1="302" x2="670" y2="96.6" class="bl" /></g>
<g><title>07-20: 1781</title><line x1="673" y1="302" x2="673" y2="113.5" class="bl" /></g>
<g><title>07-21: 1849</title><line x1="676" y1="302" x2="676" y2="94" class="bl" /></g>
<g><title>07-22: 1631</title><line x1="679" y1="302" x2="679" y2="156.4" class="bl" /></g>
<g><title>07-23: 1394</title><line x1="682" y1="302" x2="682" y2="224.2" class="bl" /></g>
<g><title>07-24: 1771</title><line x1="685" y1="302" x2="685" y2="116.4" class="bl" /></g>
<g><title>07-25: 1904</title><line x1="688" y1="302" x2="688" y2="78.3" class="bl" /></g>
<g><title>07-26: 1896</title><line x1="691" y1="302" x2="691" y2="80.6" class="bl" /></g>
<g><title>07-27: 1789</title><line x1="694" y1="302" x2="694" y2="111.2" class="bl" /></g>
<g><title>07-28: 1815</title><line x1="697" y1="302" x2="697" y2="103.8" class="bl" /></g>
<g><title>07-29: 1544</title><line x1="700" y1="302" x2="700" y2="181.3" class="bl" /></g>
<g><title>07-30: 1302</title><line x1="703" y1="302" x2="703" y2="250.5" class="bl" /></g>
<g><title>07-31: 1753</title><line x1="706" y1="302" x2="706" y2="121.5" class="bl" /></g>
<g><title>08-01: 1860</title><line x1="709" y1="302" x2="709" y2="90.9" class="bl" /></g>
<g><title>08-02: 1863</title><line x1="712" y1="302" x2="712" y2="90" class="bl" /></g>
<g><title>08-03: 1737</title><line x1="715" y1="302" x2="715" y2="126.1" class="bl" /></g>
<g><title>08-04: 1738</title><line x1="718" y1="302" x2="718" y2="125.8" class="bl" /></g>
<g><title>08-05: 1414</title><line x1="721" y1="302" x2="721" y2="218.5" class="bl" /></g>
<g><title>08-06: 1319</title><line x1="724" y1="302" x2="724" y2="245.6" class="bl" /></g>
<g><title>08-07: 1704</title><line x1="727" y1="302" x2="727" y2="135.5" class="bl" /></g>
<g><title>08-08: 1870</title><line x1="730" y1="302" x2="730" y2="88" class="bl" /></g>
<g><title>08-09: 1830</title><line x1="733" y1="302" x2="733" y2="99.5" class="bl" /></g>
<g><title>08-10: 1809</title><line x1="736" y1="302" x2="736" y2="105.5" class="bl" /></g>
<g><title>08-11: 1882</title><line x1="739" y1="302" x2="739" y2="84.6" class="bl" /></g>
<g><title>08-12: 1462</title><line x1="742" y1="302" x2="742" y2="204.7" class="bl" /></g>
<g><title>08-13: 1342</title><line x1="745" y1="302" x2="745" y2="239.1" class="bl" /></g>
<g><title>08-14: 1629</title><line x1="748" y1="302" x2="748" y2="157" class="bl" /></g>
<g><title>08-15: 1430</title><line x1="751" y1="302" x2="751" y2="213.9" class="bl" /></g>
<g><title>08-16: 1761</title><line x1="754" y1="302" x2="754" y2="119.2" class="bl" /></g>
<g><title>08-17: 1755</title><line x1="757" y1="302" x2="757" y2="120.9" class="bl" /></g>
<g><title>08-18: 1743</title><line x1="760" y1="302" x2="760" y2="124.4" class="bl" /></g>
<g><title>08-19: 1455</title><line x1="763" y1="302" x2="763" y2="206.7" class="bl" /></g>
<g><title>08-20: 1314</title><line x1="766" y1="302" x2="766" y2="247.1" class="bl" /></g>
<g><title>08-21: 1659</title><line x1="769" y1="302" x2="769" y2="148.4" class="bl" /></g>
<g><title>08-22: 1778</title><line x1="772" y1="302" x2="772" y2="114.4" class="bl" /></g>
<g><title>08-23: 1729</title><line x1="775" y1="302" x2="775" y2="128.4" class="bl" /></g>
<g><title>08-24: 1677</title><line x1="778" y1="302" x2="778" y2="143.2" class="bl" /></g>
<g><title>08-25: 1728</title><line x1="781" y1="302" x2="781" y2="128.7" class="bl" /></g>
<g><title>08-26: 1423</title><line x1="784" y1="302" x2="784" y2="215.9" class="bl" /></g>
<g><title>08-27: 1272</title><line x1="787" y1="302" x2="787" y2="259.1" class="bl" /></g>
<g><title>08-28: 1591</title><line x1="790" y1="302" x2="790" y2="167.8" class="bl" /></g>
<g><title>08-29: 1733</title><line x1="793" y1="302" x2="793" y2="127.2" class="bl" /></g>
<g><title>08-30: 1693</title><line x1="796" y1="302" x2="796" y2="138.7" class="bl" /></g>
<g><title>08-31: 1662</title><line x1="799" y1="302" x2="799" y2="147.5" class="bl" /></g>
<g><title>09-01: 1762</title><line x1="802" y1="302" x2="802" y2="118.9" class="bl" /></g>
<g><title>09-02: 1365</title><line x1="805" y1="302" x2="805" y2="232.5" class="bl" /></g>
<g><title>09-03: 1252</title><line x1="808" y1="302" x2="808" y2="264.8" class="bl" /></g>
<g><title>09-04: 1569</title><line x1="811" y1="302" x2="811" y2="174.1" class="bl" /></g>
<g><title>09-05: 1706</title><line x1="814" y1="302" x2="814" y2="135" class="bl" /></g>
<g><title>09-06: 1684</title><line x1="817" y1="302" x2="817" y2="141.2" class="bl" /></g>
<g><title>09-07: 1724</title><line x1="820" y1="302" x2="820" y2="129.8" class="bl" /></g>
<g><title>09-08: 1762</title><line x1="823" y1="302" x2="823" y2="118.9" class="bl" /></g>
<g><title>09-09: 1463</title><line x1="826" y1="302" x2="826" y2="204.5" class="bl" /></g>
<g><title>09-10: 1260</title><line x1="829" y1="302" x2="829" y2="262.5" class="bl" /></g>
<g><title>09-11: 1771</title><line x1="832" y1="302" x2="832" y2="116.4" class="bl" /></g>
<g><title>09-12: 1955</title><line x1="835" y1="302" x2="835" y2="63.7" class="bl" /></g>
<g><title>09-13: 1743</title><line x1="838" y1="302" x2="838" y2="124.4" class="bl" /></g>
<g><title>09-14: 1801</title><line x1="841" y1="302" x2="841" y2="107.8" class="bl" /></g>
<g><title>09-15: 1847</title><line x1="844" y1="302" x2="844" y2="94.6" class="bl" /></g>
<g><title>09-16: 1453</title><line x1="847" y1="302" x2="847" y2="207.3" class="bl" /></g>
<g><title>09-17: 1263</title><line x1="850" y1="302" x2="850" y2="261.7" class="bl" /></g>
<g><title>09-18: 1801</title><line x1="853" y1="302" x2="853" y2="107.8" class="bl" /></g>
<g><title>09-19: 1809</title><line x1="856" y1="302" x2="856" y2="105.5" class="bl" /></g>
<g><title>09-20: 1778</title><line x1="859" y1="302" x2="859" y2="114.4" class="bl" /></g>
<g><title>09-21: 1753</title><line x1="862" y1="302" x2="862" y2="121.5" class="bl" /></g>
<g><title>09-22: 1665</title><line x1="865" y1="302" x2="865" y2="146.7" class="bl" /></g>
<g><title>09-23: 1449</title><line x1="868" y1="302" x2="868" y2="208.5" class="bl" /></g>
<g><title>09-24: 1306</title><line x1="871" y1="302" x2="871" y2="249.4" class="bl" /></g>
<g><title>09-25: 1829</title><line x1="874" y1="302" x2="874" y2="99.8" class="bl" /></g>
<g><title>09-26: 1808</title><line x1="877" y1="302" x2="877" y2="105.8" class="bl" /></g>
<g><title>09-27: 1730</title><line x1="880" y1="302" x2="880" y2="128.1" class="bl" /></g>
<g><title>09-28: 1743</title><line x1="883" y1="302" x2="883" y2="124.4" class="bl" /></g>
<g><title>09-29: 1711</title><line x1="886" y1="302" x2="886" y2="133.5" class="bl" /></g>
<g><title>09-30: 1544</title><line x1="889" y1="302" x2="889" y2="181.3" class="bl" /></g>
<g><title>10-01: 1228</title><line x1="892" y1="302" x2="892" y2="271.7" class="bl" /></g>
<g><title>10-02: 1768</title><line x1="895" y1="302" x2="895" y2="117.2" class="bl" /></g>
<g><title>10-03: 1765</title><line x1="898" y1="302" x2="898" y2="118.1" class="bl" /></g>
<g><title>10-04: 1794</title><line x1="901" y1="302" x2="901" y2="109.8" class="bl" /></g>
<g><title>10-05: 1735</title><line x1="904" y1="302" x2="904" y2="126.7" class="bl" /></g>
<g><title>10-06: 1709</title><line x1="907" y1="302" x2="907" y2="134.1" class="bl" /></g>
<g><title>10-07: 1389</title><line x1="910" y1="302" x2="910" y2="225.6" class="bl" /></g>
<g><title>10-08: 1256</title><line x1="913" y1="302" x2="913" y2="263.7" class="bl" /></g>
<g><title>10-09: 1677</title><line x1="916" y1="302" x2="916" y2="143.2" class="bl" /></g>
<g><title>10-10: 1828</title><line x1="919" y1="302" x2="919" y2="100.1" class="bl" /></g>
<g><title>10-11: 1777</title><line x1="922" y1="302" x2="922" y2="114.6" class="bl" /></g>
<g><title>10-12: 1775</title><line x1="925" y1="302" x2="925" y2="115.2" class="bl" /></g>
<g><title>10-13: 1703</title><line x1="928" y1="302" x2="928" y2="135.8" class="bl" /></g>
<g><title>10-14: 1481</title><line x1="931" y1="302" x2="931" y2="199.3" class="bl" /></g>
<g><title>10-15: 1218</title><line x1="934" y1="302" x2="934" y2="274.5" class="bl" /></g>
<g><title>10-16: 1717</title><line x1="937" y1="302" x2="937" y2="131.8" class="bl" /></g>
<g><title>10-17: 1833</title><line x1="940" y1="302" x2="940" y2="98.6" class="bl" /></g>
<g><title>10-18: 1646</title><line x1="943" y1="302" x2="943" y2="152.1" class="bl" /></g>
<g><title>10-19: 1767</title><line x1="946" y1="302" x2="946" y2="117.5" class="bl" /></g>
<g><title>10-20: 1742</title><line x1="949" y1="302" x2="949" y2="124.7" class="bl" /></g>
<g><title>10-21: 1360</title><line x1="952" y1="302" x2="952" y2="233.9" class="bl" /></g>
<g><title>10-22: 1249</title><line x1="955" y1="302" x2="955" y2="265.7" class="bl" /></g>
<g><title>10-23: 1727</title><line x1="958" y1="302" x2="958" y2="128.9" class="bl" /></g>
<g><title>10-24: 1856</title><line x1="961" y1="302" x2="961" y2="92" class="bl" /></g>
<g><title>10-25: 1758</title><line x1="964" y1="302" x2="964" y2="120.1" class="bl" /></g>
<g><title>10-26: 1712</title><line x1="967" y1="302" x2="967" y2="133.2" class="bl" /></g>
<g><title>10-27: 1779</title><line x1="970" y1="302" x2="970" y2="114.1" class="bl" /></g>
<g><title>10-28: 1373</title><line x1="973" y1="302" x2="973" y2="230.2" class="bl" /></g>
<g><title>10-29: 1349</title><line x1="976" y1="302" x2="976" y2="237.1" class="bl" /></g>
<g><title>10-30: 1672</title><line x1="979" y1="302" x2="979" y2="144.7" class="bl" /></g>
<g><title>10-31: 1740</title><line x1="982" y1="302" x2="982" y2="125.2" class="bl" /></g>
<g><title>11-01: 1293</title><line x1="985" y1="302" x2="985" y2="253.1" class="bl" /></g>
<g><title>11-02: 1637</title><line x1="988" y1="302" x2="988" y2="154.7" class="bl" /></g>
<g><title>11-03: 1720</title><line x1="991" y1="302" x2="991" y2="130.9" class="bl" /></g>
<g><title>11-04: 1420</title><line x1="994" y1="302" x2="994" y2="216.8" class="bl" /></g>
<g><title>11-05: 1243</title><line x1="997" y1="302" x2="997" y2="267.4" class="bl" /></g>
<g><title>11-06: 1766</title><line x1="1000" y1="302" x2="1000" y2="117.8" class="bl" /></g>
<g><title>11-07: 1783</title><line x1="1003" y1="302" x2="1003" y2="112.9" class="bl" /></g>
<g><title>11-08: 1795</title><line x1="1006" y1="302" x2="1006" y2="109.5" class="bl" /></g>
<g><title>11-09: 1765</title><line x1="1009" y1="302" x2="1009" y2="118.1" class="bl" /></g>
<g><title>11-10: 1820</title><line x1="1012" y1="302" x2="1012" y2="102.3" class="bl" /></g>
<g><title>11-11: 1351</title><line x1="1015" y1="302" x2="1015" y2="236.5" class="bl" /></g>
<g><title>11-12: 1217</title><line x1="1018" y1="302" x2="1018" y2="274.8" class="bl" /></g>
<g><title>11-13: 1722</title><line x1="1021" y1="302" x2="1021" y2="130.4" class="bl" /></g>
<g><title>11-14: 1833</title><line x1="1024" y1="302" x2="1024" y2="98.6" class="bl" /></g>
<g><title>11-15: 1801</title><line x1="1027" y1="302" x2="1027" y2="107.8" class="bl" /></g>
<g><title>11-16: 1737</title><line x1="1030" y1="302" x2="1030" y2="126.1" class="bl" /></g>
<g><title>11-17: 1683</title><line x1="1033" y1="302" x2="1033" y2="141.5" class="bl" /></g>
<g><title>11-18: 1434</title><line x1="1036" y1="302" x2="1036" y2="212.8" class="bl" /></g>
<g><title>11-19: 1256</title><line x1="1039" y1="302" x2="1039" y2="263.7" class="bl" /></g>
<g><title>11-20: 1781</title><line x1="1042" y1="302" x2="1042" y2="113.5" class="bl" /></g>
<g><title>11-21: 1772</title><line x1="1045" y1="302" x2="1045" y2="116.1" class="bl" /></g>
<g><title>11-22: 1754</title><line x1="1048" y1="302" x2="1048" y2="121.2" class="bl" /></g>
<g><title>11-23: 1751</title><line x1="1051" y1="302" x2="1051" y2="122.1" class="bl" /></g>
<g><title>11-24: 1700</title><line x1="1054" y1="302" x2="1054" y2="136.7" class="bl" /></g>
<g><title>11-25: 1335</title><line x1="1057" y1="302" x2="1057" y2="241.1" class="bl" /></g>
<g><title>11-26: 1241</title><line x1="1060" y1="302" x2="1060" y2="268" class="bl" /></g>
<g><title>11-27: 1729</title><line x1="1063" y1="302" x2="1063" y2="128.4" class="bl" /></g>
<g><title>11-28: 1735</title><line x1="1066" y1="302" x2="1066" y2="126.7" class="bl" /></g>
<g><title>11-29: 1707</title><line x1="1069" y1="302" x2="1069" y2="134.7" class="bl" /></g>
<g><title>11-30: 1651</title><line x1="1072" y1="302" x2="1072" y2="150.7" class="bl" /></g>
<g><title>12-01: 1625</title><line x1="1075" y1="302" x2="1075" y2="158.1" class="bl" /></g>
<g><title>12-02: 1386</title><line x1="1078" y1="302" x2="1078" y2="226.5" class="bl" /></g>
<g><title>12-03: 1271</title><line x1="1081" y1="302" x2="1081" y2="259.4" class="bl" /></g>
<g><title>12-04: 1735</title><line x1="1084" y1="302" x2="1084" y2="126.7" class="bl" /></g>
<g><title>12-05: 1787</title><line x1="1087" y1="302" x2="1087" y2="111.8" class="bl" /></g>
<g><title>12-06: 1765</title><line x1="1090" y1="302" x2="1090" y2="118.1" class="bl" /></g>
<g><title>12-07: 1745</title><line x1="1093" y1="302" x2="1093" y2="123.8" class="bl" /></g>
<g><title>12-08: 1759</title><line x1="1096" y1="302" x2="1096" y2="119.8" class="bl" /></g>
<g><title>12-09: 1445</title><line x1="1099" y1="302" x2="1099" y2="209.6" class="bl" /></g>
<g><title>12-10: 1229</title><line x1="1102" y1="302" x2="1102" y2="271.4" class="bl" /></g>
<g><title>12-11: 1801</title><line x1="1105" y1="302" x2="1105" y2="107.8" class="bl" /></g>
<g><title>12-12: 1908</title><line x1="1108" y1="302" x2="1108" y2="77.2" class="bl" /></g>
<g><title>12-13: 1823</title><line x1="1111" y1="302" x2="1111" y2="101.5" class="bl" /></g>
<g><title>12-14: 1787</title><line x1="1114" y1="302" x2="1114" y2="111.8" class="bl" /></g>
<g><title>12-15: 1889</title><line x1="1117" y1="302" x2="1117" y2="82.6" class="bl" /></g>
<g><title>12-16: 1555</title><line x1="1120" y1="302" x2="1120" y2="178.1" class="bl" /></g>
<g><title>12-17: 1261</title><line x1="1123" y1="302" x2="1123" y2="262.2" class="bl" /></g>
<g><title>12-18: 1996</title><line x1="1126" y1="302" x2="1126" y2="52" class="bl" /></g>
<g><title>12-19: 1891</title><line x1="1129" y1="302" x2="1129" y2="82" class="bl" /></g>
<g><title>12-20: 1799</title><line x1="1132" y1="302" x2="1132" y2="108.4" class="bl" /></g>
<g><title>12-21: 1794</title><line x1="1135" y1="302" x2="1135" y2="109.8" class="bl" /></g>
<g><title>12-22: 1553</title><line x1="1138" y1="302" x2="1138" y2="178.7" class="bl" /></g>
<g><title>12-23: 1248</title><line x1="1141" y1="302" x2="1141" y2="266" class="bl" /></g>
<g><title>12-24: 1122</title><line x1="1144" y1="302" x2="1144" y2="302" class="bl" /></g>
<g><title>12-25: 1134</title><line x1="1147" y1="302" x2="1147" y2="298.6" class="bl" /></g>
<g><title>12-26: 1664</title><line x1="1150" y1="302" x2="1150" y2="147" class="bl" /></g>
<g><title>12-27: 1802</title><line x1="1153" y1="302" x2="1153" y2="107.5" class="bl" /></g>
<g><title>12-28: 1693</title><line x1="1156" y1="302" x2="1156" y2="138.7" class="bl" /></g>
<g><title>12-29: 1619</title><line x1="1159" y1="302" x2="1159" y2="159.8" class="bl" /></g>
<g><title>12-30: 1355</title><line x1="1162" y1="302" x2="1162" y2="235.4" class="bl" /></g>
<g><title>12-31: 1241</title><line x1="1165" y1="302" x2="1165" y2="268" class="bl" /></g>
<text x="70" y="319" class="xLegends">01-01</text>
<text x="1167" y="319" class="xLegends">12-31</text>
<text x="55" y="302" class="yLegends">1122</text>
<text x="55" y="52" class="yLegends">1996</text>
<text x="55" y="160" class="yLegends">1617.3</text>
<g fill="none"><path class="meanLine" d="M70 160 H1167 160 Z" /></g></svg>
