<?xml version="1.0" encoding="UTF-8" standalone="no"?>
<svg
    xmlns:dc="http://purl.org/dc/elements/1.1/"
    xmlns:cc="http://creativecommons.org/ns#"
    xmlns:rdf="http://www.w3.org/1999/02/22-rdf-syntax-ns#"
    xmlns:svg="http://www.w3.org/2000/svg"
    xmlns="http://www.w3.org/2000/svg"
    width="571"
    height="334"    
>
<style type="text/css"><![CDATA[
.bl { /* bar line */
    stroke:slategray;
    stroke-width:8;
}
.title{
    text-anchor:left;
    font-weight:bold;
    font-size:22px;
}
.xAxis{stroke:black;stroke-width:1;}
.yAxis{stroke:black;stroke-width:1;}
.xLegends{
    text-anchor:middle;
    font-size:12px;
}
.yLegends{
    text-anchor:end;
    dominant-baseline:middle;
    font-size:12px;
}
.meanLine{
    stroke:black;
    stroke-dasharray:5,20;
}
]]></style>
<rect width="100%" height="100%" fill="moccasin" />
<text x="25" y="37" class="title">Father - age at child birth</text>
<line x1="70" y1="302" x2="546" y2="302" class="xAxis" />
<line x1="70" y1="52" x2="70" y2="302" class="yAxis" />
<g><title>14: 2</title><line x1="70" y1="302" x2="70" y2="302" class="bl" /></g>
<g><title>15: 7</title><line x1="79" y1="302" x2="79" y2="302" class="bl" /></g>
<g><title>16: 40</title><line x1="88" y1="302" x2="88" y2="301.8" class="bl" /></g>
<g><title>17: 220</title><line x1="97" y1="302" x2="97" y2="300.9" class="bl" /></g>
<g><title>18: 721</title><line x1="106" y1="302" x2="106" y2="298.3" class="bl" /></g>
<g><title>19: 1898</title><line x1="115" y1="302" x2="115" y2="292.3" class="bl" /></g>
<g><title>20: 3828</title><line x1="124" y1="302" x2="124" y2="282.5" class="bl" /></g>
<g><title>21: 6111</title><line x1="133" y1="302" x2="133" y2="270.9" class="bl" /></g>
<g><title>22: 8527</title><line x1="142" y1="302" x2="142" y2="258.6" class="bl" /></g>
<g><title>23: 10857</title><line x1="151" y1="302" x2="151" y2="246.7" class="bl" /></g>
<g><title>24: 13546</title><line x1="160" y1="302" x2="160" y2="233" class="bl" /></g>
<g><title>25: 18961</title><line x1="169" y1="302" x2="169" y2="205.4" class="bl" /></g>
<g><title>26: 26596</title><line x1="178" y1="302" x2="178" y2="166.5" class="bl" /></g>
<g><title>27: 34982</title><line x1="187" y1="302" x2="187" y2="123.8" class="bl" /></g>
<g><title>28: 43037</title><line x1="196" y1="302" x2="196" y2="82.8" class="bl" /></g>
<g><title>29: 47223</title><line x1="205" y1="302" x2="205" y2="61.5" class="bl" /></g>
<g><title>30: 49086</title><line x1="214" y1="302" x2="214" y2="52" class="bl" /></g>
<g><title>31: 47012</title><line x1="223" y1="302" x2="223" y2="62.6" class="bl" /></g>
<g><title>32: 43501</title><line x1="232" y1="302" x2="232" y2="80.4" class="bl" /></g>
<g><title>33: 39806</title><line x1="241" y1="302" x2="241" y2="99.3" class="bl" /></g>
<g><title>34: 35586</title><line x1="250" y1="302" x2="250" y2="120.8" class="bl" /></g>
<g><title>35: 31592</title><line x1="259" y1="302" x2="259" y2="141.1" class="bl" /></g>
<g><title>36: 26649</title><line x1="268" y1="302" x2="268" y2="166.3" class="bl" /></g>
<g><title>37: 22028</title><line x1="277" y1="302" x2="277" y2="189.8" class="bl" /></g>
<g><title>38: 17620</title><line x1="286" y1="302" x2="286" y2="212.3" class="bl" /></g>
<g><title>39: 14265</title><line x1="295" y1="302" x2="295" y2="229.4" class="bl" /></g>
<g><title>40: 11118</title><line x1="304" y1="302" x2="304" y2="245.4" class="bl" /></g>
<g><title>41: 8682</title><line x1="313" y1="302" x2="313" y2="257.8" class="bl" /></g>
<g><title>42: 6656</title><line x1="322" y1="302" x2="322" y2="268.1" class="bl" /></g>
<g><title>43: 5049</title><line x1="331" y1="302" x2="331" y2="276.3" class="bl" /></g>
<g><title>44: 3809</title><line x1="340" y1="302" x2="340" y2="282.6" class="bl" /></g>
<g><title>45: 2885</title><line x1="349" y1="302" x2="349" y2="287.3" class="bl" /></g>
<g><title>46: 2246</title><line x1="358" y1="302" x2="358" y2="290.6" class="bl" /></g>
<g><title>47: 1718</title><line x1="367" y1="302" x2="367" y2="293.3" class="bl" /></g>
<g><title>48: 1281</title><line x1="376" y1="302" x2="376" y2="295.5" class="bl" /></g>
<g><title>49: 1048</title><line x1="385" y1="302" x2="385" y2="296.7" class="bl" /></g>
<g><title>50: 925</title><line x1="394" y1="302" x2="394" y2="297.3" class="bl" /></g>
<g><title>51: 688</title><line x1="403" y1="302" x2="403" y2="298.5" class="bl" /></g>
<g><title>52: 545</title><line x1="412" y1="302" x2="412" y2="299.2" class="bl" /></g>
<g><title>53: 436</title><line x1="421" y1="302" x2="421" y2="299.8" class="bl" /></g>
<g><title>54: 332</title><line x1="430" y1="302" x2="430" y2="300.3" class="bl" /></g>
<g><title>55: 226</title><line x1="439" y1="302" x2="439" y2="300.9" class="bl" /></g>
<g><title>56: 169</title><line x1="448" y1="302" x2="448" y2="301.1" class="bl" /></g>
<g><title>57: 122</title><line x1="457" y1="302" x2="457" y2="301.4" class="bl" /></g>
<g><title>58: 72</title><line x1="466" y1="302" x2="466" y2="301.6" class="bl" /></g>
<g><title>59: 60</title><line x1="475" y1="302" x2="475" y2="301.7" class="bl" /></g>
<g><title>60: 49</title><line x1="484" y1="302" x2="484" y2="301.8" class="bl" /></g>
<g><title>61: 29</title><line x1="493" y1="302" x2="493" y2="301.9" class="bl" /></g>
<g><title>62: 29</title><line x1="502" y1="302" x2="502" y2="301.9" class="bl" /></g>
<g><title>63: 21</title><line x1="511" y1="302" x2="511" y2="301.9" class="bl" /></g>
<g><title>64: 24</title><line x1="520" y1="302" x2="520" y2="301.9" class="bl" /></g>
<g><title>65: 14</title><line x1="529" y1="302" x2="529" y2="301.9" class="bl" /></g>
<g><title>66: 2</title><line x1="538" y1="302" x2="538" y2="302" class="bl" /></g>
<text x="70" y="319" class="xLegends">14</text>
<text x="546" y="319" class="xLegends">66</text>
<text x="213" y="319" class="xLegends">30</text>
<text x="55" y="302" class="yLegends">2</text>
<text x="55" y="52" class="yLegends">49086</text>
<text x="55" y="245" class="yLegends">11168.6</text>
<g fill="none"><path class="meanLine" d="M70 245 H546 245 Z" /></g></svg>
