<?xml version="1.0" encoding="UTF-8" standalone="no"?>
<svg
    xmlns:dc="http://purl.org/dc/elements/1.1/"
    xmlns:cc="http://creativecommons.org/ns#"
    xmlns:rdf="http://www.w3.org/1999/02/22-rdf-syntax-ns#"
    xmlns:svg="http://www.w3.org/2000/svg"
    xmlns="http://www.w3.org/2000/svg"
    width="1174"
    height="334"    
>
<style type="text/css"><![CDATA[
.bl { /* bar line */
    stroke:slategray;
    stroke-width:2;
}
.title{
    text-anchor:left;
    font-weight:bold;
    font-size:22px;
}
.xAxis{stroke:black;stroke-width:1;}
.yAxis{stroke:black;stroke-width:1;}
.xLegends{
    text-anchor:middle;
    font-size:12px;
}
.yLegends{
    text-anchor:end;
    dominant-baseline:middle;
    font-size:12px;
}
.meanLine{
    stroke:black;
    stroke-dasharray:5,20;
}
]]></style>
<rect width="100%" height="100%" fill="moccasin" />
<text x="25" y="37" class="title">Mother Mars / Father Venus inter-aspects</text>
<line x1="70" y1="302" x2="1149" y2="302" class="xAxis" />
<line x1="70" y1="52" x2="70" y2="302" class="yAxis" />
<g><title>0: 1676</title><line x1="70" y1="302" x2="70" y2="164.4" class="bl" /></g>
<g><title>1: 1744</title><line x1="73" y1="302" x2="73" y2="100.7" class="bl" /></g>
<g><title>2: 1667</title><line x1="76" y1="302" x2="76" y2="172.8" class="bl" /></g>
<g><title>3: 1574</title><line x1="79" y1="302" x2="79" y2="259.9" class="bl" /></g>
<g><title>4: 1691</title><line x1="82" y1="302" x2="82" y2="150.3" class="bl" /></g>
<g><title>5: 1682</title><line x1="85" y1="302" x2="85" y2="158.7" class="bl" /></g>
<g><title>6: 1652</title><line x1="88" y1="302" x2="88" y2="186.8" class="bl" /></g>
<g><title>7: 1622</title><line x1="91" y1="302" x2="91" y2="214.9" class="bl" /></g>
<g><title>8: 1658</title><line x1="94" y1="302" x2="94" y2="181.2" class="bl" /></g>
<g><title>9: 1672</title><line x1="97" y1="302" x2="97" y2="168.1" class="bl" /></g>
<g><title>10: 1663</title><line x1="100" y1="302" x2="100" y2="176.5" class="bl" /></g>
<g><title>11: 1656</title><line x1="103" y1="302" x2="103" y2="183.1" class="bl" /></g>
<g><title>12: 1640</title><line x1="106" y1="302" x2="106" y2="198.1" class="bl" /></g>
<g><title>13: 1654</title><line x1="109" y1="302" x2="109" y2="185" class="bl" /></g>
<g><title>14: 1653</title><line x1="112" y1="302" x2="112" y2="185.9" class="bl" /></g>
<g><title>15: 1710</title><line x1="115" y1="302" x2="115" y2="132.5" class="bl" /></g>
<g><title>16: 1666</title><line x1="118" y1="302" x2="118" y2="173.7" class="bl" /></g>
<g><title>17: 1644</title><line x1="121" y1="302" x2="121" y2="194.3" class="bl" /></g>
<g><title>18: 1633</title><line x1="124" y1="302" x2="124" y2="204.6" class="bl" /></g>
<g><title>19: 1671</title><line x1="127" y1="302" x2="127" y2="169" class="bl" /></g>
<g><title>20: 1693</title><line x1="130" y1="302" x2="130" y2="148.4" class="bl" /></g>
<g><title>21: 1640</title><line x1="133" y1="302" x2="133" y2="198.1" class="bl" /></g>
<g><title>22: 1710</title><line x1="136" y1="302" x2="136" y2="132.5" class="bl" /></g>
<g><title>23: 1624</title><line x1="139" y1="302" x2="139" y2="213" class="bl" /></g>
<g><title>24: 1635</title><line x1="142" y1="302" x2="142" y2="202.7" class="bl" /></g>
<g><title>25: 1609</title><line x1="145" y1="302" x2="145" y2="227.1" class="bl" /></g>
<g><title>26: 1608</title><line x1="148" y1="302" x2="148" y2="228" class="bl" /></g>
<g><title>27: 1596</title><line x1="151" y1="302" x2="151" y2="239.3" class="bl" /></g>
<g><title>28: 1619</title><line x1="154" y1="302" x2="154" y2="217.7" class="bl" /></g>
<g><title>29: 1623</title><line x1="157" y1="302" x2="157" y2="214" class="bl" /></g>
<g><title>30: 1598</title><line x1="160" y1="302" x2="160" y2="237.4" class="bl" /></g>
<g><title>31: 1632</title><line x1="163" y1="302" x2="163" y2="205.6" class="bl" /></g>
<g><title>32: 1651</title><line x1="166" y1="302" x2="166" y2="187.8" class="bl" /></g>
<g><title>33: 1575</title><line x1="169" y1="302" x2="169" y2="258.9" class="bl" /></g>
<g><title>34: 1638</title><line x1="172" y1="302" x2="172" y2="199.9" class="bl" /></g>
<g><title>35: 1593</title><line x1="175" y1="302" x2="175" y2="242.1" class="bl" /></g>
<g><title>36: 1638</title><line x1="178" y1="302" x2="178" y2="199.9" class="bl" /></g>
<g><title>37: 1614</title><line x1="181" y1="302" x2="181" y2="222.4" class="bl" /></g>
<g><title>38: 1620</title><line x1="184" y1="302" x2="184" y2="216.8" class="bl" /></g>
<g><title>39: 1672</title><line x1="187" y1="302" x2="187" y2="168.1" class="bl" /></g>
<g><title>40: 1561</title><line x1="190" y1="302" x2="190" y2="272" class="bl" /></g>
<g><title>41: 1627</title><line x1="193" y1="302" x2="193" y2="210.2" class="bl" /></g>
<g><title>42: 1623</title><line x1="196" y1="302" x2="196" y2="214" class="bl" /></g>
<g><title>43: 1594</title><line x1="199" y1="302" x2="199" y2="241.1" class="bl" /></g>
<g><title>44: 1586</title><line x1="202" y1="302" x2="202" y2="248.6" class="bl" /></g>
<g><title>45: 1576</title><line x1="205" y1="302" x2="205" y2="258" class="bl" /></g>
<g><title>46: 1630</title><line x1="208" y1="302" x2="208" y2="207.4" class="bl" /></g>
<g><title>47: 1654</title><line x1="211" y1="302" x2="211" y2="185" class="bl" /></g>
<g><title>48: 1675</title><line x1="214" y1="302" x2="214" y2="165.3" class="bl" /></g>
<g><title>49: 1564</title><line x1="217" y1="302" x2="217" y2="269.2" class="bl" /></g>
<g><title>50: 1587</title><line x1="220" y1="302" x2="220" y2="247.7" class="bl" /></g>
<g><title>51: 1570</title><line x1="223" y1="302" x2="223" y2="263.6" class="bl" /></g>
<g><title>52: 1644</title><line x1="226" y1="302" x2="226" y2="194.3" class="bl" /></g>
<g><title>53: 1587</title><line x1="229" y1="302" x2="229" y2="247.7" class="bl" /></g>
<g><title>54: 1651</title><line x1="232" y1="302" x2="232" y2="187.8" class="bl" /></g>
<g><title>55: 1670</title><line x1="235" y1="302" x2="235" y2="170" class="bl" /></g>
<g><title>56: 1632</title><line x1="238" y1="302" x2="238" y2="205.6" class="bl" /></g>
<g><title>57: 1662</title><line x1="241" y1="302" x2="241" y2="177.5" class="bl" /></g>
<g><title>58: 1693</title><line x1="244" y1="302" x2="244" y2="148.4" class="bl" /></g>
<g><title>59: 1672</title><line x1="247" y1="302" x2="247" y2="168.1" class="bl" /></g>
<g><title>60: 1575</title><line x1="250" y1="302" x2="250" y2="258.9" class="bl" /></g>
<g><title>61: 1653</title><line x1="253" y1="302" x2="253" y2="185.9" class="bl" /></g>
<g><title>62: 1643</title><line x1="256" y1="302" x2="256" y2="195.3" class="bl" /></g>
<g><title>63: 1626</title><line x1="259" y1="302" x2="259" y2="211.2" class="bl" /></g>
<g><title>64: 1625</title><line x1="262" y1="302" x2="262" y2="212.1" class="bl" /></g>
<g><title>65: 1591</title><line x1="265" y1="302" x2="265" y2="243.9" class="bl" /></g>
<g><title>66: 1640</title><line x1="268" y1="302" x2="268" y2="198.1" class="bl" /></g>
<g><title>67: 1660</title><line x1="271" y1="302" x2="271" y2="179.3" class="bl" /></g>
<g><title>68: 1673</title><line x1="274" y1="302" x2="274" y2="167.2" class="bl" /></g>
<g><title>69: 1639</title><line x1="277" y1="302" x2="277" y2="199" class="bl" /></g>
<g><title>70: 1655</title><line x1="280" y1="302" x2="280" y2="184" class="bl" /></g>
<g><title>71: 1605</title><line x1="283" y1="302" x2="283" y2="230.8" class="bl" /></g>
<g><title>72: 1660</title><line x1="286" y1="302" x2="286" y2="179.3" class="bl" /></g>
<g><title>73: 1693</title><line x1="289" y1="302" x2="289" y2="148.4" class="bl" /></g>
<g><title>74: 1665</title><line x1="292" y1="302" x2="292" y2="174.7" class="bl" /></g>
<g><title>75: 1757</title><line x1="295" y1="302" x2="295" y2="88.5" class="bl" /></g>
<g><title>76: 1629</title><line x1="298" y1="302" x2="298" y2="208.4" class="bl" /></g>
<g><title>77: 1671</title><line x1="301" y1="302" x2="301" y2="169" class="bl" /></g>
<g><title>78: 1706</title><line x1="304" y1="302" x2="304" y2="136.3" class="bl" /></g>
<g><title>79: 1693</title><line x1="307" y1="302" x2="307" y2="148.4" class="bl" /></g>
<g><title>80: 1649</title><line x1="310" y1="302" x2="310" y2="189.6" class="bl" /></g>
<g><title>81: 1603</title><line x1="313" y1="302" x2="313" y2="232.7" class="bl" /></g>
<g><title>82: 1662</title><line x1="316" y1="302" x2="316" y2="177.5" class="bl" /></g>
<g><title>83: 1657</title><line x1="319" y1="302" x2="319" y2="182.1" class="bl" /></g>
<g><title>84: 1796</title><line x1="322" y1="302" x2="322" y2="52" class="bl" /></g>
<g><title>85: 1709</title><line x1="325" y1="302" x2="325" y2="133.5" class="bl" /></g>
<g><title>86: 1701</title><line x1="328" y1="302" x2="328" y2="141" class="bl" /></g>
<g><title>87: 1755</title><line x1="331" y1="302" x2="331" y2="90.4" class="bl" /></g>
<g><title>88: 1721</title><line x1="334" y1="302" x2="334" y2="122.2" class="bl" /></g>
<g><title>89: 1722</title><line x1="337" y1="302" x2="337" y2="121.3" class="bl" /></g>
<g><title>90: 1736</title><line x1="340" y1="302" x2="340" y2="108.2" class="bl" /></g>
<g><title>91: 1717</title><line x1="343" y1="302" x2="343" y2="126" class="bl" /></g>
<g><title>92: 1702</title><line x1="346" y1="302" x2="346" y2="140" class="bl" /></g>
<g><title>93: 1712</title><line x1="349" y1="302" x2="349" y2="130.7" class="bl" /></g>
<g><title>94: 1639</title><line x1="352" y1="302" x2="352" y2="199" class="bl" /></g>
<g><title>95: 1649</title><line x1="355" y1="302" x2="355" y2="189.6" class="bl" /></g>
<g><title>96: 1706</title><line x1="358" y1="302" x2="358" y2="136.3" class="bl" /></g>
<g><title>97: 1742</title><line x1="361" y1="302" x2="361" y2="102.6" class="bl" /></g>
<g><title>98: 1727</title><line x1="364" y1="302" x2="364" y2="116.6" class="bl" /></g>
<g><title>99: 1678</title><line x1="367" y1="302" x2="367" y2="162.5" class="bl" /></g>
<g><title>100: 1651</title><line x1="370" y1="302" x2="370" y2="187.8" class="bl" /></g>
<g><title>101: 1698</title><line x1="373" y1="302" x2="373" y2="143.8" class="bl" /></g>
<g><title>102: 1654</title><line x1="376" y1="302" x2="376" y2="185" class="bl" /></g>
<g><title>103: 1738</title><line x1="379" y1="302" x2="379" y2="106.3" class="bl" /></g>
<g><title>104: 1691</title><line x1="382" y1="302" x2="382" y2="150.3" class="bl" /></g>
<g><title>105: 1672</title><line x1="385" y1="302" x2="385" y2="168.1" class="bl" /></g>
<g><title>106: 1565</title><line x1="388" y1="302" x2="388" y2="268.3" class="bl" /></g>
<g><title>107: 1593</title><line x1="391" y1="302" x2="391" y2="242.1" class="bl" /></g>
<g><title>108: 1776</title><line x1="394" y1="302" x2="394" y2="70.7" class="bl" /></g>
<g><title>109: 1610</title><line x1="397" y1="302" x2="397" y2="226.2" class="bl" /></g>
<g><title>110: 1583</title><line x1="400" y1="302" x2="400" y2="251.4" class="bl" /></g>
<g><title>111: 1623</title><line x1="403" y1="302" x2="403" y2="214" class="bl" /></g>
<g><title>112: 1605</title><line x1="406" y1="302" x2="406" y2="230.8" class="bl" /></g>
<g><title>113: 1660</title><line x1="409" y1="302" x2="409" y2="179.3" class="bl" /></g>
<g><title>114: 1617</title><line x1="412" y1="302" x2="412" y2="219.6" class="bl" /></g>
<g><title>115: 1689</title><line x1="415" y1="302" x2="415" y2="152.2" class="bl" /></g>
<g><title>116: 1645</title><line x1="418" y1="302" x2="418" y2="193.4" class="bl" /></g>
<g><title>117: 1623</title><line x1="421" y1="302" x2="421" y2="214" class="bl" /></g>
<g><title>118: 1624</title><line x1="424" y1="302" x2="424" y2="213" class="bl" /></g>
<g><title>119: 1634</title><line x1="427" y1="302" x2="427" y2="203.7" class="bl" /></g>
<g><title>120: 1648</title><line x1="430" y1="302" x2="430" y2="190.6" class="bl" /></g>
<g><title>121: 1572</title><line x1="433" y1="302" x2="433" y2="261.7" class="bl" /></g>
<g><title>122: 1583</title><line x1="436" y1="302" x2="436" y2="251.4" class="bl" /></g>
<g><title>123: 1680</title><line x1="439" y1="302" x2="439" y2="160.6" class="bl" /></g>
<g><title>124: 1568</title><line x1="442" y1="302" x2="442" y2="265.5" class="bl" /></g>
<g><title>125: 1640</title><line x1="445" y1="302" x2="445" y2="198.1" class="bl" /></g>
<g><title>126: 1582</title><line x1="448" y1="302" x2="448" y2="252.4" class="bl" /></g>
<g><title>127: 1664</title><line x1="451" y1="302" x2="451" y2="175.6" class="bl" /></g>
<g><title>128: 1668</title><line x1="454" y1="302" x2="454" y2="171.9" class="bl" /></g>
<g><title>129: 1598</title><line x1="457" y1="302" x2="457" y2="237.4" class="bl" /></g>
<g><title>130: 1599</title><line x1="460" y1="302" x2="460" y2="236.5" class="bl" /></g>
<g><title>131: 1627</title><line x1="463" y1="302" x2="463" y2="210.2" class="bl" /></g>
<g><title>132: 1633</title><line x1="466" y1="302" x2="466" y2="204.6" class="bl" /></g>
<g><title>133: 1645</title><line x1="469" y1="302" x2="469" y2="193.4" class="bl" /></g>
<g><title>134: 1636</title><line x1="472" y1="302" x2="472" y2="201.8" class="bl" /></g>
<g><title>135: 1590</title><line x1="475" y1="302" x2="475" y2="244.9" class="bl" /></g>
<g><title>136: 1640</title><line x1="478" y1="302" x2="478" y2="198.1" class="bl" /></g>
<g><title>137: 1597</title><line x1="481" y1="302" x2="481" y2="238.3" class="bl" /></g>
<g><title>138: 1628</title><line x1="484" y1="302" x2="484" y2="209.3" class="bl" /></g>
<g><title>139: 1574</title><line x1="487" y1="302" x2="487" y2="259.9" class="bl" /></g>
<g><title>140: 1625</title><line x1="490" y1="302" x2="490" y2="212.1" class="bl" /></g>
<g><title>141: 1637</title><line x1="493" y1="302" x2="493" y2="200.9" class="bl" /></g>
<g><title>142: 1626</title><line x1="496" y1="302" x2="496" y2="211.2" class="bl" /></g>
<g><title>143: 1637</title><line x1="499" y1="302" x2="499" y2="200.9" class="bl" /></g>
<g><title>144: 1661</title><line x1="502" y1="302" x2="502" y2="178.4" class="bl" /></g>
<g><title>145: 1620</title><line x1="505" y1="302" x2="505" y2="216.8" class="bl" /></g>
<g><title>146: 1604</title><line x1="508" y1="302" x2="508" y2="231.8" class="bl" /></g>
<g><title>147: 1651</title><line x1="511" y1="302" x2="511" y2="187.8" class="bl" /></g>
<g><title>148: 1593</title><line x1="514" y1="302" x2="514" y2="242.1" class="bl" /></g>
<g><title>149: 1679</title><line x1="517" y1="302" x2="517" y2="161.6" class="bl" /></g>
<g><title>150: 1636</title><line x1="520" y1="302" x2="520" y2="201.8" class="bl" /></g>
<g><title>151: 1731</title><line x1="523" y1="302" x2="523" y2="112.9" class="bl" /></g>
<g><title>152: 1697</title><line x1="526" y1="302" x2="526" y2="144.7" class="bl" /></g>
<g><title>153: 1628</title><line x1="529" y1="302" x2="529" y2="209.3" class="bl" /></g>
<g><title>154: 1655</title><line x1="532" y1="302" x2="532" y2="184" class="bl" /></g>
<g><title>155: 1721</title><line x1="535" y1="302" x2="535" y2="122.2" class="bl" /></g>
<g><title>156: 1650</title><line x1="538" y1="302" x2="538" y2="188.7" class="bl" /></g>
<g><title>157: 1702</title><line x1="541" y1="302" x2="541" y2="140" class="bl" /></g>
<g><title>158: 1679</title><line x1="544" y1="302" x2="544" y2="161.6" class="bl" /></g>
<g><title>159: 1675</title><line x1="547" y1="302" x2="547" y2="165.3" class="bl" /></g>
<g><title>160: 1623</title><line x1="550" y1="302" x2="550" y2="214" class="bl" /></g>
<g><title>161: 1646</title><line x1="553" y1="302" x2="553" y2="192.4" class="bl" /></g>
<g><title>162: 1651</title><line x1="556" y1="302" x2="556" y2="187.8" class="bl" /></g>
<g><title>163: 1613</title><line x1="559" y1="302" x2="559" y2="223.3" class="bl" /></g>
<g><title>164: 1672</title><line x1="562" y1="302" x2="562" y2="168.1" class="bl" /></g>
<g><title>165: 1638</title><line x1="565" y1="302" x2="565" y2="199.9" class="bl" /></g>
<g><title>166: 1689</title><line x1="568" y1="302" x2="568" y2="152.2" class="bl" /></g>
<g><title>167: 1718</title><line x1="571" y1="302" x2="571" y2="125" class="bl" /></g>
<g><title>168: 1600</title><line x1="574" y1="302" x2="574" y2="235.5" class="bl" /></g>
<g><title>169: 1584</title><line x1="577" y1="302" x2="577" y2="250.5" class="bl" /></g>
<g><title>170: 1680</title><line x1="580" y1="302" x2="580" y2="160.6" class="bl" /></g>
<g><title>171: 1691</title><line x1="583" y1="302" x2="583" y2="150.3" class="bl" /></g>
<g><title>172: 1680</title><line x1="586" y1="302" x2="586" y2="160.6" class="bl" /></g>
<g><title>173: 1662</title><line x1="589" y1="302" x2="589" y2="177.5" class="bl" /></g>
<g><title>174: 1632</title><line x1="592" y1="302" x2="592" y2="205.6" class="bl" /></g>
<g><title>175: 1660</title><line x1="595" y1="302" x2="595" y2="179.3" class="bl" /></g>
<g><title>176: 1619</title><line x1="598" y1="302" x2="598" y2="217.7" class="bl" /></g>
<g><title>177: 1705</title><line x1="601" y1="302" x2="601" y2="137.2" class="bl" /></g>
<g><title>178: 1645</title><line x1="604" y1="302" x2="604" y2="193.4" class="bl" /></g>
<g><title>179: 1565</title><line x1="607" y1="302" x2="607" y2="268.3" class="bl" /></g>
<g><title>180: 1565</title><line x1="610" y1="302" x2="610" y2="268.3" class="bl" /></g>
<g><title>181: 1620</title><line x1="613" y1="302" x2="613" y2="216.8" class="bl" /></g>
<g><title>182: 1570</title><line x1="616" y1="302" x2="616" y2="263.6" class="bl" /></g>
<g><title>183: 1626</title><line x1="619" y1="302" x2="619" y2="211.2" class="bl" /></g>
<g><title>184: 1673</title><line x1="622" y1="302" x2="622" y2="167.2" class="bl" /></g>
<g><title>185: 1543</title><line x1="625" y1="302" x2="625" y2="288.9" class="bl" /></g>
<g><title>186: 1577</title><line x1="628" y1="302" x2="628" y2="257.1" class="bl" /></g>
<g><title>187: 1596</title><line x1="631" y1="302" x2="631" y2="239.3" class="bl" /></g>
<g><title>188: 1650</title><line x1="634" y1="302" x2="634" y2="188.7" class="bl" /></g>
<g><title>189: 1611</title><line x1="637" y1="302" x2="637" y2="225.2" class="bl" /></g>
<g><title>190: 1560</title><line x1="640" y1="302" x2="640" y2="273" class="bl" /></g>
<g><title>191: 1587</title><line x1="643" y1="302" x2="643" y2="247.7" class="bl" /></g>
<g><title>192: 1568</title><line x1="646" y1="302" x2="646" y2="265.5" class="bl" /></g>
<g><title>193: 1666</title><line x1="649" y1="302" x2="649" y2="173.7" class="bl" /></g>
<g><title>194: 1578</title><line x1="652" y1="302" x2="652" y2="256.1" class="bl" /></g>
<g><title>195: 1620</title><line x1="655" y1="302" x2="655" y2="216.8" class="bl" /></g>
<g><title>196: 1586</title><line x1="658" y1="302" x2="658" y2="248.6" class="bl" /></g>
<g><title>197: 1603</title><line x1="661" y1="302" x2="661" y2="232.7" class="bl" /></g>
<g><title>198: 1529</title><line x1="664" y1="302" x2="664" y2="302" class="bl" /></g>
<g><title>199: 1761</title><line x1="667" y1="302" x2="667" y2="84.8" class="bl" /></g>
<g><title>200: 1568</title><line x1="670" y1="302" x2="670" y2="265.5" class="bl" /></g>
<g><title>201: 1617</title><line x1="673" y1="302" x2="673" y2="219.6" class="bl" /></g>
<g><title>202: 1574</title><line x1="676" y1="302" x2="676" y2="259.9" class="bl" /></g>
<g><title>203: 1552</title><line x1="679" y1="302" x2="679" y2="280.5" class="bl" /></g>
<g><title>204: 1563</title><line x1="682" y1="302" x2="682" y2="270.2" class="bl" /></g>
<g><title>205: 1560</title><line x1="685" y1="302" x2="685" y2="273" class="bl" /></g>
<g><title>206: 1583</title><line x1="688" y1="302" x2="688" y2="251.4" class="bl" /></g>
<g><title>207: 1635</title><line x1="691" y1="302" x2="691" y2="202.7" class="bl" /></g>
<g><title>208: 1623</title><line x1="694" y1="302" x2="694" y2="214" class="bl" /></g>
<g><title>209: 1631</title><line x1="697" y1="302" x2="697" y2="206.5" class="bl" /></g>
<g><title>210: 1647</title><line x1="700" y1="302" x2="700" y2="191.5" class="bl" /></g>
<g><title>211: 1674</title><line x1="703" y1="302" x2="703" y2="166.2" class="bl" /></g>
<g><title>212: 1629</title><line x1="706" y1="302" x2="706" y2="208.4" class="bl" /></g>
<g><title>213: 1639</title><line x1="709" y1="302" x2="709" y2="199" class="bl" /></g>
<g><title>214: 1555</title><line x1="712" y1="302" x2="712" y2="277.7" class="bl" /></g>
<g><title>215: 1590</title><line x1="715" y1="302" x2="715" y2="244.9" class="bl" /></g>
<g><title>216: 1649</title><line x1="718" y1="302" x2="718" y2="189.6" class="bl" /></g>
<g><title>217: 1652</title><line x1="721" y1="302" x2="721" y2="186.8" class="bl" /></g>
<g><title>218: 1606</title><line x1="724" y1="302" x2="724" y2="229.9" class="bl" /></g>
<g><title>219: 1641</title><line x1="727" y1="302" x2="727" y2="197.1" class="bl" /></g>
<g><title>220: 1710</title><line x1="730" y1="302" x2="730" y2="132.5" class="bl" /></g>
<g><title>221: 1662</title><line x1="733" y1="302" x2="733" y2="177.5" class="bl" /></g>
<g><title>222: 1638</title><line x1="736" y1="302" x2="736" y2="199.9" class="bl" /></g>
<g><title>223: 1640</title><line x1="739" y1="302" x2="739" y2="198.1" class="bl" /></g>
<g><title>224: 1689</title><line x1="742" y1="302" x2="742" y2="152.2" class="bl" /></g>
<g><title>225: 1671</title><line x1="745" y1="302" x2="745" y2="169" class="bl" /></g>
<g><title>226: 1737</title><line x1="748" y1="302" x2="748" y2="107.2" class="bl" /></g>
<g><title>227: 1657</title><line x1="751" y1="302" x2="751" y2="182.1" class="bl" /></g>
<g><title>228: 1648</title><line x1="754" y1="302" x2="754" y2="190.6" class="bl" /></g>
<g><title>229: 1716</title><line x1="757" y1="302" x2="757" y2="126.9" class="bl" /></g>
<g><title>230: 1695</title><line x1="760" y1="302" x2="760" y2="146.6" class="bl" /></g>
<g><title>231: 1672</title><line x1="763" y1="302" x2="763" y2="168.1" class="bl" /></g>
<g><title>232: 1706</title><line x1="766" y1="302" x2="766" y2="136.3" class="bl" /></g>
<g><title>233: 1647</title><line x1="769" y1="302" x2="769" y2="191.5" class="bl" /></g>
<g><title>234: 1713</title><line x1="772" y1="302" x2="772" y2="129.7" class="bl" /></g>
<g><title>235: 1719</title><line x1="775" y1="302" x2="775" y2="124.1" class="bl" /></g>
<g><title>236: 1673</title><line x1="778" y1="302" x2="778" y2="167.2" class="bl" /></g>
<g><title>237: 1652</title><line x1="781" y1="302" x2="781" y2="186.8" class="bl" /></g>
<g><title>238: 1678</title><line x1="784" y1="302" x2="784" y2="162.5" class="bl" /></g>
<g><title>239: 1695</title><line x1="787" y1="302" x2="787" y2="146.6" class="bl" /></g>
<g><title>240: 1586</title><line x1="790" y1="302" x2="790" y2="248.6" class="bl" /></g>
<g><title>241: 1664</title><line x1="793" y1="302" x2="793" y2="175.6" class="bl" /></g>
<g><title>242: 1615</title><line x1="796" y1="302" x2="796" y2="221.5" class="bl" /></g>
<g><title>243: 1618</title><line x1="799" y1="302" x2="799" y2="218.7" class="bl" /></g>
<g><title>244: 1624</title><line x1="802" y1="302" x2="802" y2="213" class="bl" /></g>
<g><title>245: 1532</title><line x1="805" y1="302" x2="805" y2="299.2" class="bl" /></g>
<g><title>246: 1656</title><line x1="808" y1="302" x2="808" y2="183.1" class="bl" /></g>
<g><title>247: 1638</title><line x1="811" y1="302" x2="811" y2="199.9" class="bl" /></g>
<g><title>248: 1656</title><line x1="814" y1="302" x2="814" y2="183.1" class="bl" /></g>
<g><title>249: 1625</title><line x1="817" y1="302" x2="817" y2="212.1" class="bl" /></g>
<g><title>250: 1693</title><line x1="820" y1="302" x2="820" y2="148.4" class="bl" /></g>
<g><title>251: 1635</title><line x1="823" y1="302" x2="823" y2="202.7" class="bl" /></g>
<g><title>252: 1587</title><line x1="826" y1="302" x2="826" y2="247.7" class="bl" /></g>
<g><title>253: 1612</title><line x1="829" y1="302" x2="829" y2="224.3" class="bl" /></g>
<g><title>254: 1663</title><line x1="832" y1="302" x2="832" y2="176.5" class="bl" /></g>
<g><title>255: 1579</title><line x1="835" y1="302" x2="835" y2="255.2" class="bl" /></g>
<g><title>256: 1571</title><line x1="838" y1="302" x2="838" y2="262.7" class="bl" /></g>
<g><title>257: 1666</title><line x1="841" y1="302" x2="841" y2="173.7" class="bl" /></g>
<g><title>258: 1640</title><line x1="844" y1="302" x2="844" y2="198.1" class="bl" /></g>
<g><title>259: 1557</title><line x1="847" y1="302" x2="847" y2="275.8" class="bl" /></g>
<g><title>260: 1608</title><line x1="850" y1="302" x2="850" y2="228" class="bl" /></g>
<g><title>261: 1643</title><line x1="853" y1="302" x2="853" y2="195.3" class="bl" /></g>
<g><title>262: 1595</title><line x1="856" y1="302" x2="856" y2="240.2" class="bl" /></g>
<g><title>263: 1684</title><line x1="859" y1="302" x2="859" y2="156.9" class="bl" /></g>
<g><title>264: 1626</title><line x1="862" y1="302" x2="862" y2="211.2" class="bl" /></g>
<g><title>265: 1590</title><line x1="865" y1="302" x2="865" y2="244.9" class="bl" /></g>
<g><title>266: 1677</title><line x1="868" y1="302" x2="868" y2="163.4" class="bl" /></g>
<g><title>267: 1592</title><line x1="871" y1="302" x2="871" y2="243" class="bl" /></g>
<g><title>268: 1676</title><line x1="874" y1="302" x2="874" y2="164.4" class="bl" /></g>
<g><title>269: 1627</title><line x1="877" y1="302" x2="877" y2="210.2" class="bl" /></g>
<g><title>270: 1634</title><line x1="880" y1="302" x2="880" y2="203.7" class="bl" /></g>
<g><title>271: 1636</title><line x1="883" y1="302" x2="883" y2="201.8" class="bl" /></g>
<g><title>272: 1596</title><line x1="886" y1="302" x2="886" y2="239.3" class="bl" /></g>
<g><title>273: 1603</title><line x1="889" y1="302" x2="889" y2="232.7" class="bl" /></g>
<g><title>274: 1644</title><line x1="892" y1="302" x2="892" y2="194.3" class="bl" /></g>
<g><title>275: 1546</title><line x1="895" y1="302" x2="895" y2="286.1" class="bl" /></g>
<g><title>276: 1576</title><line x1="898" y1="302" x2="898" y2="258" class="bl" /></g>
<g><title>277: 1641</title><line x1="901" y1="302" x2="901" y2="197.1" class="bl" /></g>
<g><title>278: 1617</title><line x1="904" y1="302" x2="904" y2="219.6" class="bl" /></g>
<g><title>279: 1662</title><line x1="907" y1="302" x2="907" y2="177.5" class="bl" /></g>
<g><title>280: 1590</title><line x1="910" y1="302" x2="910" y2="244.9" class="bl" /></g>
<g><title>281: 1668</title><line x1="913" y1="302" x2="913" y2="171.9" class="bl" /></g>
<g><title>282: 1638</title><line x1="916" y1="302" x2="916" y2="199.9" class="bl" /></g>
<g><title>283: 1669</title><line x1="919" y1="302" x2="919" y2="170.9" class="bl" /></g>
<g><title>284: 1654</title><line x1="922" y1="302" x2="922" y2="185" class="bl" /></g>
<g><title>285: 1632</title><line x1="925" y1="302" x2="925" y2="205.6" class="bl" /></g>
<g><title>286: 1639</title><line x1="928" y1="302" x2="928" y2="199" class="bl" /></g>
<g><title>287: 1707</title><line x1="931" y1="302" x2="931" y2="135.3" class="bl" /></g>
<g><title>288: 1669</title><line x1="934" y1="302" x2="934" y2="170.9" class="bl" /></g>
<g><title>289: 1687</title><line x1="937" y1="302" x2="937" y2="154.1" class="bl" /></g>
<g><title>290: 1715</title><line x1="940" y1="302" x2="940" y2="127.8" class="bl" /></g>
<g><title>291: 1741</title><line x1="943" y1="302" x2="943" y2="103.5" class="bl" /></g>
<g><title>292: 1726</title><line x1="946" y1="302" x2="946" y2="117.5" class="bl" /></g>
<g><title>293: 1709</title><line x1="949" y1="302" x2="949" y2="133.5" class="bl" /></g>
<g><title>294: 1672</title><line x1="952" y1="302" x2="952" y2="168.1" class="bl" /></g>
<g><title>295: 1735</title><line x1="955" y1="302" x2="955" y2="109.1" class="bl" /></g>
<g><title>296: 1748</title><line x1="958" y1="302" x2="958" y2="96.9" class="bl" /></g>
<g><title>297: 1720</title><line x1="961" y1="302" x2="961" y2="123.2" class="bl" /></g>
<g><title>298: 1747</title><line x1="964" y1="302" x2="964" y2="97.9" class="bl" /></g>
<g><title>299: 1754</title><line x1="967" y1="302" x2="967" y2="91.3" class="bl" /></g>
<g><title>300: 1698</title><line x1="970" y1="302" x2="970" y2="143.8" class="bl" /></g>
<g><title>301: 1775</title><line x1="973" y1="302" x2="973" y2="71.7" class="bl" /></g>
<g><title>302: 1675</title><line x1="976" y1="302" x2="976" y2="165.3" class="bl" /></g>
<g><title>303: 1719</title><line x1="979" y1="302" x2="979" y2="124.1" class="bl" /></g>
<g><title>304: 1714</title><line x1="982" y1="302" x2="982" y2="128.8" class="bl" /></g>
<g><title>305: 1669</title><line x1="985" y1="302" x2="985" y2="170.9" class="bl" /></g>
<g><title>306: 1655</title><line x1="988" y1="302" x2="988" y2="184" class="bl" /></g>
<g><title>307: 1664</title><line x1="991" y1="302" x2="991" y2="175.6" class="bl" /></g>
<g><title>308: 1607</title><line x1="994" y1="302" x2="994" y2="229" class="bl" /></g>
<g><title>309: 1694</title><line x1="997" y1="302" x2="997" y2="147.5" class="bl" /></g>
<g><title>310: 1645</title><line x1="1000" y1="302" x2="1000" y2="193.4" class="bl" /></g>
<g><title>311: 1643</title><line x1="1003" y1="302" x2="1003" y2="195.3" class="bl" /></g>
<g><title>312: 1735</title><line x1="1006" y1="302" x2="1006" y2="109.1" class="bl" /></g>
<g><title>313: 1796</title><line x1="1009" y1="302" x2="1009" y2="52" class="bl" /></g>
<g><title>314: 1653</title><line x1="1012" y1="302" x2="1012" y2="185.9" class="bl" /></g>
<g><title>315: 1676</title><line x1="1015" y1="302" x2="1015" y2="164.4" class="bl" /></g>
<g><title>316: 1674</title><line x1="1018" y1="302" x2="1018" y2="166.2" class="bl" /></g>
<g><title>317: 1637</title><line x1="1021" y1="302" x2="1021" y2="200.9" class="bl" /></g>
<g><title>318: 1681</title><line x1="1024" y1="302" x2="1024" y2="159.7" class="bl" /></g>
<g><title>319: 1612</title><line x1="1027" y1="302" x2="1027" y2="224.3" class="bl" /></g>
<g><title>320: 1726</title><line x1="1030" y1="302" x2="1030" y2="117.5" class="bl" /></g>
<g><title>321: 1561</title><line x1="1033" y1="302" x2="1033" y2="272" class="bl" /></g>
<g><title>322: 1564</title><line x1="1036" y1="302" x2="1036" y2="269.2" class="bl" /></g>
<g><title>323: 1658</title><line x1="1039" y1="302" x2="1039" y2="181.2" class="bl" /></g>
<g><title>324: 1590</title><line x1="1042" y1="302" x2="1042" y2="244.9" class="bl" /></g>
<g><title>325: 1602</title><line x1="1045" y1="302" x2="1045" y2="233.6" class="bl" /></g>
<g><title>326: 1612</title><line x1="1048" y1="302" x2="1048" y2="224.3" class="bl" /></g>
<g><title>327: 1533</title><line x1="1051" y1="302" x2="1051" y2="298.3" class="bl" /></g>
<g><title>328: 1609</title><line x1="1054" y1="302" x2="1054" y2="227.1" class="bl" /></g>
<g><title>329: 1560</title><line x1="1057" y1="302" x2="1057" y2="273" class="bl" /></g>
<g><title>330: 1620</title><line x1="1060" y1="302" x2="1060" y2="216.8" class="bl" /></g>
<g><title>331: 1604</title><line x1="1063" y1="302" x2="1063" y2="231.8" class="bl" /></g>
<g><title>332: 1707</title><line x1="1066" y1="302" x2="1066" y2="135.3" class="bl" /></g>
<g><title>333: 1539</title><line x1="1069" y1="302" x2="1069" y2="292.6" class="bl" /></g>
<g><title>334: 1666</title><line x1="1072" y1="302" x2="1072" y2="173.7" class="bl" /></g>
<g><title>335: 1678</title><line x1="1075" y1="302" x2="1075" y2="162.5" class="bl" /></g>
<g><title>336: 1677</title><line x1="1078" y1="302" x2="1078" y2="163.4" class="bl" /></g>
<g><title>337: 1636</title><line x1="1081" y1="302" x2="1081" y2="201.8" class="bl" /></g>
<g><title>338: 1649</title><line x1="1084" y1="302" x2="1084" y2="189.6" class="bl" /></g>
<g><title>339: 1628</title><line x1="1087" y1="302" x2="1087" y2="209.3" class="bl" /></g>
<g><title>340: 1696</title><line x1="1090" y1="302" x2="1090" y2="145.6" class="bl" /></g>
<g><title>341: 1635</title><line x1="1093" y1="302" x2="1093" y2="202.7" class="bl" /></g>
<g><title>342: 1617</title><line x1="1096" y1="302" x2="1096" y2="219.6" class="bl" /></g>
<g><title>343: 1691</title><line x1="1099" y1="302" x2="1099" y2="150.3" class="bl" /></g>
<g><title>344: 1675</title><line x1="1102" y1="302" x2="1102" y2="165.3" class="bl" /></g>
<g><title>345: 1610</title><line x1="1105" y1="302" x2="1105" y2="226.2" class="bl" /></g>
<g><title>346: 1633</title><line x1="1108" y1="302" x2="1108" y2="204.6" class="bl" /></g>
<g><title>347: 1636</title><line x1="1111" y1="302" x2="1111" y2="201.8" class="bl" /></g>
<g><title>348: 1647</title><line x1="1114" y1="302" x2="1114" y2="191.5" class="bl" /></g>
<g><title>349: 1627</title><line x1="1117" y1="302" x2="1117" y2="210.2" class="bl" /></g>
<g><title>350: 1669</title><line x1="1120" y1="302" x2="1120" y2="170.9" class="bl" /></g>
<g><title>351: 1594</title><line x1="1123" y1="302" x2="1123" y2="241.1" class="bl" /></g>
<g><title>352: 1571</title><line x1="1126" y1="302" x2="1126" y2="262.7" class="bl" /></g>
<g><title>353: 1598</title><line x1="1129" y1="302" x2="1129" y2="237.4" class="bl" /></g>
<g><title>354: 1592</title><line x1="1132" y1="302" x2="1132" y2="243" class="bl" /></g>
<g><title>355: 1559</title><line x1="1135" y1="302" x2="1135" y2="273.9" class="bl" /></g>
<g><title>356: 1654</title><line x1="1138" y1="302" x2="1138" y2="185" class="bl" /></g>
<g><title>357: 1596</title><line x1="1141" y1="302" x2="1141" y2="239.3" class="bl" /></g>
<g><title>358: 1654</title><line x1="1144" y1="302" x2="1144" y2="185" class="bl" /></g>
<g><title>359: 1617</title><line x1="1147" y1="302" x2="1147" y2="219.6" class="bl" /></g>
<text x="70" y="319" class="xLegends">0</text>
<text x="1149" y="319" class="xLegends">359</text>
<text x="55" y="302" class="yLegends">1529</text>
<text x="55" y="52" class="yLegends">1796</text>
<text x="55" y="194" class="yLegends">1644.3</text>
<g fill="none"><path class="meanLine" d="M70 194 H1149 194 Z" /></g></svg>
