<?xml version="1.0" encoding="UTF-8" standalone="no"?>
<svg
    xmlns:dc="http://purl.org/dc/elements/1.1/"
    xmlns:cc="http://creativecommons.org/ns#"
    xmlns:rdf="http://www.w3.org/1999/02/22-rdf-syntax-ns#"
    xmlns:svg="http://www.w3.org/2000/svg"
    xmlns="http://www.w3.org/2000/svg"
    width="1174"
    height="334"    
>
<style type="text/css"><![CDATA[
.bl { /* bar line */
    stroke:slategray;
    stroke-width:2;
}
.title{
    text-anchor:left;
    font-weight:bold;
    font-size:22px;
}
.xAxis{stroke:black;stroke-width:1;}
.yAxis{stroke:black;stroke-width:1;}
.xLegends{
    text-anchor:middle;
    font-size:12px;
}
.yLegends{
    text-anchor:end;
    dominant-baseline:middle;
    font-size:12px;
}
.meanLine{
    stroke:black;
    stroke-dasharray:5,20;
}
]]></style>
<rect width="100%" height="100%" fill="moccasin" />
<text x="25" y="37" class="title">Mother - Aspects Sun / Uranus at birth</text>
<line x1="70" y1="302" x2="1149" y2="302" class="xAxis" />
<line x1="70" y1="52" x2="70" y2="302" class="yAxis" />
<g><title>0: 1630</title><line x1="70" y1="302" x2="70" y2="149.6" class="bl" /></g>
<g><title>1: 1641</title><line x1="73" y1="302" x2="73" y2="146.9" class="bl" /></g>
<g><title>2: 1649</title><line x1="76" y1="302" x2="76" y2="145" class="bl" /></g>
<g><title>3: 1583</title><line x1="79" y1="302" x2="79" y2="161" class="bl" /></g>
<g><title>4: 1601</title><line x1="82" y1="302" x2="82" y2="156.6" class="bl" /></g>
<g><title>5: 1588</title><line x1="85" y1="302" x2="85" y2="159.8" class="bl" /></g>
<g><title>6: 1572</title><line x1="88" y1="302" x2="88" y2="163.7" class="bl" /></g>
<g><title>7: 1568</title><line x1="91" y1="302" x2="91" y2="164.6" class="bl" /></g>
<g><title>8: 1907</title><line x1="94" y1="302" x2="94" y2="82.3" class="bl" /></g>
<g><title>9: 1859</title><line x1="97" y1="302" x2="97" y2="94" class="bl" /></g>
<g><title>10: 1750</title><line x1="100" y1="302" x2="100" y2="120.4" class="bl" /></g>
<g><title>11: 1518</title><line x1="103" y1="302" x2="103" y2="176.8" class="bl" /></g>
<g><title>12: 1695</title><line x1="106" y1="302" x2="106" y2="133.8" class="bl" /></g>
<g><title>13: 1633</title><line x1="109" y1="302" x2="109" y2="148.8" class="bl" /></g>
<g><title>14: 1595</title><line x1="112" y1="302" x2="112" y2="158.1" class="bl" /></g>
<g><title>15: 1522</title><line x1="115" y1="302" x2="115" y2="175.8" class="bl" /></g>
<g><title>16: 1569</title><line x1="118" y1="302" x2="118" y2="164.4" class="bl" /></g>
<g><title>17: 1573</title><line x1="121" y1="302" x2="121" y2="163.4" class="bl" /></g>
<g><title>18: 1531</title><line x1="124" y1="302" x2="124" y2="173.6" class="bl" /></g>
<g><title>19: 1539</title><line x1="127" y1="302" x2="127" y2="171.7" class="bl" /></g>
<g><title>20: 1543</title><line x1="130" y1="302" x2="130" y2="170.7" class="bl" /></g>
<g><title>21: 1450</title><line x1="133" y1="302" x2="133" y2="193.3" class="bl" /></g>
<g><title>22: 1812</title><line x1="136" y1="302" x2="136" y2="105.4" class="bl" /></g>
<g><title>23: 1928</title><line x1="139" y1="302" x2="139" y2="77.2" class="bl" /></g>
<g><title>24: 1758</title><line x1="142" y1="302" x2="142" y2="118.5" class="bl" /></g>
<g><title>25: 1539</title><line x1="145" y1="302" x2="145" y2="171.7" class="bl" /></g>
<g><title>26: 1698</title><line x1="148" y1="302" x2="148" y2="133.1" class="bl" /></g>
<g><title>27: 1613</title><line x1="151" y1="302" x2="151" y2="153.7" class="bl" /></g>
<g><title>28: 1595</title><line x1="154" y1="302" x2="154" y2="158.1" class="bl" /></g>
<g><title>29: 1534</title><line x1="157" y1="302" x2="157" y2="172.9" class="bl" /></g>
<g><title>30: 1519</title><line x1="160" y1="302" x2="160" y2="176.5" class="bl" /></g>
<g><title>31: 1526</title><line x1="163" y1="302" x2="163" y2="174.8" class="bl" /></g>
<g><title>32: 1536</title><line x1="166" y1="302" x2="166" y2="172.4" class="bl" /></g>
<g><title>33: 1544</title><line x1="169" y1="302" x2="169" y2="170.4" class="bl" /></g>
<g><title>34: 1536</title><line x1="172" y1="302" x2="172" y2="172.4" class="bl" /></g>
<g><title>35: 1539</title><line x1="175" y1="302" x2="175" y2="171.7" class="bl" /></g>
<g><title>36: 1515</title><line x1="178" y1="302" x2="178" y2="177.5" class="bl" /></g>
<g><title>37: 1630</title><line x1="181" y1="302" x2="181" y2="149.6" class="bl" /></g>
<g><title>38: 1474</title><line x1="184" y1="302" x2="184" y2="187.4" class="bl" /></g>
<g><title>39: 1501</title><line x1="187" y1="302" x2="187" y2="180.9" class="bl" /></g>
<g><title>40: 1952</title><line x1="190" y1="302" x2="190" y2="71.4" class="bl" /></g>
<g><title>41: 1803</title><line x1="193" y1="302" x2="193" y2="107.6" class="bl" /></g>
<g><title>42: 1538</title><line x1="196" y1="302" x2="196" y2="171.9" class="bl" /></g>
<g><title>43: 1748</title><line x1="199" y1="302" x2="199" y2="120.9" class="bl" /></g>
<g><title>44: 1577</title><line x1="202" y1="302" x2="202" y2="162.4" class="bl" /></g>
<g><title>45: 1525</title><line x1="205" y1="302" x2="205" y2="175.1" class="bl" /></g>
<g><title>46: 1617</title><line x1="208" y1="302" x2="208" y2="152.7" class="bl" /></g>
<g><title>47: 1520</title><line x1="211" y1="302" x2="211" y2="176.3" class="bl" /></g>
<g><title>48: 1522</title><line x1="214" y1="302" x2="214" y2="175.8" class="bl" /></g>
<g><title>49: 1499</title><line x1="217" y1="302" x2="217" y2="181.4" class="bl" /></g>
<g><title>50: 1632</title><line x1="220" y1="302" x2="220" y2="149.1" class="bl" /></g>
<g><title>51: 1545</title><line x1="223" y1="302" x2="223" y2="170.2" class="bl" /></g>
<g><title>52: 1582</title><line x1="226" y1="302" x2="226" y2="161.2" class="bl" /></g>
<g><title>53: 1540</title><line x1="229" y1="302" x2="229" y2="171.4" class="bl" /></g>
<g><title>54: 1505</title><line x1="232" y1="302" x2="232" y2="179.9" class="bl" /></g>
<g><title>55: 1534</title><line x1="235" y1="302" x2="235" y2="172.9" class="bl" /></g>
<g><title>56: 1531</title><line x1="238" y1="302" x2="238" y2="173.6" class="bl" /></g>
<g><title>57: 1661</title><line x1="241" y1="302" x2="241" y2="142" class="bl" /></g>
<g><title>58: 1558</title><line x1="244" y1="302" x2="244" y2="167" class="bl" /></g>
<g><title>59: 1525</title><line x1="247" y1="302" x2="247" y2="175.1" class="bl" /></g>
<g><title>60: 1487</title><line x1="250" y1="302" x2="250" y2="184.3" class="bl" /></g>
<g><title>61: 1414</title><line x1="253" y1="302" x2="253" y2="202" class="bl" /></g>
<g><title>62: 1494</title><line x1="256" y1="302" x2="256" y2="182.6" class="bl" /></g>
<g><title>63: 1505</title><line x1="259" y1="302" x2="259" y2="179.9" class="bl" /></g>
<g><title>64: 1493</title><line x1="262" y1="302" x2="262" y2="182.8" class="bl" /></g>
<g><title>65: 1710</title><line x1="265" y1="302" x2="265" y2="130.2" class="bl" /></g>
<g><title>66: 1574</title><line x1="268" y1="302" x2="268" y2="163.2" class="bl" /></g>
<g><title>67: 1652</title><line x1="271" y1="302" x2="271" y2="144.2" class="bl" /></g>
<g><title>68: 1533</title><line x1="274" y1="302" x2="274" y2="173.1" class="bl" /></g>
<g><title>69: 1647</title><line x1="277" y1="302" x2="277" y2="145.4" class="bl" /></g>
<g><title>70: 1526</title><line x1="280" y1="302" x2="280" y2="174.8" class="bl" /></g>
<g><title>71: 1516</title><line x1="283" y1="302" x2="283" y2="177.2" class="bl" /></g>
<g><title>72: 1510</title><line x1="286" y1="302" x2="286" y2="178.7" class="bl" /></g>
<g><title>73: 1516</title><line x1="289" y1="302" x2="289" y2="177.2" class="bl" /></g>
<g><title>74: 1574</title><line x1="292" y1="302" x2="292" y2="163.2" class="bl" /></g>
<g><title>75: 1585</title><line x1="295" y1="302" x2="295" y2="160.5" class="bl" /></g>
<g><title>76: 1559</title><line x1="298" y1="302" x2="298" y2="166.8" class="bl" /></g>
<g><title>77: 1488</title><line x1="301" y1="302" x2="301" y2="184" class="bl" /></g>
<g><title>78: 1456</title><line x1="304" y1="302" x2="304" y2="191.8" class="bl" /></g>
<g><title>79: 1515</title><line x1="307" y1="302" x2="307" y2="177.5" class="bl" /></g>
<g><title>80: 1418</title><line x1="310" y1="302" x2="310" y2="201" class="bl" /></g>
<g><title>81: 1537</title><line x1="313" y1="302" x2="313" y2="172.1" class="bl" /></g>
<g><title>82: 1568</title><line x1="316" y1="302" x2="316" y2="164.6" class="bl" /></g>
<g><title>83: 1485</title><line x1="319" y1="302" x2="319" y2="184.8" class="bl" /></g>
<g><title>84: 1510</title><line x1="322" y1="302" x2="322" y2="178.7" class="bl" /></g>
<g><title>85: 1553</title><line x1="325" y1="302" x2="325" y2="168.3" class="bl" /></g>
<g><title>86: 1501</title><line x1="328" y1="302" x2="328" y2="180.9" class="bl" /></g>
<g><title>87: 1450</title><line x1="331" y1="302" x2="331" y2="193.3" class="bl" /></g>
<g><title>88: 1532</title><line x1="334" y1="302" x2="334" y2="173.4" class="bl" /></g>
<g><title>89: 1478</title><line x1="337" y1="302" x2="337" y2="186.5" class="bl" /></g>
<g><title>90: 1463</title><line x1="340" y1="302" x2="340" y2="190.1" class="bl" /></g>
<g><title>91: 1539</title><line x1="343" y1="302" x2="343" y2="171.7" class="bl" /></g>
<g><title>92: 1429</title><line x1="346" y1="302" x2="346" y2="198.4" class="bl" /></g>
<g><title>93: 1559</title><line x1="349" y1="302" x2="349" y2="166.8" class="bl" /></g>
<g><title>94: 1524</title><line x1="352" y1="302" x2="352" y2="175.3" class="bl" /></g>
<g><title>95: 1544</title><line x1="355" y1="302" x2="355" y2="170.4" class="bl" /></g>
<g><title>96: 1533</title><line x1="358" y1="302" x2="358" y2="173.1" class="bl" /></g>
<g><title>97: 1455</title><line x1="361" y1="302" x2="361" y2="192" class="bl" /></g>
<g><title>98: 1407</title><line x1="364" y1="302" x2="364" y2="203.7" class="bl" /></g>
<g><title>99: 1477</title><line x1="367" y1="302" x2="367" y2="186.7" class="bl" /></g>
<g><title>100: 1595</title><line x1="370" y1="302" x2="370" y2="158.1" class="bl" /></g>
<g><title>101: 1583</title><line x1="373" y1="302" x2="373" y2="161" class="bl" /></g>
<g><title>102: 1529</title><line x1="376" y1="302" x2="376" y2="174.1" class="bl" /></g>
<g><title>103: 1431</title><line x1="379" y1="302" x2="379" y2="197.9" class="bl" /></g>
<g><title>104: 1488</title><line x1="382" y1="302" x2="382" y2="184" class="bl" /></g>
<g><title>105: 1592</title><line x1="385" y1="302" x2="385" y2="158.8" class="bl" /></g>
<g><title>106: 1389</title><line x1="388" y1="302" x2="388" y2="208.1" class="bl" /></g>
<g><title>107: 1541</title><line x1="391" y1="302" x2="391" y2="171.2" class="bl" /></g>
<g><title>108: 1492</title><line x1="394" y1="302" x2="394" y2="183.1" class="bl" /></g>
<g><title>109: 1568</title><line x1="397" y1="302" x2="397" y2="164.6" class="bl" /></g>
<g><title>110: 1557</title><line x1="400" y1="302" x2="400" y2="167.3" class="bl" /></g>
<g><title>111: 1464</title><line x1="403" y1="302" x2="403" y2="189.9" class="bl" /></g>
<g><title>112: 1595</title><line x1="406" y1="302" x2="406" y2="158.1" class="bl" /></g>
<g><title>113: 1467</title><line x1="409" y1="302" x2="409" y2="189.1" class="bl" /></g>
<g><title>114: 1565</title><line x1="412" y1="302" x2="412" y2="165.3" class="bl" /></g>
<g><title>115: 1652</title><line x1="415" y1="302" x2="415" y2="144.2" class="bl" /></g>
<g><title>116: 1459</title><line x1="418" y1="302" x2="418" y2="191.1" class="bl" /></g>
<g><title>117: 1578</title><line x1="421" y1="302" x2="421" y2="162.2" class="bl" /></g>
<g><title>118: 1527</title><line x1="424" y1="302" x2="424" y2="174.6" class="bl" /></g>
<g><title>119: 1561</title><line x1="427" y1="302" x2="427" y2="166.3" class="bl" /></g>
<g><title>120: 1603</title><line x1="430" y1="302" x2="430" y2="156.1" class="bl" /></g>
<g><title>121: 1599</title><line x1="433" y1="302" x2="433" y2="157.1" class="bl" /></g>
<g><title>122: 1524</title><line x1="436" y1="302" x2="436" y2="175.3" class="bl" /></g>
<g><title>123: 1528</title><line x1="439" y1="302" x2="439" y2="174.3" class="bl" /></g>
<g><title>124: 1562</title><line x1="442" y1="302" x2="442" y2="166.1" class="bl" /></g>
<g><title>125: 1450</title><line x1="445" y1="302" x2="445" y2="193.3" class="bl" /></g>
<g><title>126: 1643</title><line x1="448" y1="302" x2="448" y2="146.4" class="bl" /></g>
<g><title>127: 1592</title><line x1="451" y1="302" x2="451" y2="158.8" class="bl" /></g>
<g><title>128: 1513</title><line x1="454" y1="302" x2="454" y2="178" class="bl" /></g>
<g><title>129: 1572</title><line x1="457" y1="302" x2="457" y2="163.7" class="bl" /></g>
<g><title>130: 1379</title><line x1="460" y1="302" x2="460" y2="210.5" class="bl" /></g>
<g><title>131: 1583</title><line x1="463" y1="302" x2="463" y2="161" class="bl" /></g>
<g><title>132: 1441</title><line x1="466" y1="302" x2="466" y2="195.4" class="bl" /></g>
<g><title>133: 1455</title><line x1="469" y1="302" x2="469" y2="192" class="bl" /></g>
<g><title>134: 1442</title><line x1="472" y1="302" x2="472" y2="195.2" class="bl" /></g>
<g><title>135: 1583</title><line x1="475" y1="302" x2="475" y2="161" class="bl" /></g>
<g><title>136: 1579</title><line x1="478" y1="302" x2="478" y2="162" class="bl" /></g>
<g><title>137: 1508</title><line x1="481" y1="302" x2="481" y2="179.2" class="bl" /></g>
<g><title>138: 1581</title><line x1="484" y1="302" x2="484" y2="161.5" class="bl" /></g>
<g><title>139: 1499</title><line x1="487" y1="302" x2="487" y2="181.4" class="bl" /></g>
<g><title>140: 1538</title><line x1="490" y1="302" x2="490" y2="171.9" class="bl" /></g>
<g><title>141: 1606</title><line x1="493" y1="302" x2="493" y2="155.4" class="bl" /></g>
<g><title>142: 1592</title><line x1="496" y1="302" x2="496" y2="158.8" class="bl" /></g>
<g><title>143: 1602</title><line x1="499" y1="302" x2="499" y2="156.4" class="bl" /></g>
<g><title>144: 1600</title><line x1="502" y1="302" x2="502" y2="156.9" class="bl" /></g>
<g><title>145: 1590</title><line x1="505" y1="302" x2="505" y2="159.3" class="bl" /></g>
<g><title>146: 1602</title><line x1="508" y1="302" x2="508" y2="156.4" class="bl" /></g>
<g><title>147: 1619</title><line x1="511" y1="302" x2="511" y2="152.2" class="bl" /></g>
<g><title>148: 1642</title><line x1="514" y1="302" x2="514" y2="146.7" class="bl" /></g>
<g><title>149: 1531</title><line x1="517" y1="302" x2="517" y2="173.6" class="bl" /></g>
<g><title>150: 1646</title><line x1="520" y1="302" x2="520" y2="145.7" class="bl" /></g>
<g><title>151: 1626</title><line x1="523" y1="302" x2="523" y2="150.5" class="bl" /></g>
<g><title>152: 1619</title><line x1="526" y1="302" x2="526" y2="152.2" class="bl" /></g>
<g><title>153: 1608</title><line x1="529" y1="302" x2="529" y2="154.9" class="bl" /></g>
<g><title>154: 1617</title><line x1="532" y1="302" x2="532" y2="152.7" class="bl" /></g>
<g><title>155: 1607</title><line x1="535" y1="302" x2="535" y2="155.2" class="bl" /></g>
<g><title>156: 1587</title><line x1="538" y1="302" x2="538" y2="160" class="bl" /></g>
<g><title>157: 1660</title><line x1="541" y1="302" x2="541" y2="142.3" class="bl" /></g>
<g><title>158: 1584</title><line x1="544" y1="302" x2="544" y2="160.7" class="bl" /></g>
<g><title>159: 1264</title><line x1="547" y1="302" x2="547" y2="238.4" class="bl" /></g>
<g><title>160: 1002</title><line x1="550" y1="302" x2="550" y2="302" class="bl" /></g>
<g><title>161: 1132</title><line x1="553" y1="302" x2="553" y2="270.4" class="bl" /></g>
<g><title>162: 1607</title><line x1="556" y1="302" x2="556" y2="155.2" class="bl" /></g>
<g><title>163: 1551</title><line x1="559" y1="302" x2="559" y2="168.7" class="bl" /></g>
<g><title>164: 1577</title><line x1="562" y1="302" x2="562" y2="162.4" class="bl" /></g>
<g><title>165: 1621</title><line x1="565" y1="302" x2="565" y2="151.8" class="bl" /></g>
<g><title>166: 1651</title><line x1="568" y1="302" x2="568" y2="144.5" class="bl" /></g>
<g><title>167: 1646</title><line x1="571" y1="302" x2="571" y2="145.7" class="bl" /></g>
<g><title>168: 1661</title><line x1="574" y1="302" x2="574" y2="142" class="bl" /></g>
<g><title>169: 1651</title><line x1="577" y1="302" x2="577" y2="144.5" class="bl" /></g>
<g><title>170: 1680</title><line x1="580" y1="302" x2="580" y2="137.4" class="bl" /></g>
<g><title>171: 1723</title><line x1="583" y1="302" x2="583" y2="127" class="bl" /></g>
<g><title>172: 1652</title><line x1="586" y1="302" x2="586" y2="144.2" class="bl" /></g>
<g><title>173: 1603</title><line x1="589" y1="302" x2="589" y2="156.1" class="bl" /></g>
<g><title>174: 1723</title><line x1="592" y1="302" x2="592" y2="127" class="bl" /></g>
<g><title>175: 1635</title><line x1="595" y1="302" x2="595" y2="148.4" class="bl" /></g>
<g><title>176: 1692</title><line x1="598" y1="302" x2="598" y2="134.5" class="bl" /></g>
<g><title>177: 1644</title><line x1="601" y1="302" x2="601" y2="146.2" class="bl" /></g>
<g><title>178: 1646</title><line x1="604" y1="302" x2="604" y2="145.7" class="bl" /></g>
<g><title>179: 1706</title><line x1="607" y1="302" x2="607" y2="131.1" class="bl" /></g>
<g><title>180: 1677</title><line x1="610" y1="302" x2="610" y2="138.2" class="bl" /></g>
<g><title>181: 1504</title><line x1="613" y1="302" x2="613" y2="180.2" class="bl" /></g>
<g><title>182: 1554</title><line x1="616" y1="302" x2="616" y2="168" class="bl" /></g>
<g><title>183: 1623</title><line x1="619" y1="302" x2="619" y2="151.3" class="bl" /></g>
<g><title>184: 1589</title><line x1="622" y1="302" x2="622" y2="159.5" class="bl" /></g>
<g><title>185: 1729</title><line x1="625" y1="302" x2="625" y2="125.5" class="bl" /></g>
<g><title>186: 1757</title><line x1="628" y1="302" x2="628" y2="118.7" class="bl" /></g>
<g><title>187: 1501</title><line x1="631" y1="302" x2="631" y2="180.9" class="bl" /></g>
<g><title>188: 1628</title><line x1="634" y1="302" x2="634" y2="150.1" class="bl" /></g>
<g><title>189: 1746</title><line x1="637" y1="302" x2="637" y2="121.4" class="bl" /></g>
<g><title>190: 1535</title><line x1="640" y1="302" x2="640" y2="172.6" class="bl" /></g>
<g><title>191: 1695</title><line x1="643" y1="302" x2="643" y2="133.8" class="bl" /></g>
<g><title>192: 1685</title><line x1="646" y1="302" x2="646" y2="136.2" class="bl" /></g>
<g><title>193: 1681</title><line x1="649" y1="302" x2="649" y2="137.2" class="bl" /></g>
<g><title>194: 1528</title><line x1="652" y1="302" x2="652" y2="174.3" class="bl" /></g>
<g><title>195: 1741</title><line x1="655" y1="302" x2="655" y2="122.6" class="bl" /></g>
<g><title>196: 1739</title><line x1="658" y1="302" x2="658" y2="123.1" class="bl" /></g>
<g><title>197: 1666</title><line x1="661" y1="302" x2="661" y2="140.8" class="bl" /></g>
<g><title>198: 1728</title><line x1="664" y1="302" x2="664" y2="125.8" class="bl" /></g>
<g><title>199: 1591</title><line x1="667" y1="302" x2="667" y2="159" class="bl" /></g>
<g><title>200: 1669</title><line x1="670" y1="302" x2="670" y2="140.1" class="bl" /></g>
<g><title>201: 1584</title><line x1="673" y1="302" x2="673" y2="160.7" class="bl" /></g>
<g><title>202: 1684</title><line x1="676" y1="302" x2="676" y2="136.5" class="bl" /></g>
<g><title>203: 1706</title><line x1="679" y1="302" x2="679" y2="131.1" class="bl" /></g>
<g><title>204: 1647</title><line x1="682" y1="302" x2="682" y2="145.4" class="bl" /></g>
<g><title>205: 1702</title><line x1="685" y1="302" x2="685" y2="132.1" class="bl" /></g>
<g><title>206: 1618</title><line x1="688" y1="302" x2="688" y2="152.5" class="bl" /></g>
<g><title>207: 1650</title><line x1="691" y1="302" x2="691" y2="144.7" class="bl" /></g>
<g><title>208: 1652</title><line x1="694" y1="302" x2="694" y2="144.2" class="bl" /></g>
<g><title>209: 1663</title><line x1="697" y1="302" x2="697" y2="141.6" class="bl" /></g>
<g><title>210: 1695</title><line x1="700" y1="302" x2="700" y2="133.8" class="bl" /></g>
<g><title>211: 1666</title><line x1="703" y1="302" x2="703" y2="140.8" class="bl" /></g>
<g><title>212: 1675</title><line x1="706" y1="302" x2="706" y2="138.7" class="bl" /></g>
<g><title>213: 1719</title><line x1="709" y1="302" x2="709" y2="128" class="bl" /></g>
<g><title>214: 1692</title><line x1="712" y1="302" x2="712" y2="134.5" class="bl" /></g>
<g><title>215: 1686</title><line x1="715" y1="302" x2="715" y2="136" class="bl" /></g>
<g><title>216: 1704</title><line x1="718" y1="302" x2="718" y2="131.6" class="bl" /></g>
<g><title>217: 1758</title><line x1="721" y1="302" x2="721" y2="118.5" class="bl" /></g>
<g><title>218: 1749</title><line x1="724" y1="302" x2="724" y2="120.7" class="bl" /></g>
<g><title>219: 1586</title><line x1="727" y1="302" x2="727" y2="160.3" class="bl" /></g>
<g><title>220: 1688</title><line x1="730" y1="302" x2="730" y2="135.5" class="bl" /></g>
<g><title>221: 1738</title><line x1="733" y1="302" x2="733" y2="123.4" class="bl" /></g>
<g><title>222: 1748</title><line x1="736" y1="302" x2="736" y2="120.9" class="bl" /></g>
<g><title>223: 1766</title><line x1="739" y1="302" x2="739" y2="116.6" class="bl" /></g>
<g><title>224: 1780</title><line x1="742" y1="302" x2="742" y2="113.2" class="bl" /></g>
<g><title>225: 1966</title><line x1="745" y1="302" x2="745" y2="68" class="bl" /></g>
<g><title>226: 1738</title><line x1="748" y1="302" x2="748" y2="123.4" class="bl" /></g>
<g><title>227: 1689</title><line x1="751" y1="302" x2="751" y2="135.3" class="bl" /></g>
<g><title>228: 1729</title><line x1="754" y1="302" x2="754" y2="125.5" class="bl" /></g>
<g><title>229: 1782</title><line x1="757" y1="302" x2="757" y2="112.7" class="bl" /></g>
<g><title>230: 1721</title><line x1="760" y1="302" x2="760" y2="127.5" class="bl" /></g>
<g><title>231: 1752</title><line x1="763" y1="302" x2="763" y2="120" class="bl" /></g>
<g><title>232: 1654</title><line x1="766" y1="302" x2="766" y2="143.7" class="bl" /></g>
<g><title>233: 1695</title><line x1="769" y1="302" x2="769" y2="133.8" class="bl" /></g>
<g><title>234: 1808</title><line x1="772" y1="302" x2="772" y2="106.4" class="bl" /></g>
<g><title>235: 1771</title><line x1="775" y1="302" x2="775" y2="115.3" class="bl" /></g>
<g><title>236: 1893</title><line x1="778" y1="302" x2="778" y2="85.7" class="bl" /></g>
<g><title>237: 1682</title><line x1="781" y1="302" x2="781" y2="137" class="bl" /></g>
<g><title>238: 1756</title><line x1="784" y1="302" x2="784" y2="119" class="bl" /></g>
<g><title>239: 1642</title><line x1="787" y1="302" x2="787" y2="146.7" class="bl" /></g>
<g><title>240: 1809</title><line x1="790" y1="302" x2="790" y2="106.1" class="bl" /></g>
<g><title>241: 1729</title><line x1="793" y1="302" x2="793" y2="125.5" class="bl" /></g>
<g><title>242: 1766</title><line x1="796" y1="302" x2="796" y2="116.6" class="bl" /></g>
<g><title>243: 1916</title><line x1="799" y1="302" x2="799" y2="80.2" class="bl" /></g>
<g><title>244: 1742</title><line x1="802" y1="302" x2="802" y2="122.4" class="bl" /></g>
<g><title>245: 1723</title><line x1="805" y1="302" x2="805" y2="127" class="bl" /></g>
<g><title>246: 1753</title><line x1="808" y1="302" x2="808" y2="119.7" class="bl" /></g>
<g><title>247: 1638</title><line x1="811" y1="302" x2="811" y2="147.6" class="bl" /></g>
<g><title>248: 1730</title><line x1="814" y1="302" x2="814" y2="125.3" class="bl" /></g>
<g><title>249: 1645</title><line x1="817" y1="302" x2="817" y2="145.9" class="bl" /></g>
<g><title>250: 1804</title><line x1="820" y1="302" x2="820" y2="107.3" class="bl" /></g>
<g><title>251: 1739</title><line x1="823" y1="302" x2="823" y2="123.1" class="bl" /></g>
<g><title>252: 1737</title><line x1="826" y1="302" x2="826" y2="123.6" class="bl" /></g>
<g><title>253: 1860</title><line x1="829" y1="302" x2="829" y2="93.7" class="bl" /></g>
<g><title>254: 1658</title><line x1="832" y1="302" x2="832" y2="142.8" class="bl" /></g>
<g><title>255: 1678</title><line x1="835" y1="302" x2="835" y2="137.9" class="bl" /></g>
<g><title>256: 1869</title><line x1="838" y1="302" x2="838" y2="91.6" class="bl" /></g>
<g><title>257: 1916</title><line x1="841" y1="302" x2="841" y2="80.2" class="bl" /></g>
<g><title>258: 1747</title><line x1="844" y1="302" x2="844" y2="121.2" class="bl" /></g>
<g><title>259: 1710</title><line x1="847" y1="302" x2="847" y2="130.2" class="bl" /></g>
<g><title>260: 1852</title><line x1="850" y1="302" x2="850" y2="95.7" class="bl" /></g>
<g><title>261: 1756</title><line x1="853" y1="302" x2="853" y2="119" class="bl" /></g>
<g><title>262: 1815</title><line x1="856" y1="302" x2="856" y2="104.7" class="bl" /></g>
<g><title>263: 1696</title><line x1="859" y1="302" x2="859" y2="133.6" class="bl" /></g>
<g><title>264: 1665</title><line x1="862" y1="302" x2="862" y2="141.1" class="bl" /></g>
<g><title>265: 1722</title><line x1="865" y1="302" x2="865" y2="127.2" class="bl" /></g>
<g><title>266: 1967</title><line x1="868" y1="302" x2="868" y2="67.8" class="bl" /></g>
<g><title>267: 1664</title><line x1="871" y1="302" x2="871" y2="141.3" class="bl" /></g>
<g><title>268: 1766</title><line x1="874" y1="302" x2="874" y2="116.6" class="bl" /></g>
<g><title>269: 1736</title><line x1="877" y1="302" x2="877" y2="123.8" class="bl" /></g>
<g><title>270: 1921</title><line x1="880" y1="302" x2="880" y2="78.9" class="bl" /></g>
<g><title>271: 1796</title><line x1="883" y1="302" x2="883" y2="109.3" class="bl" /></g>
<g><title>272: 1691</title><line x1="886" y1="302" x2="886" y2="134.8" class="bl" /></g>
<g><title>273: 1615</title><line x1="889" y1="302" x2="889" y2="153.2" class="bl" /></g>
<g><title>274: 2032</title><line x1="892" y1="302" x2="892" y2="52" class="bl" /></g>
<g><title>275: 1694</title><line x1="895" y1="302" x2="895" y2="134" class="bl" /></g>
<g><title>276: 1738</title><line x1="898" y1="302" x2="898" y2="123.4" class="bl" /></g>
<g><title>277: 1857</title><line x1="901" y1="302" x2="901" y2="94.5" class="bl" /></g>
<g><title>278: 1906</title><line x1="904" y1="302" x2="904" y2="82.6" class="bl" /></g>
<g><title>279: 1646</title><line x1="907" y1="302" x2="907" y2="145.7" class="bl" /></g>
<g><title>280: 1742</title><line x1="910" y1="302" x2="910" y2="122.4" class="bl" /></g>
<g><title>281: 1941</title><line x1="913" y1="302" x2="913" y2="74.1" class="bl" /></g>
<g><title>282: 1714</title><line x1="916" y1="302" x2="916" y2="129.2" class="bl" /></g>
<g><title>283: 1810</title><line x1="919" y1="302" x2="919" y2="105.9" class="bl" /></g>
<g><title>284: 1766</title><line x1="922" y1="302" x2="922" y2="116.6" class="bl" /></g>
<g><title>285: 1857</title><line x1="925" y1="302" x2="925" y2="94.5" class="bl" /></g>
<g><title>286: 1682</title><line x1="928" y1="302" x2="928" y2="137" class="bl" /></g>
<g><title>287: 1636</title><line x1="931" y1="302" x2="931" y2="148.1" class="bl" /></g>
<g><title>288: 1801</title><line x1="934" y1="302" x2="934" y2="108.1" class="bl" /></g>
<g><title>289: 1573</title><line x1="937" y1="302" x2="937" y2="163.4" class="bl" /></g>
<g><title>290: 1961</title><line x1="940" y1="302" x2="940" y2="69.2" class="bl" /></g>
<g><title>291: 1695</title><line x1="943" y1="302" x2="943" y2="133.8" class="bl" /></g>
<g><title>292: 1734</title><line x1="946" y1="302" x2="946" y2="124.3" class="bl" /></g>
<g><title>293: 1791</title><line x1="949" y1="302" x2="949" y2="110.5" class="bl" /></g>
<g><title>294: 1842</title><line x1="952" y1="302" x2="952" y2="98.1" class="bl" /></g>
<g><title>295: 1630</title><line x1="955" y1="302" x2="955" y2="149.6" class="bl" /></g>
<g><title>296: 1909</title><line x1="958" y1="302" x2="958" y2="81.9" class="bl" /></g>
<g><title>297: 1794</title><line x1="961" y1="302" x2="961" y2="109.8" class="bl" /></g>
<g><title>298: 1576</title><line x1="964" y1="302" x2="964" y2="162.7" class="bl" /></g>
<g><title>299: 1869</title><line x1="967" y1="302" x2="967" y2="91.6" class="bl" /></g>
<g><title>300: 1792</title><line x1="970" y1="302" x2="970" y2="110.3" class="bl" /></g>
<g><title>301: 1582</title><line x1="973" y1="302" x2="973" y2="161.2" class="bl" /></g>
<g><title>302: 1949</title><line x1="976" y1="302" x2="976" y2="72.1" class="bl" /></g>
<g><title>303: 1569</title><line x1="979" y1="302" x2="979" y2="164.4" class="bl" /></g>
<g><title>304: 1781</title><line x1="982" y1="302" x2="982" y2="112.9" class="bl" /></g>
<g><title>305: 1750</title><line x1="985" y1="302" x2="985" y2="120.4" class="bl" /></g>
<g><title>306: 1717</title><line x1="988" y1="302" x2="988" y2="128.5" class="bl" /></g>
<g><title>307: 1906</title><line x1="991" y1="302" x2="991" y2="82.6" class="bl" /></g>
<g><title>308: 1629</title><line x1="994" y1="302" x2="994" y2="149.8" class="bl" /></g>
<g><title>309: 1882</title><line x1="997" y1="302" x2="997" y2="88.4" class="bl" /></g>
<g><title>310: 1594</title><line x1="1000" y1="302" x2="1000" y2="158.3" class="bl" /></g>
<g><title>311: 1649</title><line x1="1003" y1="302" x2="1003" y2="145" class="bl" /></g>
<g><title>312: 1676</title><line x1="1006" y1="302" x2="1006" y2="138.4" class="bl" /></g>
<g><title>313: 1777</title><line x1="1009" y1="302" x2="1009" y2="113.9" class="bl" /></g>
<g><title>314: 1692</title><line x1="1012" y1="302" x2="1012" y2="134.5" class="bl" /></g>
<g><title>315: 1735</title><line x1="1015" y1="302" x2="1015" y2="124.1" class="bl" /></g>
<g><title>316: 1612</title><line x1="1018" y1="302" x2="1018" y2="153.9" class="bl" /></g>
<g><title>317: 1891</title><line x1="1021" y1="302" x2="1021" y2="86.2" class="bl" /></g>
<g><title>318: 1677</title><line x1="1024" y1="302" x2="1024" y2="138.2" class="bl" /></g>
<g><title>319: 1787</title><line x1="1027" y1="302" x2="1027" y2="111.5" class="bl" /></g>
<g><title>320: 1750</title><line x1="1030" y1="302" x2="1030" y2="120.4" class="bl" /></g>
<g><title>321: 1533</title><line x1="1033" y1="302" x2="1033" y2="173.1" class="bl" /></g>
<g><title>322: 1782</title><line x1="1036" y1="302" x2="1036" y2="112.7" class="bl" /></g>
<g><title>323: 1733</title><line x1="1039" y1="302" x2="1039" y2="124.6" class="bl" /></g>
<g><title>324: 1647</title><line x1="1042" y1="302" x2="1042" y2="145.4" class="bl" /></g>
<g><title>325: 1635</title><line x1="1045" y1="302" x2="1045" y2="148.4" class="bl" /></g>
<g><title>326: 1664</title><line x1="1048" y1="302" x2="1048" y2="141.3" class="bl" /></g>
<g><title>327: 1645</title><line x1="1051" y1="302" x2="1051" y2="145.9" class="bl" /></g>
<g><title>328: 1608</title><line x1="1054" y1="302" x2="1054" y2="154.9" class="bl" /></g>
<g><title>329: 1726</title><line x1="1057" y1="302" x2="1057" y2="126.3" class="bl" /></g>
<g><title>330: 1878</title><line x1="1060" y1="302" x2="1060" y2="89.4" class="bl" /></g>
<g><title>331: 1851</title><line x1="1063" y1="302" x2="1063" y2="95.9" class="bl" /></g>
<g><title>332: 1712</title><line x1="1066" y1="302" x2="1066" y2="129.7" class="bl" /></g>
<g><title>333: 1781</title><line x1="1069" y1="302" x2="1069" y2="112.9" class="bl" /></g>
<g><title>334: 1685</title><line x1="1072" y1="302" x2="1072" y2="136.2" class="bl" /></g>
<g><title>335: 1661</title><line x1="1075" y1="302" x2="1075" y2="142" class="bl" /></g>
<g><title>336: 1507</title><line x1="1078" y1="302" x2="1078" y2="179.4" class="bl" /></g>
<g><title>337: 1768</title><line x1="1081" y1="302" x2="1081" y2="116.1" class="bl" /></g>
<g><title>338: 1620</title><line x1="1084" y1="302" x2="1084" y2="152" class="bl" /></g>
<g><title>339: 1632</title><line x1="1087" y1="302" x2="1087" y2="149.1" class="bl" /></g>
<g><title>340: 1594</title><line x1="1090" y1="302" x2="1090" y2="158.3" class="bl" /></g>
<g><title>341: 1629</title><line x1="1093" y1="302" x2="1093" y2="149.8" class="bl" /></g>
<g><title>342: 1874</title><line x1="1096" y1="302" x2="1096" y2="90.3" class="bl" /></g>
<g><title>343: 1958</title><line x1="1099" y1="302" x2="1099" y2="70" class="bl" /></g>
<g><title>344: 1776</title><line x1="1102" y1="302" x2="1102" y2="114.1" class="bl" /></g>
<g><title>345: 1653</title><line x1="1105" y1="302" x2="1105" y2="144" class="bl" /></g>
<g><title>346: 1797</title><line x1="1108" y1="302" x2="1108" y2="109" class="bl" /></g>
<g><title>347: 1743</title><line x1="1111" y1="302" x2="1111" y2="122.1" class="bl" /></g>
<g><title>348: 1627</title><line x1="1114" y1="302" x2="1114" y2="150.3" class="bl" /></g>
<g><title>349: 1602</title><line x1="1117" y1="302" x2="1117" y2="156.4" class="bl" /></g>
<g><title>350: 1709</title><line x1="1120" y1="302" x2="1120" y2="130.4" class="bl" /></g>
<g><title>351: 1645</title><line x1="1123" y1="302" x2="1123" y2="145.9" class="bl" /></g>
<g><title>352: 1592</title><line x1="1126" y1="302" x2="1126" y2="158.8" class="bl" /></g>
<g><title>353: 1468</title><line x1="1129" y1="302" x2="1129" y2="188.9" class="bl" /></g>
<g><title>354: 1616</title><line x1="1132" y1="302" x2="1132" y2="153" class="bl" /></g>
<g><title>355: 2024</title><line x1="1135" y1="302" x2="1135" y2="53.9" class="bl" /></g>
<g><title>356: 1790</title><line x1="1138" y1="302" x2="1138" y2="110.7" class="bl" /></g>
<g><title>357: 1669</title><line x1="1141" y1="302" x2="1141" y2="140.1" class="bl" /></g>
<g><title>358: 1788</title><line x1="1144" y1="302" x2="1144" y2="111.2" class="bl" /></g>
<g><title>359: 1735</title><line x1="1147" y1="302" x2="1147" y2="124.1" class="bl" /></g>
<text x="70" y="319" class="xLegends">0</text>
<text x="1149" y="319" class="xLegends">359</text>
<text x="55" y="302" class="yLegends">1002</text>
<text x="55" y="52" class="yLegends">2032</text>
<text x="55" y="146" class="yLegends">1644.3</text>
</svg>
