<?xml version="1.0" encoding="UTF-8" standalone="no"?>
<svg
    xmlns:dc="http://purl.org/dc/elements/1.1/"
    xmlns:cc="http://creativecommons.org/ns#"
    xmlns:rdf="http://www.w3.org/1999/02/22-rdf-syntax-ns#"
    xmlns:svg="http://www.w3.org/2000/svg"
    xmlns="http://www.w3.org/2000/svg"
    width="454"
    height="334"    
>
<style type="text/css"><![CDATA[
.bl { /* bar line */
    stroke:slategray;
    stroke-width:8;
}
.title{
    text-anchor:left;
    font-weight:bold;
    font-size:22px;
}
.xAxis{stroke:black;stroke-width:1;}
.yAxis{stroke:black;stroke-width:1;}
.xLegends{
    text-anchor:middle;
    font-size:12px;
}
.yLegends{
    text-anchor:end;
    dominant-baseline:middle;
    font-size:12px;
}
.meanLine{
    stroke:black;
    stroke-dasharray:5,20;
}
]]></style>
<rect width="100%" height="100%" fill="moccasin" />
<text x="25" y="37" class="title">Mother - year of birth</text>
<line x1="70" y1="302" x2="429" y2="302" class="xAxis" />
<line x1="70" y1="52" x2="70" y2="302" class="yAxis" />
<g><title>1947: 1</title><line x1="70" y1="302" x2="70" y2="302" class="bl" /></g>
<g><title>1948: 1</title><line x1="79" y1="302" x2="79" y2="302" class="bl" /></g>
<g><title>1950: 2</title><line x1="88" y1="302" x2="88" y2="302" class="bl" /></g>
<g><title>1951: 4</title><line x1="97" y1="302" x2="97" y2="302" class="bl" /></g>
<g><title>1952: 12</title><line x1="106" y1="302" x2="106" y2="301.9" class="bl" /></g>
<g><title>1953: 47</title><line x1="115" y1="302" x2="115" y2="301.8" class="bl" /></g>
<g><title>1954: 97</title><line x1="124" y1="302" x2="124" y2="301.5" class="bl" /></g>
<g><title>1955: 267</title><line x1="133" y1="302" x2="133" y2="300.7" class="bl" /></g>
<g><title>1956: 628</title><line x1="142" y1="302" x2="142" y2="299" class="bl" /></g>
<g><title>1957: 1202</title><line x1="151" y1="302" x2="151" y2="296.3" class="bl" /></g>
<g><title>1958: 2087</title><line x1="160" y1="302" x2="160" y2="292" class="bl" /></g>
<g><title>1959: 3690</title><line x1="169" y1="302" x2="169" y2="284.4" class="bl" /></g>
<g><title>1960: 5384</title><line x1="178" y1="302" x2="178" y2="276.3" class="bl" /></g>
<g><title>1961: 7840</title><line x1="187" y1="302" x2="187" y2="264.6" class="bl" /></g>
<g><title>1962: 10414</title><line x1="196" y1="302" x2="196" y2="252.3" class="bl" /></g>
<g><title>1963: 14669</title><line x1="205" y1="302" x2="205" y2="232" class="bl" /></g>
<g><title>1964: 19041</title><line x1="214" y1="302" x2="214" y2="211.1" class="bl" /></g>
<g><title>1965: 23410</title><line x1="223" y1="302" x2="223" y2="190.3" class="bl" /></g>
<g><title>1966: 28332</title><line x1="232" y1="302" x2="232" y2="166.8" class="bl" /></g>
<g><title>1967: 32583</title><line x1="241" y1="302" x2="241" y2="146.5" class="bl" /></g>
<g><title>1968: 37955</title><line x1="250" y1="302" x2="250" y2="120.9" class="bl" /></g>
<g><title>1969: 44169</title><line x1="259" y1="302" x2="259" y2="91.2" class="bl" /></g>
<g><title>1970: 49139</title><line x1="268" y1="302" x2="268" y2="67.5" class="bl" /></g>
<g><title>1971: 52390</title><line x1="277" y1="302" x2="277" y2="52" class="bl" /></g>
<g><title>1972: 51910</title><line x1="286" y1="302" x2="286" y2="54.3" class="bl" /></g>
<g><title>1973: 47382</title><line x1="295" y1="302" x2="295" y2="75.9" class="bl" /></g>
<g><title>1974: 39060</title><line x1="304" y1="302" x2="304" y2="115.6" class="bl" /></g>
<g><title>1975: 30434</title><line x1="313" y1="302" x2="313" y2="156.8" class="bl" /></g>
<g><title>1976: 23217</title><line x1="322" y1="302" x2="322" y2="191.2" class="bl" /></g>
<g><title>1977: 18536</title><line x1="331" y1="302" x2="331" y2="213.6" class="bl" /></g>
<g><title>1978: 14318</title><line x1="340" y1="302" x2="340" y2="233.7" class="bl" /></g>
<g><title>1979: 11874</title><line x1="349" y1="302" x2="349" y2="245.3" class="bl" /></g>
<g><title>1980: 9656</title><line x1="358" y1="302" x2="358" y2="255.9" class="bl" /></g>
<g><title>1981: 6588</title><line x1="367" y1="302" x2="367" y2="270.6" class="bl" /></g>
<g><title>1982: 3340</title><line x1="376" y1="302" x2="376" y2="286.1" class="bl" /></g>
<g><title>1983: 1486</title><line x1="385" y1="302" x2="385" y2="294.9" class="bl" /></g>
<g><title>1984: 591</title><line x1="394" y1="302" x2="394" y2="299.2" class="bl" /></g>
<g><title>1985: 151</title><line x1="403" y1="302" x2="403" y2="301.3" class="bl" /></g>
<g><title>1986: 26</title><line x1="412" y1="302" x2="412" y2="301.9" class="bl" /></g>
<g><title>1987: 3</title><line x1="421" y1="302" x2="421" y2="302" class="bl" /></g>
<text x="70" y="319" class="xLegends">1947</text>
<text x="429" y="319" class="xLegends">1987</text>
<text x="276" y="319" class="xLegends">1971</text>
<text x="55" y="302" class="yLegends">1</text>
<text x="55" y="52" class="yLegends">52390</text>
<text x="55" y="231" class="yLegends">14798.4</text>
<g fill="none"><path class="meanLine" d="M70 231 H429 231 Z" /></g></svg>
